<svg width="467" height="466" viewBox="0 0 467 466" fill="none" xmlns="http://www.w3.org/2000/svg">
<path d="M150.235 364.028L0.000577562 103.814L300.47 103.814L150.235 364.028Z" fill="#D81159"/>
<rect x="149.299" y="103.812" width="187.542" height="260.683" fill="#FFBC42"/>
<path d="M336.335 103.812C353.451 103.812 370.4 107.183 386.214 113.733C402.028 120.283 416.397 129.884 428.5 141.988C440.603 154.091 450.204 168.46 456.754 184.274C463.305 200.087 466.676 217.036 466.676 234.153C466.676 251.27 463.305 268.219 456.754 284.033C450.204 299.846 440.603 314.215 428.5 326.319C416.397 338.422 402.028 348.023 386.214 354.573C370.4 361.123 353.451 364.495 336.334 364.495L336.335 234.153L336.335 103.812Z" fill="#73D2DE"/>
</svg>
