<svg width="2557" height="976" viewBox="0 0 2557 976" fill="none" xmlns="http://www.w3.org/2000/svg">
<path d="M80.5 283C59.2368 283 42 300.237 42 321.5C42 342.763 59.2368 360 80.5 360C101.763 360 119 342.763 119 321.5C118.979 300.246 101.754 283.021 80.5 283V283Z" fill="#56CCF2"/>
<path d="M161 469C160.256 447.224 151.968 404.245 137.442 389.527C122.449 374.351 102.243 366 80.5009 366C58.7584 366 38.5509 374.351 23.5594 389.527C9.03347 404.245 0.745667 447.224 2.45019e-06 469H161Z" fill="#56CCF2"/>
<path d="M196.5 315C175.237 315 158 332.461 158 354C158 375.539 175.237 393 196.5 393C217.763 393 235 375.539 235 354C234.979 332.47 217.754 315.021 196.5 315V315Z" fill="#F2F2F2"/>
<path d="M277 501C276.256 479.224 267.968 436.245 253.442 421.527C238.449 406.351 218.243 398 196.501 398C174.758 398 154.551 406.351 139.559 421.527C125.033 436.245 116.746 479.224 116 501H277Z" fill="#F2F2F2"/>
<path d="M662.06 830.596C664.013 832.549 667.179 832.549 669.131 830.596L700.951 798.776C702.904 796.824 702.904 793.658 700.951 791.705C698.998 789.753 695.833 789.753 693.88 791.705L665.596 819.989L637.311 791.705C635.359 789.753 632.193 789.753 630.24 791.705C628.288 793.658 628.288 796.824 630.24 798.776L662.06 830.596ZM660.596 576.201L660.596 827.06L670.596 827.06L670.596 576.201L660.596 576.201Z" fill="#D81159"/>
<path d="M544.111 270.18V513.145H787.077V270.18H544.111ZM772.841 284.416V327.125H558.348V284.416H772.841ZM558.348 498.909V341.361H772.841V498.909H558.348Z" fill="#40A22A"/>
<path d="M573.059 298.652H615.767V312.888H573.059V298.652Z" fill="#40A22A"/>
<path d="M686.949 298.652H701.185V312.888H686.949V298.652Z" fill="#40A22A"/>
<path d="M743.894 298.652H758.13V312.888H743.894V298.652Z" fill="#40A22A"/>
<path d="M715.421 298.652H729.658V312.888H715.421V298.652Z" fill="#40A22A"/>
<path d="M594.413 382.07L585.209 372.868L575.144 382.934L594.413 402.204L627.918 368.697L617.852 358.632L594.413 382.07Z" fill="#40A22A"/>
<path d="M594.413 424.779L585.209 415.577L575.144 425.642L594.413 444.913L627.918 411.406L617.852 401.341L594.413 424.779Z" fill="#40A22A"/>
<path d="M594.413 467.487L585.209 458.286L575.144 468.351L594.413 487.622L627.918 454.115L617.852 444.049L594.413 467.487Z" fill="#40A22A"/>
<path d="M644.24 370.782H758.13V385.019H644.24V370.782Z" fill="#40A22A"/>
<path d="M644.24 413.491H758.13V427.728H644.24V413.491Z" fill="#40A22A"/>
<path d="M644.24 456.2H758.13V470.436H644.24V456.2Z" fill="#40A22A"/>
<line x1="527.796" y1="391.663" x2="338.231" y2="391.663" stroke="#F2F2F2" stroke-width="10"/>
<path fill-rule="evenodd" clip-rule="evenodd" d="M507.536 957.53C495.525 945.51 495.525 926.02 507.535 913.999C519.546 901.979 539.02 901.979 551.031 913.999C563.043 925.928 563.117 945.344 551.197 957.364C551.142 957.419 551.087 957.475 551.031 957.53C539.021 969.55 519.547 969.55 507.536 957.53Z" fill="#D81159"/>
<rect x="517.339" y="945.341" width="30.4712" height="3.38569" transform="rotate(-45 517.339 945.341)" fill="white"/>
<path d="M538.886 947.733L517.339 926.187L519.733 923.793L541.28 945.339L538.886 947.733Z" fill="white"/>
<path d="M1535.23 515.977C1534.32 506.838 1530.24 498.222 1523.73 491.717C1518.17 486.158 1511.37 482.585 1504.21 480.997V475.975C1507.13 475.247 1509.3 472.6 1509.3 469.454C1509.3 465.748 1506.29 462.734 1502.58 462.734H1488.35C1484.65 462.734 1481.63 465.748 1481.63 469.454C1481.63 472.6 1483.81 475.247 1486.73 475.975V481.011C1479.59 482.606 1472.81 486.173 1467.27 491.717C1466.06 492.93 1464.94 494.203 1463.91 495.526C1463.86 495.522 1463.81 495.518 1463.76 495.518H1449.68C1448.59 495.518 1447.7 496.403 1447.7 497.494C1447.7 498.586 1448.59 499.471 1449.68 499.471H1461.22C1459.77 501.897 1458.61 504.445 1457.72 507.068H1436.2C1435.11 507.068 1434.23 507.953 1434.23 509.044C1434.23 510.136 1435.11 511.021 1436.2 511.021H1456.6C1456.03 513.521 1455.7 516.066 1455.62 518.618H1446.88C1445.79 518.618 1444.9 519.502 1444.9 520.594C1444.9 521.686 1445.79 522.571 1446.88 522.571H1455.68C1455.85 525.129 1456.26 527.674 1456.92 530.168H1444.11C1443.02 530.168 1442.13 531.052 1442.13 532.144C1442.13 533.236 1443.02 534.12 1444.11 534.12H1458.18C1460.12 539.25 1463.15 544.057 1467.27 548.179C1473.78 554.691 1482.4 558.775 1491.55 559.679C1492.86 559.808 1494.16 559.872 1495.47 559.872C1503.18 559.872 1510.8 557.639 1517.26 553.432C1518.17 552.836 1518.43 551.612 1517.84 550.697C1517.24 549.782 1516.02 549.524 1515.1 550.119C1500.96 559.329 1482.02 557.338 1470.06 545.384C1456.04 531.359 1456.04 508.538 1470.06 494.512C1484.09 480.487 1506.91 480.487 1520.94 494.512C1532.87 506.45 1534.87 525.375 1525.7 539.511C1525.1 540.427 1525.36 541.651 1526.28 542.245C1527.19 542.84 1528.42 542.58 1529.01 541.664C1533.92 534.111 1536.12 524.989 1535.23 515.977ZM1485.59 469.454C1485.59 467.928 1486.83 466.687 1488.35 466.687H1502.58C1504.11 466.687 1505.35 467.928 1505.35 469.454C1505.35 470.98 1504.11 472.221 1502.58 472.221H1502.23H1488.71H1488.35C1486.83 472.221 1485.59 470.98 1485.59 469.454ZM1490.68 480.331V476.174H1500.25V480.324C1497.08 479.946 1493.86 479.949 1490.68 480.331Z" fill="#40A22A"/>
<path d="M1522.33 544.805C1521.81 544.805 1521.31 545.016 1520.94 545.384C1520.57 545.752 1520.36 546.262 1520.36 546.781C1520.36 547.301 1520.57 547.811 1520.94 548.179C1521.31 548.548 1521.81 548.758 1522.33 548.758C1522.85 548.758 1523.36 548.548 1523.73 548.179C1524.1 547.811 1524.31 547.301 1524.31 546.781C1524.31 546.262 1524.1 545.752 1523.73 545.384C1523.36 545.016 1522.85 544.805 1522.33 544.805Z" fill="#40A22A"/>
<path d="M1495.5 489.287C1478.6 489.287 1464.84 503.042 1464.84 519.948C1464.84 536.855 1478.6 550.609 1495.5 550.609C1512.41 550.609 1526.16 536.855 1526.16 519.948C1526.16 503.042 1512.41 489.287 1495.5 489.287ZM1495.5 546.656C1480.77 546.656 1468.79 534.675 1468.79 519.948C1468.79 505.221 1480.77 493.24 1495.5 493.24C1510.23 493.24 1522.21 505.221 1522.21 519.948C1522.21 534.675 1510.23 546.656 1495.5 546.656Z" fill="#40A22A"/>
<path d="M1508 504.651L1498.21 514.44C1497.39 514.035 1496.47 513.806 1495.5 513.806C1494.53 513.806 1493.6 514.035 1492.79 514.44L1488.4 510.059C1487.63 509.287 1486.38 509.287 1485.61 510.059C1484.84 510.83 1484.84 512.082 1485.61 512.854L1489.99 517.235C1489.59 518.054 1489.36 518.975 1489.36 519.948C1489.36 523.334 1492.11 526.09 1495.5 526.09C1498.89 526.09 1501.64 523.334 1501.64 519.948C1501.64 518.975 1501.41 518.054 1501.01 517.235L1510.51 507.733L1510.8 507.446C1511.57 506.674 1511.57 505.422 1510.8 504.651C1510.02 503.879 1508.77 503.879 1508 504.651ZM1495.5 522.137C1494.29 522.137 1493.31 521.155 1493.31 519.948C1493.31 518.741 1494.29 517.759 1495.5 517.759C1496.71 517.759 1497.69 518.741 1497.69 519.948C1497.69 521.155 1496.71 522.137 1495.5 522.137Z" fill="#40A22A"/>
<path d="M1516.63 517.995H1514.8C1513.71 517.995 1512.82 518.88 1512.82 519.972C1512.82 521.063 1513.71 521.948 1514.8 521.948H1516.63C1517.72 521.948 1518.61 521.063 1518.61 519.972C1518.61 518.88 1517.72 517.995 1516.63 517.995Z" fill="#40A22A"/>
<path d="M1476.2 517.948H1474.37C1473.28 517.948 1472.39 518.833 1472.39 519.924C1472.39 521.016 1473.28 521.901 1474.37 521.901H1476.2C1477.29 521.901 1478.18 521.016 1478.18 519.924C1478.18 518.833 1477.29 517.948 1476.2 517.948Z" fill="#40A22A"/>
<path d="M1495.52 502.623C1496.61 502.623 1497.5 501.738 1497.5 500.647V498.816C1497.5 497.724 1496.61 496.839 1495.52 496.839C1494.43 496.839 1493.55 497.724 1493.55 498.816V500.647C1493.55 501.738 1494.43 502.623 1495.52 502.623Z" fill="#40A22A"/>
<path d="M1495.48 537.273C1494.39 537.273 1493.5 538.158 1493.5 539.249V541.08C1493.5 542.172 1494.39 543.057 1495.48 543.057C1496.57 543.057 1497.45 542.172 1497.45 541.08V539.249C1497.45 538.158 1496.57 537.273 1495.48 537.273Z" fill="#40A22A"/>
<path d="M1436.21 530.167C1435.69 530.167 1435.18 530.378 1434.81 530.746C1434.44 531.114 1434.23 531.624 1434.23 532.143C1434.23 532.665 1434.44 533.173 1434.81 533.541C1435.18 533.908 1435.69 534.12 1436.21 534.12C1436.73 534.12 1437.24 533.908 1437.6 533.541C1437.97 533.173 1438.18 532.663 1438.18 532.143C1438.18 531.624 1437.97 531.114 1437.6 530.746C1437.24 530.378 1436.73 530.167 1436.21 530.167Z" fill="#40A22A"/>
<path d="M1419.97 129.485C1437.24 129.485 1451.25 143.489 1451.25 160.765C1451.25 178.041 1437.24 192.045 1419.97 192.045C1402.69 192.045 1388.68 178.041 1388.68 160.765C1388.7 143.497 1402.7 129.502 1419.97 129.485Z" fill="#BB6BD9"/>
<path d="M1355.1 280.06C1355.7 262.351 1362.38 227.399 1374.08 215.431C1386.16 203.089 1402.44 196.298 1419.96 196.298C1437.48 196.298 1453.77 203.089 1465.85 215.431C1477.55 227.399 1484.23 262.351 1484.83 280.06H1355.1Z" fill="#BB6BD9"/>
<path d="M1681.16 129.485C1698.44 129.485 1712.44 143.489 1712.44 160.765C1712.44 178.041 1698.44 192.045 1681.16 192.045C1663.89 192.045 1649.88 178.041 1649.88 160.765C1649.9 143.497 1663.9 129.502 1681.16 129.485Z" fill="#EBC1D3"/>
<path d="M1616.3 280.06C1616.9 262.351 1623.58 227.399 1635.28 215.43C1647.36 203.088 1663.64 196.297 1681.16 196.297C1698.68 196.297 1714.96 203.088 1727.04 215.43C1738.75 227.399 1745.43 262.351 1746.03 280.06H1616.3Z" fill="#EBC1D3"/>
<path d="M1818.35 129.485C1835.63 129.485 1849.63 143.489 1849.63 160.765C1849.63 178.041 1835.63 192.045 1818.35 192.045C1801.08 192.045 1787.07 178.041 1787.07 160.765C1787.09 143.497 1801.08 129.502 1818.35 129.485Z" fill="#EBC1D3"/>
<path d="M1753.49 280.06C1754.09 262.351 1760.76 227.399 1772.47 215.43C1784.55 203.088 1800.83 196.297 1818.35 196.297C1835.87 196.297 1852.15 203.088 1864.23 215.43C1875.94 227.399 1882.62 262.351 1883.22 280.06H1753.49Z" fill="#EBC1D3"/>
<path d="M1326.07 155.563C1343.34 155.563 1357.35 169.568 1357.35 186.844C1357.35 204.119 1343.34 218.124 1326.07 218.124C1308.79 218.124 1294.79 204.119 1294.79 186.844C1294.8 169.575 1308.8 155.58 1326.07 155.563Z" fill="#F2F2F2"/>
<path d="M1261.2 306.138C1261.8 288.43 1268.48 253.477 1280.18 241.509C1292.26 229.167 1308.55 222.376 1326.06 222.376C1343.58 222.376 1359.87 229.167 1371.95 241.509C1383.65 253.477 1390.33 288.43 1390.93 306.138H1261.2Z" fill="#F2F2F2"/>
<path d="M1369.42 107.605C1367.86 107.605 1366.58 108.877 1366.58 110.446V109.081C1366.58 116.913 1360.21 123.285 1352.38 123.285H1321.71C1320.14 123.285 1318.87 124.555 1318.87 126.124L1318.86 131.772L1312.08 124.992C1311.64 123.984 1310.64 123.285 1309.48 123.285H1291.02C1283.19 123.285 1276.82 116.913 1276.82 109.081V65.3337C1276.82 57.5018 1283.19 51.13 1291.02 51.13H1319.71C1321.28 51.13 1322.55 49.8582 1322.55 48.2892C1322.55 46.7203 1321.28 45.4485 1319.71 45.4485H1291.02C1280.05 45.4485 1271.13 54.369 1271.13 65.3337V109.081C1271.13 120.046 1280.05 128.966 1291.02 128.966H1308.02L1319.69 140.634C1320.23 141.177 1320.96 141.466 1321.7 141.466C1322.07 141.466 1322.43 141.395 1322.79 141.25C1323.85 140.811 1324.54 139.775 1324.54 138.627L1324.55 128.966H1352.38C1363.34 128.966 1372.26 120.046 1372.26 109.081V110.446C1372.26 108.877 1370.99 107.605 1369.42 107.605Z" fill="#F6F6F6"/>
<path d="M1387.28 8H1380.09C1357.32 8 1338.8 26.5222 1338.8 49.2891C1338.8 72.0559 1357.32 90.5778 1380.09 90.5778H1387.28C1390.83 90.5778 1394.35 90.1264 1397.75 89.2344L1408.38 99.8492C1408.92 100.392 1409.64 100.681 1410.38 100.681C1410.75 100.681 1411.12 100.61 1411.47 100.464C1412.53 100.024 1413.22 98.9887 1413.22 97.8399V81.4045C1417.72 77.7629 1421.46 73.1629 1424.08 68.024C1427.06 62.1874 1428.56 55.8841 1428.56 49.2891C1428.56 26.5222 1410.04 8 1387.28 8ZM1408.67 77.7502C1407.96 78.2868 1407.54 79.1271 1407.54 80.0194V90.9846L1400.59 84.0367C1400.05 83.4964 1399.32 83.2053 1398.58 83.2053C1398.3 83.2053 1398.02 83.2464 1397.75 83.3308C1394.37 84.3699 1390.84 84.8966 1387.28 84.8966H1380.09C1360.45 84.8966 1344.48 68.9231 1344.48 49.2891C1344.48 29.655 1360.45 13.6815 1380.09 13.6815H1387.28C1406.91 13.6815 1422.88 29.655 1422.88 49.2891C1422.88 60.5756 1417.7 70.9494 1408.67 77.7502Z" fill="#F6F6F6"/>
<path d="M1396.47 39.0836C1396.06 33.1365 1391.26 28.3425 1385.32 27.9326C1381.95 27.7011 1378.73 28.8382 1376.27 31.1372C1373.84 33.4044 1372.44 36.6093 1372.44 39.9305C1372.44 41.4994 1373.72 42.7712 1375.29 42.7712C1376.85 42.7712 1378.13 41.4994 1378.13 39.9305C1378.13 38.1524 1378.84 36.5045 1380.14 35.2907C1381.44 34.078 1383.14 33.4777 1384.93 33.601C1388.06 33.8169 1390.59 36.342 1390.8 39.4745C1391.02 42.6382 1388.94 45.4341 1385.87 46.1227C1383.37 46.6806 1381.63 48.8475 1381.63 51.392V58.2169C1381.63 59.7858 1382.9 61.0576 1384.47 61.0576C1386.04 61.0576 1387.31 59.7858 1387.31 58.2169V51.619C1393.04 50.2361 1396.88 44.9983 1396.47 39.0836Z" fill="#F6F6F6"/>
<path d="M1386.48 67.4451C1385.95 66.9168 1385.22 66.6128 1384.47 66.6128C1383.73 66.6128 1382.99 66.9168 1382.47 67.4451C1381.94 67.9735 1381.63 68.7064 1381.63 69.4535C1381.63 70.2035 1381.94 70.9364 1382.47 71.4648C1382.99 71.9932 1383.73 72.2943 1384.47 72.2943C1385.22 72.2943 1385.95 71.9932 1386.48 71.4648C1387.01 70.9336 1387.31 70.2035 1387.31 69.4535C1387.31 68.7064 1387.01 67.9735 1386.48 67.4451Z" fill="#F6F6F6"/>
<path d="M1349.26 84.0823H1289.32C1287.75 84.0823 1286.48 85.3541 1286.48 86.923C1286.48 88.492 1287.75 89.7638 1289.32 89.7638H1349.26C1350.83 89.7638 1352.1 88.492 1352.1 86.923C1352.1 85.3541 1350.83 84.0823 1349.26 84.0823Z" fill="#F6F6F6"/>
<path d="M1351.26 100.824C1350.74 100.295 1350 99.9912 1349.26 99.9912C1348.51 99.9912 1347.78 100.295 1347.25 100.824C1346.72 101.352 1346.42 102.085 1346.42 102.832C1346.42 103.579 1346.72 104.312 1347.25 104.84C1347.78 105.369 1348.51 105.673 1349.26 105.673C1350 105.673 1350.74 105.369 1351.26 104.84C1351.79 104.312 1352.1 103.582 1352.1 102.832C1352.1 102.085 1351.79 101.352 1351.26 100.824Z" fill="#F6F6F6"/>
<path d="M1338.08 99.9907H1289.32C1287.75 99.9907 1286.48 101.263 1286.48 102.831C1286.48 104.4 1287.75 105.672 1289.32 105.672H1338.08C1339.65 105.672 1340.92 104.4 1340.92 102.831C1340.92 101.263 1339.65 99.9907 1338.08 99.9907Z" fill="#F6F6F6"/>
<path d="M1330.79 68.1746H1289.32C1287.75 68.1746 1286.48 69.4464 1286.48 71.0153C1286.48 72.5842 1287.75 73.856 1289.32 73.856H1330.79C1332.36 73.856 1333.63 72.5842 1333.63 71.0153C1333.63 69.4464 1332.36 68.1746 1330.79 68.1746Z" fill="#F6F6F6"/>
<path d="M1526.27 48.0836L1526.27 48.0831C1527.67 47.3996 1529.38 47.9885 1530.06 49.4016L1530.06 49.4025C1532.66 54.775 1533.98 60.5663 1533.98 66.6128C1533.98 88.4255 1516.23 106.174 1494.42 106.174C1472.61 106.174 1454.86 88.4255 1454.86 66.6128C1454.86 44.8002 1472.61 27.0513 1494.42 27.0513C1503.33 27.0513 1512.05 30.0862 1518.99 35.5961L1518.99 35.5963C1520.22 36.5713 1520.42 38.3577 1519.44 39.5839L1519.44 39.584C1518.47 40.812 1516.68 41.0153 1515.46 40.0401L1515.45 40.0393C1509.43 35.2567 1502.16 32.7282 1494.42 32.7282C1475.73 32.7282 1460.53 47.9287 1460.53 66.6128C1460.53 85.297 1475.73 100.497 1494.42 100.497C1513.1 100.497 1528.3 85.297 1528.3 66.6128C1528.3 61.4322 1527.17 56.4738 1524.95 51.874C1524.27 50.464 1524.86 48.7661 1526.27 48.0836Z" fill="#F2F2F2" stroke="#F2F2F2"/>
<path d="M1497.26 63.2745V63.7745H1497.76H1511.11C1512.68 63.7745 1513.95 65.0463 1513.95 66.613C1513.95 68.1797 1512.68 69.4514 1511.11 69.4514H1494.42C1492.85 69.4514 1491.58 68.1797 1491.58 66.613V43.2437C1491.58 41.677 1492.85 40.4053 1494.42 40.4053C1495.98 40.4053 1497.26 41.677 1497.26 43.2437V63.2745Z" fill="#F2F2F2" stroke="#F2F2F2"/>
<path d="M1557.78 204.135V204.635H1558.28H1571.63C1572.46 204.635 1573.19 204.883 1573.7 205.26C1574.21 205.638 1574.47 206.119 1574.47 206.605C1574.47 207.091 1574.21 207.572 1573.7 207.949C1573.19 208.326 1572.46 208.575 1571.63 208.575H1554.94C1554.12 208.575 1553.39 208.326 1552.88 207.949C1552.37 207.572 1552.1 207.091 1552.1 206.605V189.314C1552.1 188.828 1552.37 188.347 1552.88 187.97C1553.39 187.593 1554.12 187.344 1554.94 187.344C1555.77 187.344 1556.49 187.593 1557 187.97C1557.51 188.347 1557.78 188.828 1557.78 189.314V204.135Z" fill="#F2F2F2" stroke="#F2F2F2"/>
<path d="M1551.67 208.793L1551.67 208.293L1551.17 208.293L1537.82 208.293C1537 208.293 1536.27 208.045 1535.76 207.668C1535.25 207.29 1534.98 206.809 1534.98 206.323C1534.98 205.837 1535.25 205.356 1535.76 204.979C1536.27 204.602 1537 204.353 1537.82 204.353L1554.51 204.353C1555.34 204.353 1556.07 204.602 1556.58 204.979C1557.09 205.356 1557.35 205.837 1557.35 206.323L1557.35 223.614C1557.35 224.1 1557.09 224.581 1556.58 224.958C1556.07 225.335 1555.34 225.584 1554.51 225.584C1553.69 225.584 1552.96 225.335 1552.45 224.958C1551.94 224.581 1551.67 224.1 1551.67 223.614L1551.67 208.793Z" fill="#F2F2F2" stroke="#F2F2F2"/>
<rect x="1596.24" y="100.753" width="307.275" height="206.375" stroke="#F6F6F6" stroke-width="10" stroke-dasharray="10 10"/>
<path d="M1175.12 200.214C1177.07 198.262 1177.07 195.096 1175.12 193.143L1143.3 161.323C1141.35 159.371 1138.18 159.371 1136.23 161.323C1134.28 163.276 1134.28 166.442 1136.23 168.394L1164.51 196.679L1136.23 224.963C1134.28 226.916 1134.28 230.081 1136.23 232.034C1138.18 233.987 1141.35 233.987 1143.3 232.034L1175.12 200.214ZM985.38 201.679L1171.58 201.679L1171.58 191.679L985.38 191.679L985.38 201.679Z" fill="#F2F2F2"/>
<line x1="990.38" y1="192.427" x2="990.38" y2="380.418" stroke="#F2F2F2" stroke-width="10"/>
<line x1="995.38" y1="385.418" x2="823.375" y2="385.418" stroke="#F2F2F2" stroke-width="10"/>
<path d="M1419.97 582.682C1437.24 582.682 1451.25 596.687 1451.25 613.963C1451.25 631.238 1437.24 645.243 1419.97 645.243C1402.69 645.243 1388.68 631.238 1388.68 613.963C1388.7 596.694 1402.7 582.699 1419.97 582.682Z" fill="#BB6BD9"/>
<path d="M1355.1 733.257C1355.7 715.548 1362.38 680.596 1374.08 668.628C1386.16 656.286 1402.44 649.495 1419.96 649.495C1437.48 649.495 1453.77 656.286 1465.85 668.628C1477.55 680.596 1484.23 715.548 1484.83 733.257H1355.1Z" fill="#BB6BD9"/>
<path d="M1681.16 582.682C1698.44 582.682 1712.44 596.687 1712.44 613.963C1712.44 631.238 1698.44 645.243 1681.16 645.243C1663.89 645.243 1649.88 631.238 1649.88 613.963C1649.9 596.694 1663.9 582.699 1681.16 582.682Z" fill="#EBC1D3"/>
<path d="M1616.3 733.257C1616.9 715.548 1623.58 680.596 1635.28 668.628C1647.36 656.286 1663.64 649.495 1681.16 649.495C1698.68 649.495 1714.96 656.286 1727.04 668.628C1738.75 680.596 1745.43 715.548 1746.03 733.257H1616.3Z" fill="#EBC1D3"/>
<path d="M1818.35 582.682C1835.63 582.682 1849.63 596.687 1849.63 613.963C1849.63 631.238 1835.63 645.243 1818.35 645.243C1801.08 645.243 1787.07 631.238 1787.07 613.963C1787.09 596.694 1801.08 582.699 1818.35 582.682Z" fill="#EBC1D3"/>
<path d="M1753.49 733.257C1754.09 715.548 1760.76 680.596 1772.47 668.628C1784.55 656.286 1800.83 649.495 1818.35 649.495C1835.87 649.495 1852.15 656.286 1864.23 668.628C1875.94 680.596 1882.62 715.548 1883.22 733.257H1753.49Z" fill="#EBC1D3"/>
<path d="M1326.07 608.761C1343.34 608.761 1357.35 622.765 1357.35 640.041C1357.35 657.317 1343.34 671.321 1326.07 671.321C1308.79 671.321 1294.79 657.317 1294.79 640.041C1294.8 622.773 1308.8 608.778 1326.07 608.761Z" fill="#F2F2F2"/>
<path d="M1261.2 759.336C1261.8 741.627 1268.48 706.675 1280.18 694.707C1292.26 682.364 1308.55 675.573 1326.06 675.573C1343.58 675.573 1359.87 682.364 1371.95 694.707C1383.65 706.675 1390.33 741.627 1390.93 759.336H1261.2Z" fill="#F2F2F2"/>
<path d="M1369.42 560.802C1367.86 560.802 1366.58 562.074 1366.58 563.643V562.279C1366.58 570.111 1360.21 576.482 1352.38 576.482H1321.71C1320.14 576.482 1318.87 577.753 1318.87 579.321L1318.86 584.969L1312.08 578.189C1311.64 577.181 1310.64 576.482 1309.48 576.482H1291.02C1283.19 576.482 1276.82 570.111 1276.82 562.279V518.531C1276.82 510.699 1283.19 504.327 1291.02 504.327H1319.71C1321.28 504.327 1322.55 503.056 1322.55 501.487C1322.55 499.918 1321.28 498.646 1319.71 498.646H1291.02C1280.05 498.646 1271.13 507.566 1271.13 518.531V562.279C1271.13 573.243 1280.05 582.164 1291.02 582.164H1308.02L1319.69 593.831C1320.23 594.374 1320.96 594.663 1321.7 594.663C1322.07 594.663 1322.43 594.592 1322.79 594.447C1323.85 594.008 1324.54 592.973 1324.54 591.824L1324.55 582.164H1352.38C1363.34 582.164 1372.26 573.243 1372.26 562.279V563.643C1372.26 562.074 1370.99 560.802 1369.42 560.802Z" fill="#F6F6F6"/>
<path d="M1387.28 461.198H1380.09C1357.32 461.198 1338.8 479.72 1338.8 502.487C1338.8 525.253 1357.32 543.775 1380.09 543.775H1387.28C1390.83 543.775 1394.35 543.324 1397.75 542.432L1408.38 553.047C1408.92 553.59 1409.64 553.878 1410.38 553.878C1410.75 553.878 1411.12 553.807 1411.47 553.662C1412.53 553.222 1413.22 552.186 1413.22 551.037V534.602C1417.72 530.96 1421.46 526.36 1424.08 521.222C1427.06 515.385 1428.56 509.082 1428.56 502.487C1428.56 479.72 1410.04 461.198 1387.28 461.198ZM1408.67 530.948C1407.96 531.484 1407.54 532.325 1407.54 533.217V544.182L1400.59 537.234C1400.05 536.694 1399.32 536.403 1398.58 536.403C1398.3 536.403 1398.02 536.444 1397.75 536.528C1394.37 537.567 1390.84 538.094 1387.28 538.094H1380.09C1360.45 538.094 1344.48 522.121 1344.48 502.487C1344.48 482.852 1360.45 466.879 1380.09 466.879H1387.28C1406.91 466.879 1422.88 482.852 1422.88 502.487C1422.88 513.773 1417.7 524.147 1408.67 530.948Z" fill="#F6F6F6"/>
<path d="M1396.47 492.281C1396.06 486.334 1391.26 481.54 1385.32 481.13C1381.95 480.899 1378.73 482.036 1376.27 484.335C1373.84 486.602 1372.44 489.807 1372.44 493.128C1372.44 494.697 1373.72 495.969 1375.29 495.969C1376.85 495.969 1378.13 494.697 1378.13 493.128C1378.13 491.35 1378.84 489.702 1380.14 488.488C1381.44 487.275 1383.14 486.675 1384.93 486.799C1388.06 487.014 1390.59 489.54 1390.8 492.672C1391.02 495.836 1388.94 498.632 1385.87 499.32C1383.37 499.878 1381.63 502.045 1381.63 504.59V511.414C1381.63 512.983 1382.9 514.255 1384.47 514.255C1386.04 514.255 1387.31 512.983 1387.31 511.414V504.816C1393.04 503.434 1396.88 498.196 1396.47 492.281Z" fill="#F6F6F6"/>
<path d="M1386.48 520.643C1385.95 520.114 1385.22 519.81 1384.47 519.81C1383.73 519.81 1382.99 520.114 1382.47 520.643C1381.94 521.171 1381.63 521.904 1381.63 522.651C1381.63 523.401 1381.94 524.134 1382.47 524.662C1382.99 525.191 1383.73 525.492 1384.47 525.492C1385.22 525.492 1385.95 525.191 1386.48 524.662C1387.01 524.131 1387.31 523.401 1387.31 522.651C1387.31 521.904 1387.01 521.171 1386.48 520.643Z" fill="#F6F6F6"/>
<path d="M1349.26 537.28H1289.32C1287.75 537.28 1286.48 538.552 1286.48 540.121C1286.48 541.689 1287.75 542.961 1289.32 542.961H1349.26C1350.83 542.961 1352.1 541.689 1352.1 540.121C1352.1 538.552 1350.83 537.28 1349.26 537.28Z" fill="#F6F6F6"/>
<path d="M1351.26 554.021C1350.74 553.493 1350 553.189 1349.26 553.189C1348.51 553.189 1347.78 553.493 1347.25 554.021C1346.72 554.549 1346.42 555.282 1346.42 556.029C1346.42 556.777 1346.72 557.509 1347.25 558.038C1347.78 558.566 1348.51 558.87 1349.26 558.87C1350 558.87 1350.74 558.566 1351.26 558.038C1351.79 557.509 1352.1 556.779 1352.1 556.029C1352.1 555.282 1351.79 554.549 1351.26 554.021Z" fill="#F6F6F6"/>
<path d="M1338.08 553.188H1289.32C1287.75 553.188 1286.48 554.46 1286.48 556.029C1286.48 557.598 1287.75 558.87 1289.32 558.87H1338.08C1339.65 558.87 1340.92 557.598 1340.92 556.029C1340.92 554.46 1339.65 553.188 1338.08 553.188Z" fill="#F6F6F6"/>
<path d="M1330.79 521.372H1289.32C1287.75 521.372 1286.48 522.644 1286.48 524.213C1286.48 525.782 1287.75 527.054 1289.32 527.054H1330.79C1332.36 527.054 1333.63 525.782 1333.63 524.213C1333.63 522.644 1332.36 521.372 1330.79 521.372Z" fill="#F6F6F6"/>
<path d="M1557.78 657.332V657.832H1558.28H1571.63C1572.46 657.832 1573.19 658.081 1573.7 658.458C1574.21 658.835 1574.47 659.316 1574.47 659.802C1574.47 660.288 1574.21 660.769 1573.7 661.147C1573.19 661.524 1572.46 661.772 1571.63 661.772H1554.94C1554.12 661.772 1553.39 661.524 1552.88 661.147C1552.37 660.769 1552.1 660.288 1552.1 659.802V642.512C1552.1 642.026 1552.37 641.545 1552.88 641.167C1553.39 640.79 1554.12 640.542 1554.94 640.542C1555.77 640.542 1556.49 640.79 1557 641.167C1557.51 641.545 1557.78 642.026 1557.78 642.512V657.332Z" fill="#F2F2F2" stroke="#F2F2F2"/>
<path d="M1551.67 661.991L1551.67 661.491L1551.17 661.491L1537.82 661.491C1537 661.491 1536.27 661.242 1535.76 660.865C1535.25 660.488 1534.98 660.007 1534.98 659.521C1534.98 659.035 1535.25 658.554 1535.76 658.176C1536.27 657.799 1537 657.551 1537.82 657.551L1554.51 657.551C1555.34 657.551 1556.07 657.799 1556.58 658.176C1557.09 658.554 1557.35 659.035 1557.35 659.521L1557.35 676.811C1557.35 677.297 1557.09 677.778 1556.58 678.156C1556.07 678.533 1555.34 678.781 1554.51 678.781C1553.69 678.781 1552.96 678.533 1552.45 678.156C1551.94 677.778 1551.67 677.297 1551.67 676.811L1551.67 661.991Z" fill="#F2F2F2" stroke="#F2F2F2"/>
<rect x="1596.24" y="553.951" width="307.275" height="206.375" stroke="#F6F6F6" stroke-width="10" stroke-dasharray="10 10"/>
<path d="M1175.12 607.932C1177.07 609.884 1177.07 613.05 1175.12 615.003L1143.3 646.822C1141.35 648.775 1138.18 648.775 1136.23 646.822C1134.28 644.87 1134.28 641.704 1136.23 639.751L1164.51 611.467L1136.23 583.183C1134.28 581.23 1134.28 578.064 1136.23 576.112C1138.18 574.159 1141.35 574.159 1143.3 576.112L1175.12 607.932ZM985.38 606.467L1171.58 606.467L1171.58 616.467L985.38 616.467L985.38 606.467Z" fill="#F2F2F2"/>
<line y1="-5" x2="187.991" y2="-5" transform="matrix(-4.37114e-08 -1 -1 4.37114e-08 985.38 615.719)" stroke="#F2F2F2" stroke-width="10"/>
<line y1="-5" x2="172.005" y2="-5" transform="matrix(-1 8.74228e-08 8.74228e-08 1 995.38 427.728)" stroke="#F2F2F2" stroke-width="10"/>
<path d="M2170.51 200.214C2172.47 198.262 2172.47 195.096 2170.51 193.143L2138.69 161.323C2136.74 159.371 2133.58 159.371 2131.62 161.323C2129.67 163.276 2129.67 166.442 2131.62 168.394L2159.91 196.679L2131.62 224.963C2129.67 226.916 2129.67 230.081 2131.62 232.034C2133.58 233.987 2136.74 233.987 2138.69 232.034L2170.51 200.214ZM1980.78 201.679L2166.98 201.679L2166.98 191.679L1980.78 191.679L1980.78 201.679Z" fill="#F2F2F2"/>
<path d="M2170.51 607.931C2172.47 609.884 2172.47 613.05 2170.51 615.002L2138.69 646.822C2136.74 648.775 2133.58 648.775 2131.62 646.822C2129.67 644.87 2129.67 641.704 2131.62 639.751L2159.91 611.467L2131.62 583.183C2129.67 581.23 2129.67 578.064 2131.62 576.111C2133.58 574.159 2136.74 574.159 2138.69 576.111L2170.51 607.931ZM1980.78 606.467L2166.98 606.467L2166.98 616.467L1980.78 616.467L1980.78 606.467Z" fill="#F2F2F2"/>
<path d="M2216.55 139.4H2236.95V146.408H2224.38V152.984H2236.47V159.512H2224.38V173H2216.55V139.4ZM2249.06 164.36C2249.06 165.64 2249.28 166.632 2249.73 167.336C2250.21 168.04 2251.04 168.392 2252.23 168.392C2253.38 168.392 2254.31 168.04 2255.01 167.336C2255.71 166.632 2256.07 165.64 2256.07 164.36V150.92H2263.36V173H2256.07V169.688C2255.43 170.872 2254.55 171.816 2253.43 172.52C2252.34 173.192 2250.98 173.528 2249.35 173.528C2246.63 173.528 2244.63 172.792 2243.35 171.32C2242.07 169.816 2241.43 167.752 2241.43 165.128V150.92H2249.06V164.36ZM2269.04 135.56H2276.33V173H2269.04V135.56ZM2281.97 135.56H2289.27V173H2281.97V135.56ZM2306.71 150.92H2310.6V143.24H2317.6V150.92H2321.49V156.92H2317.6V173H2310.6V156.92H2306.71V150.92ZM2338.12 158.456C2337.73 158.072 2337.32 157.768 2336.87 157.544C2336.45 157.32 2335.93 157.208 2335.29 157.208C2334.23 157.208 2333.37 157.624 2332.69 158.456C2332.05 159.288 2331.73 160.504 2331.73 162.104V173H2324.58V150.92H2331.73V153.704C2332.44 152.68 2333.27 151.88 2334.23 151.304C2335.22 150.696 2336.25 150.392 2337.3 150.392C2338.1 150.392 2338.87 150.568 2339.61 150.92C2340.34 151.24 2340.9 151.672 2341.29 152.216L2338.12 158.456ZM2346.72 157.688L2344.27 152.84C2345.55 152.232 2347.05 151.656 2348.78 151.112C2350.54 150.568 2352.46 150.296 2354.54 150.296C2356.49 150.296 2358.24 150.584 2359.77 151.16C2361.31 151.704 2362.52 152.504 2363.42 153.56C2364.32 154.616 2364.76 155.912 2364.76 157.448V173H2357.8V169.976C2357.13 171.128 2356.12 172.008 2354.78 172.616C2353.47 173.192 2352.04 173.48 2350.51 173.48C2349.1 173.48 2347.79 173.224 2346.57 172.712C2345.39 172.168 2344.43 171.368 2343.69 170.312C2342.99 169.256 2342.64 167.976 2342.64 166.472C2342.64 164.36 2343.37 162.696 2344.84 161.48C2346.35 160.232 2348.49 159.608 2351.28 159.608C2352.62 159.608 2353.85 159.752 2354.97 160.04C2356.09 160.296 2357.04 160.616 2357.8 161V159.08C2357.8 156.904 2356.41 155.816 2353.63 155.816C2352.67 155.816 2351.71 155.928 2350.75 156.152C2349.79 156.376 2348.94 156.648 2348.2 156.968C2347.5 157.256 2347 157.496 2346.72 157.688ZM2349.98 166.088C2349.98 166.952 2350.27 167.624 2350.84 168.104C2351.45 168.552 2352.2 168.776 2353.1 168.776C2354.28 168.776 2355.34 168.424 2356.27 167.72C2357.2 166.984 2357.71 165.896 2357.8 164.456C2356.49 163.88 2355.07 163.592 2353.53 163.592C2352.25 163.592 2351.34 163.816 2350.8 164.264C2350.25 164.68 2349.98 165.288 2349.98 166.088ZM2376.29 161.96C2376.29 163.72 2376.86 165.112 2378.02 166.136C2379.17 167.16 2380.56 167.672 2382.19 167.672C2383.5 167.672 2384.75 167.4 2385.94 166.856C2387.12 166.28 2388.03 165.464 2388.67 164.408V171.464C2387.9 172.072 2386.94 172.568 2385.79 172.952C2384.64 173.304 2383.23 173.48 2381.57 173.48C2379.1 173.48 2376.91 173 2374.99 172.04C2373.07 171.08 2371.55 169.736 2370.43 168.008C2369.34 166.28 2368.8 164.264 2368.8 161.96C2368.8 159.624 2369.34 157.608 2370.43 155.912C2371.55 154.184 2373.07 152.84 2374.99 151.88C2376.91 150.92 2379.1 150.44 2381.57 150.44C2383.23 150.44 2384.64 150.632 2385.79 151.016C2386.94 151.368 2387.9 151.816 2388.67 152.36V159.464C2388.03 158.408 2387.09 157.608 2385.84 157.064C2384.59 156.52 2383.38 156.248 2382.19 156.248C2381.1 156.248 2380.11 156.504 2379.22 157.016C2378.32 157.496 2377.6 158.168 2377.06 159.032C2376.54 159.896 2376.29 160.872 2376.29 161.96ZM2393.43 142.664C2393.43 141.512 2393.83 140.568 2394.63 139.832C2395.46 139.096 2396.47 138.728 2397.66 138.728C2398.84 138.728 2399.83 139.096 2400.63 139.832C2401.46 140.568 2401.88 141.512 2401.88 142.664C2401.88 143.816 2401.46 144.76 2400.63 145.496C2399.83 146.2 2398.84 146.552 2397.66 146.552C2396.47 146.552 2395.46 146.2 2394.63 145.496C2393.83 144.76 2393.43 143.816 2393.43 142.664ZM2394.1 150.92H2401.16V173H2394.1V150.92ZM2421.48 159.56C2421.48 158.248 2421.24 157.256 2420.76 156.584C2420.28 155.88 2419.45 155.528 2418.26 155.528C2417.11 155.528 2416.18 155.88 2415.48 156.584C2414.78 157.256 2414.42 158.248 2414.42 159.56V173H2407.13V150.92H2414.42V154.232C2415.06 153.016 2415.93 152.072 2417.02 151.4C2418.14 150.728 2419.51 150.392 2421.14 150.392C2423.9 150.392 2425.9 151.128 2427.14 152.6C2428.42 154.072 2429.06 156.136 2429.06 158.792V173H2421.48V159.56ZM2433.92 174.584H2440.98C2441.11 175.96 2441.62 176.984 2442.51 177.656C2443.41 178.328 2444.56 178.664 2445.97 178.664C2447.51 178.664 2448.8 178.152 2449.86 177.128C2450.95 176.104 2451.49 174.568 2451.49 172.52V169.064C2449.73 171.624 2447.2 172.904 2443.91 172.904C2442.11 172.904 2440.42 172.488 2438.82 171.656C2437.22 170.824 2435.92 169.576 2434.93 167.912C2433.94 166.216 2433.44 164.136 2433.44 161.672C2433.44 159.176 2433.94 157.096 2434.93 155.432C2435.92 153.768 2437.22 152.52 2438.82 151.688C2440.42 150.856 2442.11 150.44 2443.91 150.44C2447.2 150.44 2449.73 151.72 2451.49 154.28V150.92H2458.45V172.52C2458.45 175.368 2457.91 177.672 2456.82 179.432C2455.73 181.192 2454.26 182.472 2452.4 183.272C2450.58 184.072 2448.55 184.472 2446.31 184.472C2443.55 184.472 2441.3 184.056 2439.54 183.224C2437.78 182.392 2436.45 181.224 2435.55 179.72C2434.66 178.248 2434.11 176.536 2433.92 174.584ZM2441.07 161.672C2441.07 163.4 2441.59 164.728 2442.61 165.656C2443.67 166.584 2444.91 167.048 2446.35 167.048C2447.19 167.048 2447.99 166.856 2448.75 166.472C2449.55 166.056 2450.21 165.448 2450.72 164.648C2451.23 163.848 2451.49 162.856 2451.49 161.672C2451.49 160.456 2451.23 159.464 2450.72 158.696C2450.21 157.896 2449.55 157.304 2448.75 156.92C2447.99 156.504 2447.19 156.296 2446.35 156.296C2444.91 156.296 2443.67 156.76 2442.61 157.688C2441.59 158.616 2441.07 159.944 2441.07 161.672ZM2227.11 245.48C2224.52 245.48 2222.28 245.016 2220.39 244.088C2218.54 243.128 2217.1 241.784 2216.07 240.056C2215.05 238.328 2214.54 236.296 2214.54 233.96C2214.54 230.376 2215.64 227.56 2217.85 225.512C2220.06 223.464 2223.1 222.44 2226.97 222.44C2230.78 222.44 2233.7 223.416 2235.75 225.368C2237.83 227.32 2238.87 230.072 2238.87 233.624C2238.87 233.976 2238.87 234.312 2238.87 234.632C2238.87 234.952 2238.86 235.24 2238.82 235.496H2221.98C2222.17 237 2222.7 238.168 2223.56 239C2224.42 239.832 2225.56 240.248 2226.97 240.248C2229.53 240.248 2231.35 239.288 2232.44 237.368L2238.97 238.952C2236.63 243.304 2232.68 245.48 2227.11 245.48ZM2226.82 227.288C2224.2 227.288 2222.62 228.68 2222.07 231.464H2231.1C2230.97 230.184 2230.52 229.176 2229.75 228.44C2229.02 227.672 2228.04 227.288 2226.82 227.288ZM2257.7 231.56C2257.7 230.248 2257.46 229.256 2256.98 228.584C2256.5 227.88 2255.67 227.528 2254.48 227.528C2253.33 227.528 2252.4 227.88 2251.7 228.584C2251 229.256 2250.64 230.248 2250.64 231.56V245H2243.35V222.92H2250.64V226.232C2251.28 225.016 2252.15 224.072 2253.24 223.4C2254.36 222.728 2255.73 222.392 2257.36 222.392C2260.12 222.392 2262.12 223.128 2263.36 224.6C2264.64 226.072 2265.28 228.136 2265.28 230.792V245H2257.7V231.56ZM2269.66 233.96C2269.66 231.368 2270.16 229.192 2271.15 227.432C2272.14 225.672 2273.44 224.36 2275.04 223.496C2276.64 222.6 2278.33 222.152 2280.12 222.152C2281.82 222.152 2283.31 222.536 2284.59 223.304C2285.87 224.04 2286.91 225.096 2287.71 226.472V222.92H2294.96V255.56H2287.71V241.448C2286.91 242.824 2285.87 243.896 2284.59 244.664C2283.31 245.4 2281.82 245.768 2280.12 245.768C2278.33 245.768 2276.64 245.32 2275.04 244.424C2273.44 243.528 2272.14 242.216 2271.15 240.488C2270.16 238.728 2269.66 236.552 2269.66 233.96ZM2277.29 233.96C2277.29 235.688 2277.81 237.016 2278.83 237.944C2279.89 238.872 2281.13 239.336 2282.57 239.336C2283.41 239.336 2284.21 239.144 2284.97 238.76C2285.77 238.344 2286.43 237.736 2286.94 236.936C2287.45 236.136 2287.71 235.144 2287.71 233.96C2287.71 232.744 2287.45 231.752 2286.94 230.984C2286.43 230.184 2285.77 229.592 2284.97 229.208C2284.21 228.792 2283.41 228.584 2282.57 228.584C2281.13 228.584 2279.89 229.048 2278.83 229.976C2277.81 230.904 2277.29 232.232 2277.29 233.96ZM2308.17 236.36C2308.17 237.64 2308.39 238.632 2308.84 239.336C2309.32 240.04 2310.15 240.392 2311.34 240.392C2312.49 240.392 2313.42 240.04 2314.12 239.336C2314.82 238.632 2315.18 237.64 2315.18 236.36V222.92H2322.47V245H2315.18V241.688C2314.54 242.872 2313.66 243.816 2312.54 244.52C2311.45 245.192 2310.09 245.528 2308.46 245.528C2305.74 245.528 2303.74 244.792 2302.46 243.32C2301.18 241.816 2300.54 239.752 2300.54 237.128V222.92H2308.17V236.36ZM2327.71 214.664C2327.71 213.512 2328.11 212.568 2328.91 211.832C2329.74 211.096 2330.75 210.728 2331.94 210.728C2333.12 210.728 2334.11 211.096 2334.91 211.832C2335.74 212.568 2336.16 213.512 2336.16 214.664C2336.16 215.816 2335.74 216.76 2334.91 217.496C2334.11 218.2 2333.12 218.552 2331.94 218.552C2330.75 218.552 2329.74 218.2 2328.91 217.496C2328.11 216.76 2327.71 215.816 2327.71 214.664ZM2328.38 222.92H2335.44V245H2328.38V222.92ZM2354.95 230.456C2354.56 230.072 2354.15 229.768 2353.7 229.544C2353.28 229.32 2352.75 229.208 2352.11 229.208C2351.06 229.208 2350.19 229.624 2349.52 230.456C2348.88 231.288 2348.56 232.504 2348.56 234.104V245H2341.41V222.92H2348.56V225.704C2349.27 224.68 2350.1 223.88 2351.06 223.304C2352.05 222.696 2353.07 222.392 2354.13 222.392C2354.93 222.392 2355.7 222.568 2356.43 222.92C2357.17 223.24 2357.73 223.672 2358.11 224.216L2354.95 230.456ZM2385.25 222.92L2370.85 255.56H2363.51L2368.89 243.224L2359.33 222.92H2367.35L2372.58 235.928L2377.77 222.92H2385.25Z" fill="white"/>
<path d="M1591.67 511.048L1611.16 483.4H1617.21V504.136H1622.49V511.048H1617.21V517H1608.76V511.048H1591.67ZM1602.42 505.192H1609.67V495.16L1602.42 505.192ZM1653.56 506.248C1653.56 508.232 1653.16 509.944 1652.36 511.384C1651.59 512.824 1650.55 514.008 1649.24 514.936C1647.92 515.832 1646.47 516.504 1644.87 516.952C1643.27 517.4 1641.65 517.624 1640.02 517.624C1636.92 517.624 1634.28 517.192 1632.1 516.328C1629.96 515.464 1628.1 514.44 1626.53 513.256L1629.7 506.584C1631.04 507.736 1632.48 508.632 1634.02 509.272C1635.56 509.88 1636.95 510.184 1638.2 510.184C1640.21 510.184 1641.8 509.8 1642.95 509.032C1644.1 508.232 1644.68 507.016 1644.68 505.384C1644.68 504.296 1644.36 503.416 1643.72 502.744C1643.11 502.04 1642.31 501.528 1641.32 501.208C1640.32 500.856 1639.28 500.68 1638.2 500.68C1636.92 500.68 1635.44 500.824 1633.78 501.112C1632.12 501.368 1630.44 501.928 1628.74 502.792L1633.44 483.4H1652.88V490.456H1639.4L1637.48 496.408C1638.37 495.96 1639.3 495.656 1640.26 495.496C1641.25 495.336 1642.28 495.256 1643.33 495.256C1645.12 495.256 1646.79 495.688 1648.32 496.552C1649.89 497.416 1651.16 498.664 1652.12 500.296C1653.08 501.928 1653.56 503.912 1653.56 506.248ZM1706.37 502.792V517H1699.08V503.56C1699.08 502.248 1698.85 501.256 1698.4 500.584C1697.99 499.88 1697.28 499.528 1696.29 499.528C1695.33 499.528 1694.55 499.864 1693.94 500.536C1693.33 501.208 1693.03 502.216 1693.03 503.56V517H1685.73V503.56C1685.73 502.248 1685.51 501.256 1685.06 500.584C1684.64 499.88 1683.94 499.528 1682.95 499.528C1681.99 499.528 1681.2 499.864 1680.6 500.536C1679.99 501.208 1679.68 502.216 1679.68 503.56V517H1672.68V494.92H1679.68V498.184C1680.32 496.968 1681.17 496.04 1682.23 495.4C1683.28 494.728 1684.56 494.392 1686.07 494.392C1687.8 494.392 1689.17 494.696 1690.2 495.304C1691.25 495.912 1691.99 496.824 1692.4 498.04C1693.2 496.888 1694.2 495.992 1695.38 495.352C1696.56 494.712 1697.91 494.392 1699.41 494.392C1701.97 494.392 1703.76 495.128 1704.79 496.6C1705.84 498.072 1706.37 500.136 1706.37 502.792ZM1711.62 486.664C1711.62 485.512 1712.02 484.568 1712.82 483.832C1713.65 483.096 1714.66 482.728 1715.84 482.728C1717.03 482.728 1718.02 483.096 1718.82 483.832C1719.65 484.568 1720.07 485.512 1720.07 486.664C1720.07 487.816 1719.65 488.76 1718.82 489.496C1718.02 490.2 1717.03 490.552 1715.84 490.552C1714.66 490.552 1713.65 490.2 1712.82 489.496C1712.02 488.76 1711.62 487.816 1711.62 486.664ZM1712.29 494.92H1719.35V517H1712.29V494.92ZM1739.67 503.56C1739.67 502.248 1739.43 501.256 1738.95 500.584C1738.47 499.88 1737.64 499.528 1736.45 499.528C1735.3 499.528 1734.37 499.88 1733.67 500.584C1732.96 501.256 1732.61 502.248 1732.61 503.56V517H1725.32V494.92H1732.61V498.232C1733.25 497.016 1734.12 496.072 1735.2 495.4C1736.32 494.728 1737.7 494.392 1739.33 494.392C1742.08 494.392 1744.08 495.128 1745.33 496.6C1746.61 498.072 1747.25 500.136 1747.25 502.792V517H1739.67V503.56ZM1760.56 508.36C1760.56 509.64 1760.78 510.632 1761.23 511.336C1761.71 512.04 1762.54 512.392 1763.73 512.392C1764.88 512.392 1765.81 512.04 1766.51 511.336C1767.21 510.632 1767.57 509.64 1767.57 508.36V494.92H1774.86V517H1767.57V513.688C1766.93 514.872 1766.05 515.816 1764.93 516.52C1763.84 517.192 1762.48 517.528 1760.85 517.528C1758.13 517.528 1756.13 516.792 1754.85 515.32C1753.57 513.816 1752.93 511.752 1752.93 509.128V494.92H1760.56V508.36ZM1777.94 494.92H1781.83V487.24H1788.84V494.92H1792.73V500.92H1788.84V517H1781.83V500.92H1777.94V494.92ZM1807.1 517.48C1804.5 517.48 1802.26 517.016 1800.38 516.088C1798.52 515.128 1797.08 513.784 1796.06 512.056C1795.03 510.328 1794.52 508.296 1794.52 505.96C1794.52 502.376 1795.62 499.56 1797.83 497.512C1800.04 495.464 1803.08 494.44 1806.95 494.44C1810.76 494.44 1813.69 495.416 1815.74 497.368C1817.82 499.32 1818.86 502.072 1818.86 505.624C1818.86 505.976 1818.86 506.312 1818.86 506.632C1818.86 506.952 1818.84 507.24 1818.81 507.496H1801.96C1802.15 509 1802.68 510.168 1803.54 511C1804.41 511.832 1805.54 512.248 1806.95 512.248C1809.51 512.248 1811.34 511.288 1812.42 509.368L1818.95 510.952C1816.62 515.304 1812.66 517.48 1807.1 517.48ZM1806.81 499.288C1804.18 499.288 1802.6 500.68 1802.06 503.464H1811.08C1810.95 502.184 1810.5 501.176 1809.74 500.44C1809 499.672 1808.02 499.288 1806.81 499.288ZM1824.53 508.984C1826.23 510.392 1827.67 511.352 1828.85 511.864C1830.07 512.344 1831.06 512.584 1831.83 512.584C1833.27 512.584 1833.99 512.008 1833.99 510.856C1833.99 510.152 1833.65 509.592 1832.98 509.176C1832.31 508.728 1831.08 508.216 1829.28 507.64C1828.26 507.288 1827.27 506.84 1826.31 506.296C1825.35 505.752 1824.56 505.032 1823.96 504.136C1823.35 503.24 1823.04 502.088 1823.04 500.68C1823.04 498.664 1823.83 497.128 1825.4 496.072C1826.96 494.984 1828.93 494.44 1831.3 494.44C1833.19 494.44 1834.92 494.76 1836.48 495.4C1838.05 496.008 1839.48 496.776 1840.76 497.704L1838.16 502.456C1837.27 501.592 1836.21 500.872 1835 500.296C1833.81 499.72 1832.72 499.432 1831.73 499.432C1831.09 499.432 1830.6 499.56 1830.24 499.816C1829.92 500.072 1829.76 500.408 1829.76 500.824C1829.76 501.56 1830.2 502.104 1831.06 502.456C1831.96 502.808 1833.22 503.304 1834.85 503.944C1836 504.36 1837.06 504.84 1838.02 505.384C1838.98 505.928 1839.75 506.616 1840.32 507.448C1840.93 508.28 1841.24 509.384 1841.24 510.76C1841.24 513.096 1840.52 514.872 1839.08 516.088C1837.64 517.304 1835.59 517.912 1832.93 517.912C1830.53 517.912 1828.4 517.528 1826.55 516.76C1824.69 515.96 1823.01 514.968 1821.51 513.784L1824.53 508.984Z" fill="white"/>
<path d="M1606.22 59.768C1603.53 59.768 1601.21 59.24 1599.26 58.184C1597.34 57.096 1595.86 55.688 1594.84 53.96C1593.82 52.2 1593.3 50.328 1593.3 48.344H1601.32C1601.32 50.008 1601.85 51.24 1602.9 52.04C1603.96 52.84 1605.18 53.24 1606.55 53.24C1607.96 53.24 1609.11 52.904 1610.01 52.232C1610.9 51.528 1611.35 50.456 1611.35 49.016C1611.35 47.608 1610.78 46.472 1609.62 45.608C1608.47 44.744 1606.66 44.312 1604.2 44.312V39.08C1606.09 39.08 1607.59 38.632 1608.71 37.736C1609.83 36.84 1610.39 35.8 1610.39 34.616C1610.39 33.624 1610.07 32.824 1609.43 32.216C1608.82 31.576 1607.88 31.256 1606.6 31.256C1605.35 31.256 1604.31 31.64 1603.48 32.408C1602.65 33.144 1602.23 34.088 1602.23 35.24H1594.74C1594.74 33.224 1595.22 31.432 1596.18 29.864C1597.18 28.296 1598.55 27.064 1600.31 26.168C1602.1 25.24 1604.2 24.776 1606.6 24.776C1609.13 24.776 1611.27 25.192 1613.03 26.024C1614.79 26.856 1616.14 27.976 1617.06 29.384C1617.99 30.792 1618.46 32.36 1618.46 34.088C1618.46 35.816 1617.93 37.288 1616.87 38.504C1615.85 39.72 1614.44 40.664 1612.65 41.336C1614.76 42.04 1616.41 43.096 1617.59 44.504C1618.81 45.88 1619.42 47.656 1619.42 49.832C1619.42 51.784 1618.89 53.512 1617.83 55.016C1616.78 56.488 1615.26 57.656 1613.27 58.52C1611.32 59.352 1608.97 59.768 1606.22 59.768ZM1652.39 45.56C1652.39 44.248 1652.15 43.256 1651.67 42.584C1651.19 41.88 1650.36 41.528 1649.17 41.528C1648.02 41.528 1647.09 41.88 1646.39 42.584C1645.68 43.256 1645.33 44.248 1645.33 45.56V59H1638.04V21.56H1645.33V39.944C1645.94 38.76 1646.8 37.832 1647.92 37.16C1649.04 36.456 1650.42 36.104 1652.05 36.104C1654.8 36.104 1656.76 36.824 1657.91 38.264C1659.06 39.704 1659.64 41.784 1659.64 44.504V59H1652.39V45.56ZM1664.02 47.96C1664.02 45.624 1664.56 43.592 1665.65 41.864C1666.77 40.136 1668.28 38.792 1670.16 37.832C1672.08 36.872 1674.24 36.392 1676.64 36.392C1679.08 36.392 1681.24 36.872 1683.12 37.832C1685.01 38.792 1686.5 40.136 1687.59 41.864C1688.71 43.592 1689.27 45.624 1689.27 47.96C1689.27 50.264 1688.71 52.28 1687.59 54.008C1686.5 55.736 1685.01 57.08 1683.12 58.04C1681.24 59 1679.08 59.48 1676.64 59.48C1674.24 59.48 1672.08 59 1670.16 58.04C1668.28 57.08 1666.77 55.736 1665.65 54.008C1664.56 52.28 1664.02 50.264 1664.02 47.96ZM1671.51 47.96C1671.51 49.656 1672 51 1673 51.992C1674.02 52.984 1675.24 53.48 1676.64 53.48C1678.05 53.48 1679.25 52.984 1680.24 51.992C1681.27 51 1681.78 49.656 1681.78 47.96C1681.78 46.264 1681.27 44.92 1680.24 43.928C1679.25 42.904 1678.05 42.392 1676.64 42.392C1675.24 42.392 1674.02 42.904 1673 43.928C1672 44.92 1671.51 46.264 1671.51 47.96ZM1701.21 50.36C1701.21 51.64 1701.44 52.632 1701.89 53.336C1702.37 54.04 1703.2 54.392 1704.38 54.392C1705.53 54.392 1706.46 54.04 1707.17 53.336C1707.87 52.632 1708.22 51.64 1708.22 50.36V36.92H1715.52V59H1708.22V55.688C1707.58 56.872 1706.7 57.816 1705.58 58.52C1704.49 59.192 1703.13 59.528 1701.5 59.528C1698.78 59.528 1696.78 58.792 1695.5 57.32C1694.22 55.816 1693.58 53.752 1693.58 51.128V36.92H1701.21V50.36ZM1734.73 44.456C1734.34 44.072 1733.93 43.768 1733.48 43.544C1733.06 43.32 1732.54 43.208 1731.9 43.208C1730.84 43.208 1729.98 43.624 1729.3 44.456C1728.66 45.288 1728.34 46.504 1728.34 48.104V59H1721.19V36.92H1728.34V39.704C1729.05 38.68 1729.88 37.88 1730.84 37.304C1731.83 36.696 1732.86 36.392 1733.91 36.392C1734.71 36.392 1735.48 36.568 1736.22 36.92C1736.95 37.24 1737.51 37.672 1737.9 38.216L1734.73 44.456ZM1742.13 50.984C1743.82 52.392 1745.26 53.352 1746.45 53.864C1747.66 54.344 1748.65 54.584 1749.42 54.584C1750.86 54.584 1751.58 54.008 1751.58 52.856C1751.58 52.152 1751.25 51.592 1750.57 51.176C1749.9 50.728 1748.67 50.216 1746.88 49.64C1745.85 49.288 1744.86 48.84 1743.9 48.296C1742.94 47.752 1742.16 47.032 1741.55 46.136C1740.94 45.24 1740.64 44.088 1740.64 42.68C1740.64 40.664 1741.42 39.128 1742.99 38.072C1744.56 36.984 1746.53 36.44 1748.89 36.44C1750.78 36.44 1752.51 36.76 1754.08 37.4C1755.65 38.008 1757.07 38.776 1758.35 39.704L1755.76 44.456C1754.86 43.592 1753.81 42.872 1752.59 42.296C1751.41 41.72 1750.32 41.432 1749.33 41.432C1748.69 41.432 1748.19 41.56 1747.84 41.816C1747.52 42.072 1747.36 42.408 1747.36 42.824C1747.36 43.56 1747.79 44.104 1748.65 44.456C1749.55 44.808 1750.81 45.304 1752.45 45.944C1753.6 46.36 1754.65 46.84 1755.61 47.384C1756.57 47.928 1757.34 48.616 1757.92 49.448C1758.53 50.28 1758.83 51.384 1758.83 52.76C1758.83 55.096 1758.11 56.872 1756.67 58.088C1755.23 59.304 1753.18 59.912 1750.53 59.912C1748.13 59.912 1746 59.528 1744.14 58.76C1742.29 57.96 1740.61 56.968 1739.1 55.784L1742.13 50.984Z" fill="white"/>
<path d="M2239.11 568L2235.94 561.52H2225.29L2222.17 568H2212.95L2230.66 532.288L2248.33 568H2239.11ZM2230.66 546.784L2226.92 555.328H2234.36L2230.66 546.784ZM2249.83 556.96C2249.83 554.464 2250.33 552.368 2251.32 550.672C2252.31 548.944 2253.61 547.648 2255.21 546.784C2256.81 545.888 2258.5 545.44 2260.3 545.44C2263.56 545.44 2266.09 546.784 2267.88 549.472V530.56H2275.13V568H2267.88V564.448C2266.09 567.136 2263.56 568.48 2260.3 568.48C2258.5 568.48 2256.81 568.048 2255.21 567.184C2253.61 566.288 2252.31 564.976 2251.32 563.248C2250.33 561.52 2249.83 559.424 2249.83 556.96ZM2257.46 556.96C2257.46 558.688 2257.98 560.064 2259 561.088C2260.06 562.112 2261.3 562.624 2262.74 562.624C2263.58 562.624 2264.38 562.4 2265.14 561.952C2265.94 561.504 2266.6 560.864 2267.11 560.032C2267.62 559.168 2267.88 558.144 2267.88 556.96C2267.88 555.744 2267.62 554.72 2267.11 553.888C2266.6 553.056 2265.94 552.416 2265.14 551.968C2264.38 551.52 2263.58 551.296 2262.74 551.296C2261.3 551.296 2260.06 551.808 2259 552.832C2257.98 553.856 2257.46 555.232 2257.46 556.96ZM2279.41 556.96C2279.41 554.464 2279.91 552.368 2280.9 550.672C2281.89 548.944 2283.19 547.648 2284.79 546.784C2286.39 545.888 2288.08 545.44 2289.88 545.44C2293.14 545.44 2295.67 546.784 2297.46 549.472V530.56H2304.71V568H2297.46V564.448C2295.67 567.136 2293.14 568.48 2289.88 568.48C2288.08 568.48 2286.39 568.048 2284.79 567.184C2283.19 566.288 2281.89 564.976 2280.9 563.248C2279.91 561.52 2279.41 559.424 2279.41 556.96ZM2287.04 556.96C2287.04 558.688 2287.56 560.064 2288.58 561.088C2289.64 562.112 2290.88 562.624 2292.32 562.624C2293.16 562.624 2293.96 562.4 2294.72 561.952C2295.52 561.504 2296.18 560.864 2296.69 560.032C2297.2 559.168 2297.46 558.144 2297.46 556.96C2297.46 555.744 2297.2 554.72 2296.69 553.888C2296.18 553.056 2295.52 552.416 2294.72 551.968C2293.96 551.52 2293.16 551.296 2292.32 551.296C2290.88 551.296 2289.64 551.808 2288.58 552.832C2287.56 553.856 2287.04 555.232 2287.04 556.96ZM2321.57 568.48C2318.97 568.48 2316.73 568.016 2314.85 567.088C2312.99 566.128 2311.55 564.784 2310.53 563.056C2309.5 561.328 2308.99 559.296 2308.99 556.96C2308.99 553.376 2310.09 550.56 2312.3 548.512C2314.51 546.464 2317.55 545.44 2321.42 545.44C2325.23 545.44 2328.16 546.416 2330.21 548.368C2332.29 550.32 2333.33 553.072 2333.33 556.624C2333.33 556.976 2333.33 557.312 2333.33 557.632C2333.33 557.952 2333.31 558.24 2333.28 558.496H2316.43C2316.62 560 2317.15 561.168 2318.01 562C2318.88 562.832 2320.01 563.248 2321.42 563.248C2323.98 563.248 2325.81 562.288 2326.89 560.368L2333.42 561.952C2331.09 566.304 2327.13 568.48 2321.57 568.48ZM2321.28 550.288C2318.65 550.288 2317.07 551.68 2316.53 554.464H2325.55C2325.42 553.184 2324.97 552.176 2324.21 551.44C2323.47 550.672 2322.49 550.288 2321.28 550.288ZM2336.5 556.96C2336.5 554.464 2337 552.368 2337.99 550.672C2338.98 548.944 2340.28 547.648 2341.88 546.784C2343.48 545.888 2345.18 545.44 2346.97 545.44C2350.23 545.44 2352.76 546.784 2354.55 549.472V530.56H2361.8V568H2354.55V564.448C2352.76 567.136 2350.23 568.48 2346.97 568.48C2345.18 568.48 2343.48 568.048 2341.88 567.184C2340.28 566.288 2338.98 564.976 2337.99 563.248C2337 561.52 2336.5 559.424 2336.5 556.96ZM2344.14 556.96C2344.14 558.688 2344.65 560.064 2345.67 561.088C2346.73 562.112 2347.98 562.624 2349.42 562.624C2350.25 562.624 2351.05 562.4 2351.82 561.952C2352.62 561.504 2353.27 560.864 2353.78 560.032C2354.3 559.168 2354.55 558.144 2354.55 556.96C2354.55 555.744 2354.3 554.72 2353.78 553.888C2353.27 553.056 2352.62 552.416 2351.82 551.968C2351.05 551.52 2350.25 551.296 2349.42 551.296C2347.98 551.296 2346.73 551.808 2345.67 552.832C2344.65 553.856 2344.14 555.232 2344.14 556.96ZM2379.18 545.92H2383.07V538.24H2390.07V545.92H2393.96V551.92H2390.07V568H2383.07V551.92H2379.18V545.92ZM2395.75 556.96C2395.75 554.624 2396.3 552.592 2397.39 550.864C2398.51 549.136 2400.01 547.792 2401.9 546.832C2403.82 545.872 2405.98 545.392 2408.38 545.392C2410.81 545.392 2412.97 545.872 2414.86 546.832C2416.75 547.792 2418.23 549.136 2419.32 550.864C2420.44 552.592 2421 554.624 2421 556.96C2421 559.264 2420.44 561.28 2419.32 563.008C2418.23 564.736 2416.75 566.08 2414.86 567.04C2412.97 568 2410.81 568.48 2408.38 568.48C2405.98 568.48 2403.82 568 2401.9 567.04C2400.01 566.08 2398.51 564.736 2397.39 563.008C2396.3 561.28 2395.75 559.264 2395.75 556.96ZM2403.24 556.96C2403.24 558.656 2403.74 560 2404.73 560.992C2405.75 561.984 2406.97 562.48 2408.38 562.48C2409.79 562.48 2410.99 561.984 2411.98 560.992C2413 560 2413.51 558.656 2413.51 556.96C2413.51 555.264 2413 553.92 2411.98 552.928C2410.99 551.904 2409.79 551.392 2408.38 551.392C2406.97 551.392 2405.75 551.904 2404.73 552.928C2403.74 553.92 2403.24 555.264 2403.24 556.96ZM2214.54 628.96C2214.54 626.624 2215.08 624.592 2216.17 622.864C2217.29 621.136 2218.79 619.792 2220.68 618.832C2222.6 617.872 2224.76 617.392 2227.16 617.392C2229.59 617.392 2231.75 617.872 2233.64 618.832C2235.53 619.792 2237.02 621.136 2238.1 622.864C2239.22 624.592 2239.78 626.624 2239.78 628.96C2239.78 631.264 2239.22 633.28 2238.1 635.008C2237.02 636.736 2235.53 638.08 2233.64 639.04C2231.75 640 2229.59 640.48 2227.16 640.48C2224.76 640.48 2222.6 640 2220.68 639.04C2218.79 638.08 2217.29 636.736 2216.17 635.008C2215.08 633.28 2214.54 631.264 2214.54 628.96ZM2222.02 628.96C2222.02 630.656 2222.52 632 2223.51 632.992C2224.54 633.984 2225.75 634.48 2227.16 634.48C2228.57 634.48 2229.77 633.984 2230.76 632.992C2231.78 632 2232.3 630.656 2232.3 628.96C2232.3 627.264 2231.78 625.92 2230.76 624.928C2229.77 623.904 2228.57 623.392 2227.16 623.392C2225.75 623.392 2224.54 623.904 2223.51 624.928C2222.52 625.92 2222.02 627.264 2222.02 628.96ZM2258.45 626.56C2258.45 625.248 2258.21 624.256 2257.73 623.584C2257.25 622.88 2256.42 622.528 2255.23 622.528C2254.08 622.528 2253.15 622.88 2252.45 623.584C2251.75 624.256 2251.39 625.248 2251.39 626.56V640H2244.1V617.92H2251.39V621.232C2252.03 620.016 2252.9 619.072 2253.99 618.4C2255.11 617.728 2256.48 617.392 2258.11 617.392C2260.87 617.392 2262.87 618.128 2264.11 619.6C2265.39 621.072 2266.03 623.136 2266.03 625.792V640H2258.45V626.56ZM2271.71 602.56H2279V640H2271.71V602.56ZM2284.21 609.664C2284.21 608.512 2284.61 607.568 2285.41 606.832C2286.24 606.096 2287.25 605.728 2288.44 605.728C2289.62 605.728 2290.61 606.096 2291.41 606.832C2292.24 607.568 2292.66 608.512 2292.66 609.664C2292.66 610.816 2292.24 611.76 2291.41 612.496C2290.61 613.2 2289.62 613.552 2288.44 613.552C2287.25 613.552 2286.24 613.2 2285.41 612.496C2284.61 611.76 2284.21 610.816 2284.21 609.664ZM2284.88 617.92H2291.94V640H2284.88V617.92ZM2312.26 626.56C2312.26 625.248 2312.02 624.256 2311.54 623.584C2311.06 622.88 2310.23 622.528 2309.05 622.528C2307.89 622.528 2306.97 622.88 2306.26 623.584C2305.56 624.256 2305.21 625.248 2305.21 626.56V640H2297.91V617.92H2305.21V621.232C2305.85 620.016 2306.71 619.072 2307.8 618.4C2308.92 617.728 2310.29 617.392 2311.93 617.392C2314.68 617.392 2316.68 618.128 2317.93 619.6C2319.21 621.072 2319.85 623.136 2319.85 625.792V640H2312.26V626.56ZM2336.8 640.48C2334.21 640.48 2331.97 640.016 2330.08 639.088C2328.22 638.128 2326.78 636.784 2325.76 635.056C2324.74 633.328 2324.22 631.296 2324.22 628.96C2324.22 625.376 2325.33 622.56 2327.54 620.512C2329.74 618.464 2332.78 617.44 2336.66 617.44C2340.46 617.44 2343.39 618.416 2345.44 620.368C2347.52 622.32 2348.56 625.072 2348.56 628.624C2348.56 628.976 2348.56 629.312 2348.56 629.632C2348.56 629.952 2348.54 630.24 2348.51 630.496H2331.66C2331.86 632 2332.38 633.168 2333.25 634C2334.11 634.832 2335.25 635.248 2336.66 635.248C2339.22 635.248 2341.04 634.288 2342.13 632.368L2348.66 633.952C2346.32 638.304 2342.37 640.48 2336.8 640.48ZM2336.51 622.288C2333.89 622.288 2332.3 623.68 2331.76 626.464H2340.78C2340.66 625.184 2340.21 624.176 2339.44 623.44C2338.7 622.672 2337.73 622.288 2336.51 622.288ZM2380.96 625.456C2380.58 625.072 2380.16 624.768 2379.71 624.544C2379.3 624.32 2378.77 624.208 2378.13 624.208C2377.07 624.208 2376.21 624.624 2375.54 625.456C2374.9 626.288 2374.58 627.504 2374.58 629.104V640H2367.43V617.92H2374.58V620.704C2375.28 619.68 2376.11 618.88 2377.07 618.304C2378.07 617.696 2379.09 617.392 2380.15 617.392C2380.95 617.392 2381.71 617.568 2382.45 617.92C2383.19 618.24 2383.75 618.672 2384.13 619.216L2380.96 625.456ZM2397.74 640.48C2395.15 640.48 2392.91 640.016 2391.02 639.088C2389.16 638.128 2387.72 636.784 2386.7 635.056C2385.67 633.328 2385.16 631.296 2385.16 628.96C2385.16 625.376 2386.27 622.56 2388.47 620.512C2390.68 618.464 2393.72 617.44 2397.59 617.44C2401.4 617.44 2404.33 618.416 2406.38 620.368C2408.46 622.32 2409.5 625.072 2409.5 628.624C2409.5 628.976 2409.5 629.312 2409.5 629.632C2409.5 629.952 2409.48 630.24 2409.45 630.496H2392.6C2392.79 632 2393.32 633.168 2394.19 634C2395.05 634.832 2396.19 635.248 2397.59 635.248C2400.15 635.248 2401.98 634.288 2403.07 632.368L2409.59 633.952C2407.26 638.304 2403.31 640.48 2397.74 640.48ZM2397.45 622.288C2394.83 622.288 2393.24 623.68 2392.7 626.464H2401.72C2401.59 625.184 2401.15 624.176 2400.38 623.44C2399.64 622.672 2398.67 622.288 2397.45 622.288ZM2413.16 641.584H2420.21C2420.34 642.96 2420.85 643.984 2421.75 644.656C2422.64 645.328 2423.8 645.664 2425.2 645.664C2426.74 645.664 2428.04 645.152 2429.09 644.128C2430.18 643.104 2430.72 641.568 2430.72 639.52V636.064C2428.96 638.624 2426.44 639.904 2423.14 639.904C2421.35 639.904 2419.65 639.488 2418.05 638.656C2416.45 637.824 2415.16 636.576 2414.16 634.912C2413.17 633.216 2412.68 631.136 2412.68 628.672C2412.68 626.176 2413.17 624.096 2414.16 622.432C2415.16 620.768 2416.45 619.52 2418.05 618.688C2419.65 617.856 2421.35 617.44 2423.14 617.44C2426.44 617.44 2428.96 618.72 2430.72 621.28V617.92H2437.68V639.52C2437.68 642.368 2437.14 644.672 2436.05 646.432C2434.96 648.192 2433.49 649.472 2431.64 650.272C2429.81 651.072 2427.78 651.472 2425.54 651.472C2422.79 651.472 2420.53 651.056 2418.77 650.224C2417.01 649.392 2415.68 648.224 2414.79 646.72C2413.89 645.248 2413.35 643.536 2413.16 641.584ZM2420.31 628.672C2420.31 630.4 2420.82 631.728 2421.84 632.656C2422.9 633.584 2424.15 634.048 2425.59 634.048C2426.42 634.048 2427.22 633.856 2427.99 633.472C2428.79 633.056 2429.44 632.448 2429.96 631.648C2430.47 630.848 2430.72 629.856 2430.72 628.672C2430.72 627.456 2430.47 626.464 2429.96 625.696C2429.44 624.896 2428.79 624.304 2427.99 623.92C2427.22 623.504 2426.42 623.296 2425.59 623.296C2424.15 623.296 2422.9 623.76 2421.84 624.688C2420.82 625.616 2420.31 626.944 2420.31 628.672ZM2442.84 609.664C2442.84 608.512 2443.24 607.568 2444.04 606.832C2444.87 606.096 2445.88 605.728 2447.06 605.728C2448.25 605.728 2449.24 606.096 2450.04 606.832C2450.87 607.568 2451.29 608.512 2451.29 609.664C2451.29 610.816 2450.87 611.76 2450.04 612.496C2449.24 613.2 2448.25 613.552 2447.06 613.552C2445.88 613.552 2444.87 613.2 2444.04 612.496C2443.24 611.76 2442.84 610.816 2442.84 609.664ZM2443.51 617.92H2450.57V640H2443.51V617.92ZM2457.74 631.984C2459.43 633.392 2460.87 634.352 2462.06 634.864C2463.27 635.344 2464.26 635.584 2465.03 635.584C2466.47 635.584 2467.19 635.008 2467.19 633.856C2467.19 633.152 2466.86 632.592 2466.18 632.176C2465.51 631.728 2464.28 631.216 2462.49 630.64C2461.46 630.288 2460.47 629.84 2459.51 629.296C2458.55 628.752 2457.77 628.032 2457.16 627.136C2456.55 626.24 2456.25 625.088 2456.25 623.68C2456.25 621.664 2457.03 620.128 2458.6 619.072C2460.17 617.984 2462.14 617.44 2464.5 617.44C2466.39 617.44 2468.12 617.76 2469.69 618.4C2471.26 619.008 2472.68 619.776 2473.96 620.704L2471.37 625.456C2470.47 624.592 2469.42 623.872 2468.2 623.296C2467.02 622.72 2465.93 622.432 2464.94 622.432C2464.3 622.432 2463.8 622.56 2463.45 622.816C2463.13 623.072 2462.97 623.408 2462.97 623.824C2462.97 624.56 2463.4 625.104 2464.26 625.456C2465.16 625.808 2466.42 626.304 2468.06 626.944C2469.21 627.36 2470.26 627.84 2471.22 628.384C2472.18 628.928 2472.95 629.616 2473.53 630.448C2474.14 631.28 2474.44 632.384 2474.44 633.76C2474.44 636.096 2473.72 637.872 2472.28 639.088C2470.84 640.304 2468.79 640.912 2466.14 640.912C2463.74 640.912 2461.61 640.528 2459.75 639.76C2457.9 638.96 2456.22 637.968 2454.71 636.784L2457.74 631.984ZM2475.83 617.92H2479.72V610.24H2486.73V617.92H2490.62V623.92H2486.73V640H2479.72V623.92H2475.83V617.92ZM2504.99 640.48C2502.4 640.48 2500.16 640.016 2498.27 639.088C2496.41 638.128 2494.97 636.784 2493.95 635.056C2492.92 633.328 2492.41 631.296 2492.41 628.96C2492.41 625.376 2493.52 622.56 2495.72 620.512C2497.93 618.464 2500.97 617.44 2504.84 617.44C2508.65 617.44 2511.58 618.416 2513.63 620.368C2515.71 622.32 2516.75 625.072 2516.75 628.624C2516.75 628.976 2516.75 629.312 2516.75 629.632C2516.75 629.952 2516.73 630.24 2516.7 630.496H2499.85C2500.04 632 2500.57 633.168 2501.44 634C2502.3 634.832 2503.44 635.248 2504.84 635.248C2507.4 635.248 2509.23 634.288 2510.32 632.368L2516.84 633.952C2514.51 638.304 2510.56 640.48 2504.99 640.48ZM2504.7 622.288C2502.08 622.288 2500.49 623.68 2499.95 626.464H2508.97C2508.84 625.184 2508.4 624.176 2507.63 623.44C2506.89 622.672 2505.92 622.288 2504.7 622.288ZM2534.76 625.456C2534.37 625.072 2533.96 624.768 2533.51 624.544C2533.09 624.32 2532.57 624.208 2531.93 624.208C2530.87 624.208 2530.01 624.624 2529.33 625.456C2528.69 626.288 2528.37 627.504 2528.37 629.104V640H2521.22V617.92H2528.37V620.704C2529.08 619.68 2529.91 618.88 2530.87 618.304C2531.86 617.696 2532.89 617.392 2533.94 617.392C2534.74 617.392 2535.51 617.568 2536.25 617.92C2536.98 618.24 2537.54 618.672 2537.93 619.216L2534.76 625.456ZM2222.07 674.56H2228.7C2227.03 678.144 2225.74 681.936 2224.81 685.936C2223.91 689.936 2223.46 693.984 2223.46 698.08C2223.46 702.144 2223.91 706.176 2224.81 710.176C2225.74 714.176 2227.03 717.984 2228.7 721.6H2222.07C2220.15 717.984 2218.7 714.176 2217.7 710.176C2216.74 706.176 2216.26 702.144 2216.26 698.08C2216.26 693.984 2216.74 689.936 2217.7 685.936C2218.7 681.936 2220.15 678.144 2222.07 674.56ZM2230.9 700.96C2230.9 698.368 2231.39 696.192 2232.38 694.432C2233.38 692.672 2234.67 691.36 2236.27 690.496C2237.87 689.6 2239.57 689.152 2241.36 689.152C2243.06 689.152 2244.54 689.536 2245.82 690.304C2247.1 691.04 2248.14 692.096 2248.94 693.472V689.92H2256.19V722.56H2248.94V708.448C2248.14 709.824 2247.1 710.896 2245.82 711.664C2244.54 712.4 2243.06 712.768 2241.36 712.768C2239.57 712.768 2237.87 712.32 2236.27 711.424C2234.67 710.528 2233.38 709.216 2232.38 707.488C2231.39 705.728 2230.9 703.552 2230.9 700.96ZM2238.53 700.96C2238.53 702.688 2239.04 704.016 2240.06 704.944C2241.12 705.872 2242.37 706.336 2243.81 706.336C2244.64 706.336 2245.44 706.144 2246.21 705.76C2247.01 705.344 2247.66 704.736 2248.18 703.936C2248.69 703.136 2248.94 702.144 2248.94 700.96C2248.94 699.744 2248.69 698.752 2248.18 697.984C2247.66 697.184 2247.01 696.592 2246.21 696.208C2245.44 695.792 2244.64 695.584 2243.81 695.584C2242.37 695.584 2241.12 696.048 2240.06 696.976C2239.04 697.904 2238.53 699.232 2238.53 700.96ZM2269.4 703.36C2269.4 704.64 2269.63 705.632 2270.07 706.336C2270.55 707.04 2271.39 707.392 2272.57 707.392C2273.72 707.392 2274.65 707.04 2275.35 706.336C2276.06 705.632 2276.41 704.64 2276.41 703.36V689.92H2283.71V712H2276.41V708.688C2275.77 709.872 2274.89 710.816 2273.77 711.52C2272.68 712.192 2271.32 712.528 2269.69 712.528C2266.97 712.528 2264.97 711.792 2263.69 710.32C2262.41 708.816 2261.77 706.752 2261.77 704.128V689.92H2269.4V703.36ZM2288.95 681.664C2288.95 680.512 2289.35 679.568 2290.15 678.832C2290.98 678.096 2291.99 677.728 2293.17 677.728C2294.35 677.728 2295.35 678.096 2296.15 678.832C2296.98 679.568 2297.39 680.512 2297.39 681.664C2297.39 682.816 2296.98 683.76 2296.15 684.496C2295.35 685.2 2294.35 685.552 2293.17 685.552C2291.99 685.552 2290.98 685.2 2290.15 684.496C2289.35 683.76 2288.95 682.816 2288.95 681.664ZM2289.62 689.92H2296.67V712H2289.62V689.92ZM2308.74 700.96C2308.74 702.72 2309.32 704.112 2310.47 705.136C2311.62 706.16 2313.01 706.672 2314.64 706.672C2315.96 706.672 2317.2 706.4 2318.39 705.856C2319.57 705.28 2320.48 704.464 2321.12 703.408V710.464C2320.36 711.072 2319.4 711.568 2318.24 711.952C2317.09 712.304 2315.68 712.48 2314.02 712.48C2311.56 712.48 2309.36 712 2307.44 711.04C2305.52 710.08 2304 708.736 2302.88 707.008C2301.8 705.28 2301.25 703.264 2301.25 700.96C2301.25 698.624 2301.8 696.608 2302.88 694.912C2304 693.184 2305.52 691.84 2307.44 690.88C2309.36 689.92 2311.56 689.44 2314.02 689.44C2315.68 689.44 2317.09 689.632 2318.24 690.016C2319.4 690.368 2320.36 690.816 2321.12 691.36V698.464C2320.48 697.408 2319.54 696.608 2318.29 696.064C2317.04 695.52 2315.83 695.248 2314.64 695.248C2313.56 695.248 2312.56 695.504 2311.67 696.016C2310.77 696.496 2310.05 697.168 2309.51 698.032C2309 698.896 2308.74 699.872 2308.74 700.96ZM2341.29 689.92H2349.93L2340.48 699.04L2350.89 712H2342.35L2333.23 700.768V712H2326.27V674.56H2333.23V697.696L2341.29 689.92ZM2370.81 696.688L2368.36 691.84C2369.64 691.232 2371.15 690.656 2372.87 690.112C2374.63 689.568 2376.55 689.296 2378.63 689.296C2380.59 689.296 2382.33 689.584 2383.87 690.16C2385.4 690.704 2386.62 691.504 2387.51 692.56C2388.41 693.616 2388.86 694.912 2388.86 696.448V712H2381.9V708.976C2381.23 710.128 2380.22 711.008 2378.87 711.616C2377.56 712.192 2376.14 712.48 2374.6 712.48C2373.19 712.48 2371.88 712.224 2370.67 711.712C2369.48 711.168 2368.52 710.368 2367.79 709.312C2367.08 708.256 2366.73 706.976 2366.73 705.472C2366.73 703.36 2367.47 701.696 2368.94 700.48C2370.44 699.232 2372.59 698.608 2375.37 698.608C2376.71 698.608 2377.95 698.752 2379.07 699.04C2380.19 699.296 2381.13 699.616 2381.9 700V698.08C2381.9 695.904 2380.51 694.816 2377.72 694.816C2376.76 694.816 2375.8 694.928 2374.84 695.152C2373.88 695.376 2373.03 695.648 2372.3 695.968C2371.59 696.256 2371.1 696.496 2370.81 696.688ZM2374.07 705.088C2374.07 705.952 2374.36 706.624 2374.94 707.104C2375.55 707.552 2376.3 707.776 2377.19 707.776C2378.38 707.776 2379.43 707.424 2380.36 706.72C2381.29 705.984 2381.8 704.896 2381.9 703.456C2380.59 702.88 2379.16 702.592 2377.63 702.592C2376.35 702.592 2375.43 702.816 2374.89 703.264C2374.35 703.68 2374.07 704.288 2374.07 705.088ZM2401.49 722.56H2394.24V689.92H2401.49V693.472C2402.29 692.096 2403.31 691.04 2404.56 690.304C2405.84 689.536 2407.33 689.152 2409.02 689.152C2410.81 689.152 2412.51 689.6 2414.11 690.496C2415.71 691.36 2417.01 692.672 2418 694.432C2419.02 696.192 2419.53 698.368 2419.53 700.96C2419.53 703.552 2419.02 705.728 2418 707.488C2417.01 709.216 2415.71 710.528 2414.11 711.424C2412.51 712.32 2410.81 712.768 2409.02 712.768C2407.33 712.768 2405.84 712.4 2404.56 711.664C2403.31 710.896 2402.29 709.824 2401.49 708.448V722.56ZM2411.9 700.96C2411.9 699.232 2411.37 697.904 2410.32 696.976C2409.29 696.048 2408.06 695.584 2406.62 695.584C2405.82 695.584 2405.02 695.792 2404.22 696.208C2403.42 696.592 2402.77 697.184 2402.25 697.984C2401.74 698.752 2401.49 699.744 2401.49 700.96C2401.49 702.144 2401.74 703.136 2402.25 703.936C2402.77 704.736 2403.42 705.344 2404.22 705.76C2405.02 706.144 2405.82 706.336 2406.62 706.336C2408.06 706.336 2409.29 705.872 2410.32 704.944C2411.37 704.016 2411.9 702.688 2411.9 700.96ZM2431.06 722.56H2423.82V689.92H2431.06V693.472C2431.86 692.096 2432.89 691.04 2434.14 690.304C2435.42 689.536 2436.9 689.152 2438.6 689.152C2440.39 689.152 2442.09 689.6 2443.69 690.496C2445.29 691.36 2446.58 692.672 2447.58 694.432C2448.6 696.192 2449.11 698.368 2449.11 700.96C2449.11 703.552 2448.6 705.728 2447.58 707.488C2446.58 709.216 2445.29 710.528 2443.69 711.424C2442.09 712.32 2440.39 712.768 2438.6 712.768C2436.9 712.768 2435.42 712.4 2434.14 711.664C2432.89 710.896 2431.86 709.824 2431.06 708.448V722.56ZM2441.48 700.96C2441.48 699.232 2440.95 697.904 2439.9 696.976C2438.87 696.048 2437.64 695.584 2436.2 695.584C2435.4 695.584 2434.6 695.792 2433.8 696.208C2433 696.592 2432.34 697.184 2431.83 697.984C2431.32 698.752 2431.06 699.744 2431.06 700.96C2431.06 702.144 2431.32 703.136 2431.83 703.936C2432.34 704.736 2433 705.344 2433.8 705.76C2434.6 706.144 2435.4 706.336 2436.2 706.336C2437.64 706.336 2438.87 705.872 2439.9 704.944C2440.95 704.016 2441.48 702.688 2441.48 700.96ZM2450.85 689.92H2454.74V682.24H2461.75V689.92H2465.63V695.92H2461.75V712H2454.74V695.92H2450.85V689.92ZM2473.19 721.6H2466.56C2468.26 717.984 2469.55 714.176 2470.45 710.176C2471.38 706.176 2471.84 702.144 2471.84 698.08C2471.84 693.984 2471.38 689.936 2470.45 685.936C2469.55 681.936 2468.26 678.144 2466.56 674.56H2473.19C2475.11 678.144 2476.55 681.936 2477.51 685.936C2478.5 689.936 2478.99 693.984 2478.99 698.08C2478.99 702.144 2478.5 706.176 2477.51 710.176C2476.55 714.176 2475.11 717.984 2473.19 721.6Z" fill="white"/>
<path d="M619.736 917.4H627.56V952.68L604.376 932.136V951H596.552V915.72L619.736 936.264V917.4ZM632.599 939.96C632.599 937.624 633.143 935.592 634.23 933.864C635.351 932.136 636.855 930.792 638.743 929.832C640.663 928.872 642.823 928.392 645.223 928.392C647.655 928.392 649.815 928.872 651.703 929.832C653.591 930.792 655.079 932.136 656.167 933.864C657.287 935.592 657.847 937.624 657.847 939.96C657.847 942.264 657.287 944.28 656.167 946.008C655.079 947.736 653.591 949.08 651.703 950.04C649.815 951 647.655 951.48 645.223 951.48C642.823 951.48 640.663 951 638.743 950.04C636.855 949.08 635.351 947.736 634.23 946.008C633.143 944.28 632.599 942.264 632.599 939.96ZM640.087 939.96C640.087 941.656 640.583 943 641.575 943.992C642.599 944.984 643.815 945.48 645.223 945.48C646.631 945.48 647.831 944.984 648.823 943.992C649.847 943 650.359 941.656 650.359 939.96C650.359 938.264 649.847 936.92 648.823 935.928C647.831 934.904 646.631 934.392 645.223 934.392C643.815 934.392 642.599 934.904 641.575 935.928C640.583 936.92 640.087 938.264 640.087 939.96ZM682.647 939.96C682.647 941.72 683.223 943.112 684.375 944.136C685.527 945.16 686.919 945.672 688.551 945.672C689.863 945.672 691.111 945.4 692.295 944.856C693.479 944.28 694.391 943.464 695.031 942.408V949.464C694.263 950.072 693.303 950.568 692.151 950.952C690.999 951.304 689.591 951.48 687.927 951.48C685.463 951.48 683.271 951 681.351 950.04C679.431 949.08 677.911 947.736 676.791 946.008C675.703 944.28 675.159 942.264 675.159 939.96C675.159 937.624 675.703 935.608 676.791 933.912C677.911 932.184 679.431 930.84 681.351 929.88C683.271 928.92 685.463 928.44 687.927 928.44C689.591 928.44 690.999 928.632 692.151 929.016C693.303 929.368 694.263 929.816 695.031 930.36V937.464C694.391 936.408 693.447 935.608 692.199 935.064C690.951 934.52 689.735 934.248 688.551 934.248C687.463 934.248 686.471 934.504 685.575 935.016C684.679 935.496 683.959 936.168 683.415 937.032C682.903 937.896 682.647 938.872 682.647 939.96ZM702.623 935.688L700.175 930.84C701.455 930.232 702.959 929.656 704.687 929.112C706.447 928.568 708.367 928.296 710.447 928.296C712.399 928.296 714.143 928.584 715.679 929.16C717.215 929.704 718.431 930.504 719.327 931.56C720.223 932.616 720.671 933.912 720.671 935.448V951H713.711V947.976C713.039 949.128 712.031 950.008 710.687 950.616C709.375 951.192 707.951 951.48 706.415 951.48C705.007 951.48 703.695 951.224 702.479 950.712C701.295 950.168 700.335 949.368 699.599 948.312C698.895 947.256 698.543 945.976 698.543 944.472C698.543 942.36 699.279 940.696 700.751 939.48C702.255 938.232 704.399 937.608 707.183 937.608C708.527 937.608 709.759 937.752 710.879 938.04C711.999 938.296 712.943 938.616 713.711 939V937.08C713.711 934.904 712.319 933.816 709.535 933.816C708.575 933.816 707.615 933.928 706.655 934.152C705.695 934.376 704.847 934.648 704.111 934.968C703.407 935.256 702.911 935.496 702.623 935.688ZM705.887 944.088C705.887 944.952 706.175 945.624 706.751 946.104C707.359 946.552 708.111 946.776 709.007 946.776C710.191 946.776 711.247 946.424 712.175 945.72C713.103 944.984 713.615 943.896 713.711 942.456C712.399 941.88 710.975 941.592 709.439 941.592C708.159 941.592 707.247 941.816 706.703 942.264C706.159 942.68 705.887 943.288 705.887 944.088ZM727.298 942.984C728.994 944.392 730.434 945.352 731.618 945.864C732.834 946.344 733.826 946.584 734.594 946.584C736.034 946.584 736.754 946.008 736.754 944.856C736.754 944.152 736.418 943.592 735.746 943.176C735.074 942.728 733.842 942.216 732.05 941.64C731.026 941.288 730.034 940.84 729.074 940.296C728.114 939.752 727.33 939.032 726.722 938.136C726.114 937.24 725.81 936.088 725.81 934.68C725.81 932.664 726.594 931.128 728.162 930.072C729.73 928.984 731.698 928.44 734.066 928.44C735.954 928.44 737.682 928.76 739.25 929.4C740.818 930.008 742.242 930.776 743.522 931.704L740.93 936.456C740.034 935.592 738.978 934.872 737.762 934.296C736.578 933.72 735.49 933.432 734.498 933.432C733.858 933.432 733.362 933.56 733.01 933.816C732.69 934.072 732.53 934.408 732.53 934.824C732.53 935.56 732.962 936.104 733.826 936.456C734.722 936.808 735.986 937.304 737.618 937.944C738.77 938.36 739.826 938.84 740.786 939.384C741.746 939.928 742.514 940.616 743.09 941.448C743.698 942.28 744.002 943.384 744.002 944.76C744.002 947.096 743.282 948.872 741.842 950.088C740.402 951.304 738.354 951.912 735.698 951.912C733.298 951.912 731.17 951.528 729.314 950.76C727.458 949.96 725.778 948.968 724.274 947.784L727.298 942.984ZM759.268 951.48C756.676 951.48 754.436 951.016 752.548 950.088C750.692 949.128 749.252 947.784 748.228 946.056C747.204 944.328 746.692 942.296 746.692 939.96C746.692 936.376 747.796 933.56 750.004 931.512C752.212 929.464 755.252 928.44 759.124 928.44C762.932 928.44 765.86 929.416 767.908 931.368C769.988 933.32 771.028 936.072 771.028 939.624C771.028 939.976 771.028 940.312 771.028 940.632C771.028 940.952 771.012 941.24 770.98 941.496H754.132C754.324 943 754.852 944.168 755.716 945C756.58 945.832 757.716 946.248 759.124 946.248C761.684 946.248 763.508 945.288 764.596 943.368L771.124 944.952C768.788 949.304 764.836 951.48 759.268 951.48ZM758.98 933.288C756.356 933.288 754.772 934.68 754.228 937.464H763.252C763.124 936.184 762.676 935.176 761.908 934.44C761.172 933.672 760.196 933.288 758.98 933.288Z" fill="#D81159"/>
</svg>
