<svg width="716" height="379" viewBox="0 0 716 379" fill="none" xmlns="http://www.w3.org/2000/svg">
<line x1="602.706" y1="194.821" x2="91" y2="194.821" stroke="#EBC1D3" stroke-width="5"/>
<line x1="349.353" y1="41.0396" x2="349.353" y2="343.243" stroke="#EBC1D3" stroke-width="5"/>
<circle cx="160" cy="74" r="22.5" fill="#EBC1D3" stroke="#EBC1D3" stroke-width="5"/>
<circle cx="239" cy="133" r="22.5" fill="#EBC1D3" stroke="#EBC1D3" stroke-width="5"/>
<path d="M151.858 85.7427H168.098V82.0677H156.513V74.7527H165.333V71.2527H156.513V64.3927H167.503V60.7177H151.858V85.7427Z" fill="#218380"/>
<path d="M234.24 140.068V122.393H236.935C242.815 122.393 245.265 125.648 245.265 131.038V131.318C245.265 136.848 242.57 140.068 236.97 140.068H234.24ZM229.585 143.743H237.11C245.895 143.743 250.13 138.563 250.13 131.283V130.968C250.13 123.688 245.895 118.718 237.18 118.718H229.585V143.743Z" fill="#218380"/>
<circle cx="526" cy="153" r="22.5" fill="#EBC1D3" stroke="#EBC1D3" stroke-width="5"/>
<path d="M517.798 163.743H527.423C532.918 163.743 535.998 161.398 535.998 156.743V156.603C535.998 153.278 534.388 151.423 530.993 150.688C533.828 149.813 534.948 147.853 534.948 145.368V145.228C534.948 140.678 531.903 138.718 526.758 138.718H517.798V163.743ZM522.348 160.418V152.403H526.548C529.978 152.403 531.413 153.698 531.413 156.288V156.428C531.413 159.018 529.978 160.418 526.863 160.418H522.348ZM522.348 149.253V142.043H526.128C529.103 142.043 530.468 143.058 530.468 145.438V145.578C530.468 148.133 529.278 149.253 526.198 149.253H522.348Z" fill="#218380"/>
<circle cx="559" cy="82" r="22.5" fill="#EBC1D3" stroke="#EBC1D3" stroke-width="5"/>
<path d="M547.848 92.7427H552.223L554.183 86.5477H563.738L565.733 92.7427H570.563L562.303 67.7177H556.213L547.848 92.7427ZM558.978 71.5327L562.653 83.1527H555.268L558.978 71.5327Z" fill="#218380"/>
<circle cx="172" cy="291" r="22.5" fill="#EBC1D3" stroke="#EBC1D3" stroke-width="5"/>
<path d="M172.061 303.093C178.011 303.093 182.281 300.048 183.016 294.028H178.466C177.976 297.563 175.526 299.313 172.061 299.313C167.441 299.313 164.746 295.988 164.746 290.353V290.073C164.746 284.473 167.616 281.043 172.026 281.043C175.631 281.043 177.486 282.758 178.011 286.083H182.736C182.176 280.203 177.731 277.333 171.991 277.333C165.026 277.333 159.846 282.583 159.846 290.108V290.388C159.846 298.088 164.221 303.093 172.061 303.093Z" fill="#218380"/>
<circle cx="397" cy="112" r="22.5" fill="#EBC1D3" stroke="#EBC1D3" stroke-width="5"/>
<path d="M390.363 122.743H395.018V112.488H403.558V108.883H395.018V101.428H405.868V97.7177H390.363V122.743Z" fill="#218380"/>
<path d="M302.726 14H304.854V9.136H309.99V14H312.134V2.56H309.99V7.424H304.854V2.56H302.726V14ZM314.63 14H316.566V5.632H314.63V14ZM315.574 4.256C316.214 4.256 316.726 3.776 316.726 3.152C316.726 2.512 316.214 2.032 315.574 2.032C314.934 2.032 314.422 2.512 314.422 3.152C314.422 3.776 314.934 4.256 315.574 4.256ZM322.493 17.072C325.085 17.072 326.733 15.84 326.749 13.376V5.632H324.813V6.912C324.333 6.08 323.501 5.456 322.125 5.456C319.965 5.456 318.365 7.216 318.365 9.568V9.68C318.365 12.096 319.981 13.664 322.077 13.664C323.309 13.664 324.349 12.912 324.813 12.112V13.344C324.813 14.848 323.981 15.6 322.477 15.6C321.213 15.6 320.573 15.12 320.413 14.288H318.461C318.685 15.888 319.869 17.072 322.493 17.072ZM322.557 12.176C321.309 12.176 320.349 11.216 320.349 9.664V9.536C320.349 8.016 321.181 6.976 322.621 6.976C324.013 6.976 324.877 7.92 324.877 9.504V9.616C324.877 11.216 323.901 12.176 322.557 12.176ZM329.05 14H330.986V9.072C330.986 7.744 331.866 7.072 332.954 7.072C334.106 7.072 334.618 7.648 334.618 8.912V14H336.554V8.736C336.554 6.432 335.37 5.456 333.69 5.456C332.314 5.456 331.386 6.144 330.986 6.96V1.76H329.05V14ZM342.645 14H344.581V5.632H342.645V14ZM343.589 4.256C344.229 4.256 344.741 3.776 344.741 3.152C344.741 2.512 344.229 2.032 343.589 2.032C342.949 2.032 342.437 2.512 342.437 3.152C342.437 3.776 342.949 4.256 343.589 4.256ZM346.941 14H348.877V8.992C348.877 7.712 349.757 7.072 350.717 7.072C351.661 7.072 352.205 7.6 352.205 8.832V14H354.141V8.992C354.141 7.712 355.021 7.072 355.981 7.072C356.941 7.072 357.469 7.6 357.469 8.832V14H359.405V8.704C359.405 6.4 358.157 5.456 356.621 5.456C355.581 5.456 354.429 5.92 353.789 6.96C353.373 5.92 352.509 5.456 351.421 5.456C350.189 5.456 349.277 6.128 348.877 6.912V5.632H346.941V14ZM361.629 16.864H363.565V12.688C364.013 13.504 364.973 14.16 366.301 14.16C368.461 14.16 370.013 12.528 370.013 9.84V9.712C370.013 7.008 368.397 5.456 366.301 5.456C365.069 5.456 364.029 6.176 363.565 6.976V5.632H361.629V16.864ZM365.821 12.624C364.413 12.624 363.501 11.744 363.501 9.872V9.744C363.501 7.888 364.461 6.976 365.805 6.976C367.069 6.976 368.029 7.888 368.029 9.744V9.872C368.029 11.664 367.245 12.624 365.821 12.624ZM373.946 14.16C375.226 14.16 375.962 13.696 376.506 12.976V14H378.41V8.512C378.41 6.224 376.938 5.456 375.066 5.456C373.194 5.456 371.642 6.272 371.482 8.224H373.354C373.45 7.392 373.946 6.912 374.954 6.912C376.09 6.912 376.474 7.472 376.474 8.592V9.024H375.434C373.034 9.024 371.146 9.728 371.146 11.68C371.146 13.424 372.41 14.16 373.946 14.16ZM374.41 12.768C373.45 12.768 373.066 12.304 373.066 11.6C373.066 10.576 374.01 10.24 375.482 10.24H376.474V11.072C376.474 12.144 375.594 12.768 374.41 12.768ZM384.293 14.16C386.565 14.16 388.021 12.8 388.165 10.88H386.389C386.277 12.064 385.397 12.672 384.373 12.672C382.949 12.672 382.053 11.712 382.053 9.888V9.76C382.053 8.032 382.997 7.008 384.325 7.008C385.349 7.008 386.085 7.472 386.245 8.592H388.117C387.893 6.288 386.149 5.456 384.293 5.456C381.957 5.456 380.069 7.136 380.069 9.792V9.92C380.069 12.592 381.893 14.16 384.293 14.16ZM392.68 14.144C393.272 14.144 393.688 14.048 393.992 13.936V12.4C393.72 12.512 393.432 12.56 393.048 12.56C392.44 12.56 392.088 12.224 392.088 11.488V7.088H393.928V5.632H392.088V3.792H390.152V5.632H389.032V7.088H390.152V11.664C390.152 13.248 391.016 14.144 392.68 14.144Z" fill="#EBC1D3"/>
<path d="M305.218 376H312.226V374.304H307.346V364.56H305.218V376ZM317.459 374.656C315.987 374.656 315.139 373.584 315.139 371.872V371.744C315.139 370.016 316.019 368.976 317.459 368.976C318.899 368.976 319.763 370.032 319.763 371.76V371.872C319.763 373.584 318.899 374.656 317.459 374.656ZM317.443 376.16C319.907 376.16 321.747 374.464 321.747 371.856V371.728C321.747 369.168 319.907 367.456 317.459 367.456C314.995 367.456 313.155 369.184 313.155 371.776V371.904C313.155 374.448 314.979 376.16 317.443 376.16ZM324.989 376H326.973L328.669 370.368L330.221 376H332.189L334.813 367.632H332.925L331.181 373.68L329.549 367.632H327.933L326.157 373.68L324.493 367.632H322.429L324.989 376ZM340.153 376H342.089V367.632H340.153V376ZM341.097 366.256C341.737 366.256 342.249 365.776 342.249 365.152C342.249 364.512 341.737 364.032 341.097 364.032C340.457 364.032 339.945 364.512 339.945 365.152C339.945 365.776 340.457 366.256 341.097 366.256ZM344.449 376H346.385V370.992C346.385 369.712 347.265 369.072 348.225 369.072C349.169 369.072 349.713 369.6 349.713 370.832V376H351.649V370.992C351.649 369.712 352.529 369.072 353.489 369.072C354.449 369.072 354.977 369.6 354.977 370.832V376H356.913V370.704C356.913 368.4 355.665 367.456 354.129 367.456C353.089 367.456 351.937 367.92 351.297 368.96C350.881 367.92 350.017 367.456 348.929 367.456C347.697 367.456 346.785 368.128 346.385 368.912V367.632H344.449V376ZM359.136 378.864H361.072V374.688C361.52 375.504 362.48 376.16 363.808 376.16C365.968 376.16 367.52 374.528 367.52 371.84V371.712C367.52 369.008 365.904 367.456 363.808 367.456C362.576 367.456 361.536 368.176 361.072 368.976V367.632H359.136V378.864ZM363.328 374.624C361.92 374.624 361.008 373.744 361.008 371.872V371.744C361.008 369.888 361.968 368.976 363.312 368.976C364.576 368.976 365.536 369.888 365.536 371.744V371.872C365.536 373.664 364.752 374.624 363.328 374.624ZM371.453 376.16C372.733 376.16 373.469 375.696 374.013 374.976V376H375.917V370.512C375.917 368.224 374.445 367.456 372.573 367.456C370.701 367.456 369.149 368.272 368.989 370.224H370.861C370.957 369.392 371.453 368.912 372.461 368.912C373.597 368.912 373.981 369.472 373.981 370.592V371.024H372.941C370.541 371.024 368.653 371.728 368.653 373.68C368.653 375.424 369.917 376.16 371.453 376.16ZM371.917 374.768C370.957 374.768 370.573 374.304 370.573 373.6C370.573 372.576 371.517 372.24 372.989 372.24H373.981V373.072C373.981 374.144 373.101 374.768 371.917 374.768ZM381.8 376.16C384.072 376.16 385.528 374.8 385.672 372.88H383.896C383.784 374.064 382.904 374.672 381.88 374.672C380.456 374.672 379.56 373.712 379.56 371.888V371.76C379.56 370.032 380.504 369.008 381.832 369.008C382.856 369.008 383.592 369.472 383.752 370.592H385.624C385.4 368.288 383.656 367.456 381.8 367.456C379.464 367.456 377.576 369.136 377.576 371.792V371.92C377.576 374.592 379.4 376.16 381.8 376.16ZM390.188 376.144C390.78 376.144 391.196 376.048 391.5 375.936V374.4C391.228 374.512 390.94 374.56 390.556 374.56C389.948 374.56 389.596 374.224 389.596 373.488V369.088H391.436V367.632H389.596V365.792H387.66V367.632H386.54V369.088H387.66V373.664C387.66 375.248 388.524 376.144 390.188 376.144Z" fill="#EBC1D3"/>
<path d="M1.312 192H8.32V190.304H3.44V180.56H1.312V192ZM13.5523 190.656C12.0803 190.656 11.2323 189.584 11.2323 187.872V187.744C11.2323 186.016 12.1123 184.976 13.5523 184.976C14.9923 184.976 15.8563 186.032 15.8563 187.76V187.872C15.8563 189.584 14.9923 190.656 13.5523 190.656ZM13.5363 192.16C16.0003 192.16 17.8403 190.464 17.8403 187.856V187.728C17.8403 185.168 16.0003 183.456 13.5523 183.456C11.0883 183.456 9.24825 185.184 9.24825 187.776V187.904C9.24825 190.448 11.0723 192.16 13.5363 192.16ZM22.4375 192.144C23.0295 192.144 23.4455 192.048 23.7495 191.936V190.4C23.4775 190.512 23.1895 190.56 22.8055 190.56C22.1975 190.56 21.8455 190.224 21.8455 189.488V185.088H23.6855V183.632H21.8455V181.792H19.9095V183.632H18.7895V185.088H19.9095V189.664C19.9095 191.248 20.7735 192.144 22.4375 192.144ZM28.4379 192.16C30.5819 192.16 31.7819 191.184 31.7819 189.488C31.7819 187.712 30.6139 187.232 28.6459 186.928C27.3179 186.704 26.9179 186.464 26.9179 185.856C26.9179 185.264 27.4139 184.864 28.2459 184.864C29.1419 184.864 29.5739 185.216 29.7339 185.984H31.5259C31.3179 184.096 29.9579 183.456 28.2459 183.456C26.6779 183.456 25.1099 184.288 25.1099 185.968C25.1099 187.536 25.9259 188.16 28.1339 188.512C29.3659 188.72 29.9259 188.976 29.9259 189.664C29.9259 190.368 29.4619 190.736 28.4219 190.736C27.2859 190.736 26.8539 190.24 26.7579 189.392H24.9339C25.0139 191.168 26.2779 192.16 28.4379 192.16ZM41.0366 190.656C39.5646 190.656 38.7166 189.584 38.7166 187.872V187.744C38.7166 186.016 39.5966 184.976 41.0366 184.976C42.4766 184.976 43.3406 186.032 43.3406 187.76V187.872C43.3406 189.584 42.4766 190.656 41.0366 190.656ZM41.0206 192.16C43.4846 192.16 45.3246 190.464 45.3246 187.856V187.728C45.3246 185.168 43.4846 183.456 41.0366 183.456C38.5726 183.456 36.7326 185.184 36.7326 187.776V187.904C36.7326 190.448 38.5566 192.16 41.0206 192.16ZM47.4099 192H49.3459V185.088H51.2499V183.632H49.3459V182.432C49.3459 181.712 49.6659 181.2 50.4499 181.2C50.8019 181.2 51.1059 181.264 51.3299 181.344V179.84C50.9779 179.728 50.6899 179.68 50.2259 179.68C48.4339 179.68 47.4099 180.672 47.4099 182.512V183.632H46.2739V185.088H47.4099V192ZM4.816 210.16C7.088 210.16 8.544 208.8 8.688 206.88H6.912C6.8 208.064 5.92 208.672 4.896 208.672C3.472 208.672 2.576 207.712 2.576 205.888V205.76C2.576 204.032 3.52 203.008 4.848 203.008C5.872 203.008 6.608 203.472 6.768 204.592H8.64C8.416 202.288 6.672 201.456 4.816 201.456C2.48 201.456 0.592 203.136 0.592 205.792V205.92C0.592 208.592 2.416 210.16 4.816 210.16ZM14.0991 208.656C12.6271 208.656 11.7791 207.584 11.7791 205.872V205.744C11.7791 204.016 12.6591 202.976 14.0991 202.976C15.5391 202.976 16.4031 204.032 16.4031 205.76V205.872C16.4031 207.584 15.5391 208.656 14.0991 208.656ZM14.0831 210.16C16.5471 210.16 18.3871 208.464 18.3871 205.856V205.728C18.3871 203.168 16.5471 201.456 14.0991 201.456C11.6351 201.456 9.79513 203.184 9.79513 205.776V205.904C9.79513 208.448 11.6191 210.16 14.0831 210.16ZM20.1364 210H22.0724V205.072C22.0724 203.744 22.9524 203.072 24.0404 203.072C25.1924 203.072 25.7044 203.648 25.7044 204.912V210H27.6404V204.736C27.6404 202.432 26.4564 201.456 24.7764 201.456C23.4004 201.456 22.4724 202.144 22.0724 202.96V201.632H20.1364V210ZM32.7348 210.16C34.8788 210.16 36.0788 209.184 36.0788 207.488C36.0788 205.712 34.9108 205.232 32.9427 204.928C31.6148 204.704 31.2148 204.464 31.2148 203.856C31.2148 203.264 31.7108 202.864 32.5428 202.864C33.4388 202.864 33.8708 203.216 34.0308 203.984H35.8228C35.6148 202.096 34.2548 201.456 32.5428 201.456C30.9748 201.456 29.4068 202.288 29.4068 203.968C29.4068 205.536 30.2228 206.16 32.4308 206.512C33.6628 206.72 34.2228 206.976 34.2228 207.664C34.2228 208.368 33.7588 208.736 32.7188 208.736C31.5828 208.736 31.1508 208.24 31.0548 207.392H29.2308C29.3108 209.168 30.5748 210.16 32.7348 210.16ZM40.625 210.144C41.217 210.144 41.633 210.048 41.937 209.936V208.4C41.665 208.512 41.377 208.56 40.993 208.56C40.385 208.56 40.033 208.224 40.033 207.488V203.088H41.873V201.632H40.033V199.792H38.097V201.632H36.977V203.088H38.097V207.664C38.097 209.248 38.961 210.144 40.625 210.144ZM43.6833 210H45.6193V205.648C45.6193 203.872 46.6432 203.328 48.3393 203.312V201.504C46.9313 201.52 46.1473 202.144 45.6193 203.2V201.632H43.6833V210ZM52.0784 210.16C53.3584 210.16 54.0944 209.696 54.6384 208.976V210H56.5424V204.512C56.5424 202.224 55.0704 201.456 53.1984 201.456C51.3264 201.456 49.7744 202.272 49.6144 204.224H51.4864C51.5824 203.392 52.0784 202.912 53.0864 202.912C54.2224 202.912 54.6064 203.472 54.6064 204.592V205.024H53.5664C51.1664 205.024 49.2784 205.728 49.2784 207.68C49.2784 209.424 50.5424 210.16 52.0784 210.16ZM52.5424 208.768C51.5824 208.768 51.1984 208.304 51.1984 207.6C51.1984 206.576 52.1424 206.24 53.6144 206.24H54.6064V207.072C54.6064 208.144 53.7264 208.768 52.5424 208.768ZM58.8094 210H60.7454V201.632H58.8094V210ZM59.7534 200.256C60.3934 200.256 60.9054 199.776 60.9054 199.152C60.9054 198.512 60.3934 198.032 59.7534 198.032C59.1134 198.032 58.6014 198.512 58.6014 199.152C58.6014 199.776 59.1134 200.256 59.7534 200.256ZM63.1051 210H65.0411V205.072C65.0411 203.744 65.9211 203.072 67.0091 203.072C68.1611 203.072 68.6731 203.648 68.6731 204.912V210H70.6091V204.736C70.6091 202.432 69.4251 201.456 67.7451 201.456C66.3691 201.456 65.4411 202.144 65.0411 202.96V201.632H63.1051V210ZM75.6875 210.144C76.2795 210.144 76.6955 210.048 76.9995 209.936V208.4C76.7275 208.512 76.4395 208.56 76.0555 208.56C75.4475 208.56 75.0955 208.224 75.0955 207.488V203.088H76.9355V201.632H75.0955V199.792H73.1595V201.632H72.0395V203.088H73.1595V207.664C73.1595 209.248 74.0235 210.144 75.6875 210.144ZM81.6879 210.16C83.8319 210.16 85.0319 209.184 85.0319 207.488C85.0319 205.712 83.8639 205.232 81.8959 204.928C80.5679 204.704 80.1679 204.464 80.1679 203.856C80.1679 203.264 80.6639 202.864 81.4959 202.864C82.3919 202.864 82.8239 203.216 82.9839 203.984H84.7759C84.5679 202.096 83.2079 201.456 81.4959 201.456C79.9279 201.456 78.3599 202.288 78.3599 203.968C78.3599 205.536 79.1759 206.16 81.3839 206.512C82.6159 206.72 83.1759 206.976 83.1759 207.664C83.1759 208.368 82.7119 208.736 81.6719 208.736C80.5359 208.736 80.1039 208.24 80.0079 207.392H78.1839C78.2639 209.168 79.5279 210.16 81.6879 210.16Z" fill="#EBC1D3"/>
<path d="M618.312 191H625.32V189.304H620.44V179.56H618.312V191ZM630.552 189.656C629.08 189.656 628.232 188.584 628.232 186.872V186.744C628.232 185.016 629.112 183.976 630.552 183.976C631.992 183.976 632.856 185.032 632.856 186.76V186.872C632.856 188.584 631.992 189.656 630.552 189.656ZM630.536 191.16C633 191.16 634.84 189.464 634.84 186.856V186.728C634.84 184.168 633 182.456 630.552 182.456C628.088 182.456 626.248 184.184 626.248 186.776V186.904C626.248 189.448 628.072 191.16 630.536 191.16ZM639.438 191.144C640.03 191.144 640.446 191.048 640.75 190.936V189.4C640.478 189.512 640.19 189.56 639.806 189.56C639.198 189.56 638.846 189.224 638.846 188.488V184.088H640.686V182.632H638.846V180.792H636.91V182.632H635.79V184.088H636.91V188.664C636.91 190.248 637.774 191.144 639.438 191.144ZM645.438 191.16C647.582 191.16 648.782 190.184 648.782 188.488C648.782 186.712 647.614 186.232 645.646 185.928C644.318 185.704 643.918 185.464 643.918 184.856C643.918 184.264 644.414 183.864 645.246 183.864C646.142 183.864 646.574 184.216 646.734 184.984H648.526C648.318 183.096 646.958 182.456 645.246 182.456C643.678 182.456 642.11 183.288 642.11 184.968C642.11 186.536 642.926 187.16 645.134 187.512C646.366 187.72 646.926 187.976 646.926 188.664C646.926 189.368 646.462 189.736 645.422 189.736C644.286 189.736 643.854 189.24 643.758 188.392H641.934C642.014 190.168 643.278 191.16 645.438 191.16ZM658.037 189.656C656.565 189.656 655.717 188.584 655.717 186.872V186.744C655.717 185.016 656.597 183.976 658.037 183.976C659.477 183.976 660.341 185.032 660.341 186.76V186.872C660.341 188.584 659.477 189.656 658.037 189.656ZM658.021 191.16C660.485 191.16 662.325 189.464 662.325 186.856V186.728C662.325 184.168 660.485 182.456 658.037 182.456C655.573 182.456 653.733 184.184 653.733 186.776V186.904C653.733 189.448 655.557 191.16 658.021 191.16ZM664.41 191H666.346V184.088H668.25V182.632H666.346V181.432C666.346 180.712 666.666 180.2 667.45 180.2C667.802 180.2 668.106 180.264 668.33 180.344V178.84C667.978 178.728 667.69 178.68 667.226 178.68C665.434 178.68 664.41 179.672 664.41 181.512V182.632H663.274V184.088H664.41V191ZM621.896 207.656C620.424 207.656 619.576 206.584 619.576 204.872V204.744C619.576 203.016 620.456 201.976 621.896 201.976C623.336 201.976 624.2 203.032 624.2 204.76V204.872C624.2 206.584 623.336 207.656 621.896 207.656ZM621.88 209.16C624.344 209.16 626.184 207.464 626.184 204.856V204.728C626.184 202.168 624.344 200.456 621.896 200.456C619.432 200.456 617.592 202.184 617.592 204.776V204.904C617.592 207.448 619.416 209.16 621.88 209.16ZM627.933 211.864H629.869V207.688C630.317 208.504 631.277 209.16 632.605 209.16C634.765 209.16 636.317 207.528 636.317 204.84V204.712C636.317 202.008 634.701 200.456 632.605 200.456C631.373 200.456 630.333 201.176 629.869 201.976V200.632H627.933V211.864ZM632.125 207.624C630.717 207.624 629.805 206.744 629.805 204.872V204.744C629.805 202.888 630.765 201.976 632.109 201.976C633.373 201.976 634.333 202.888 634.333 204.744V204.872C634.333 206.664 633.549 207.624 632.125 207.624ZM638.058 211.864H639.994V207.688C640.442 208.504 641.402 209.16 642.73 209.16C644.89 209.16 646.442 207.528 646.442 204.84V204.712C646.442 202.008 644.826 200.456 642.73 200.456C641.498 200.456 640.458 201.176 639.994 201.976V200.632H638.058V211.864ZM642.25 207.624C640.842 207.624 639.93 206.744 639.93 204.872V204.744C639.93 202.888 640.89 201.976 642.234 201.976C643.498 201.976 644.458 202.888 644.458 204.744V204.872C644.458 206.664 643.674 207.624 642.25 207.624ZM651.927 207.656C650.455 207.656 649.607 206.584 649.607 204.872V204.744C649.607 203.016 650.487 201.976 651.927 201.976C653.367 201.976 654.231 203.032 654.231 204.76V204.872C654.231 206.584 653.367 207.656 651.927 207.656ZM651.911 209.16C654.375 209.16 656.215 207.464 656.215 204.856V204.728C656.215 202.168 654.375 200.456 651.927 200.456C649.463 200.456 647.623 202.184 647.623 204.776V204.904C647.623 207.448 649.447 209.16 651.911 209.16ZM657.965 209H659.901V204.648C659.901 202.872 660.924 202.328 662.621 202.312V200.504C661.213 200.52 660.429 201.144 659.901 202.2V200.632H657.965V209ZM667.25 209.144C667.842 209.144 668.258 209.048 668.562 208.936V207.4C668.29 207.512 668.002 207.56 667.618 207.56C667.01 207.56 666.658 207.224 666.658 206.488V202.088H668.498V200.632H666.658V198.792H664.722V200.632H663.602V202.088H664.722V206.664C664.722 208.248 665.586 209.144 667.25 209.144ZM673.108 209.16C674.468 209.16 675.348 208.504 675.764 207.688V209H677.7V200.632H675.764V205.608C675.764 206.936 674.852 207.608 673.812 207.608C672.692 207.608 672.164 207.032 672.164 205.768V200.632H670.228V205.992C670.228 208.216 671.46 209.16 673.108 209.16ZM679.996 209H681.932V204.072C681.932 202.744 682.812 202.072 683.9 202.072C685.052 202.072 685.564 202.648 685.564 203.912V209H687.5V203.736C687.5 201.432 686.316 200.456 684.636 200.456C683.26 200.456 682.332 201.144 681.932 201.96V200.632H679.996V209ZM689.778 209H691.714V200.632H689.778V209ZM690.722 199.256C691.362 199.256 691.874 198.776 691.874 198.152C691.874 197.512 691.362 197.032 690.722 197.032C690.082 197.032 689.57 197.512 689.57 198.152C689.57 198.776 690.082 199.256 690.722 199.256ZM696.922 209.144C697.514 209.144 697.93 209.048 698.234 208.936V207.4C697.962 207.512 697.674 207.56 697.29 207.56C696.682 207.56 696.33 207.224 696.33 206.488V202.088H698.17V200.632H696.33V198.792H694.394V200.632H693.274V202.088H694.394V206.664C694.394 208.248 695.258 209.144 696.922 209.144ZM700.908 211.864H702.812L707.372 200.632H705.484L703.436 206.024L701.212 200.632H699.116L702.428 208.152L700.908 211.864Z" fill="#EBC1D3"/>
</svg>
