<svg width="833" height="120" viewBox="0 0 833 120" fill="none" xmlns="http://www.w3.org/2000/svg">
<line x1="785" y1="27.5" x2="48" y2="27.5" stroke="#EBC1D3" stroke-width="5"/>
<path d="M14.2417 91H16.3697V86.376H17.7297L20.7217 91H23.0257L19.8097 86.056C21.2337 85.688 22.3537 84.776 22.3537 82.984V82.92C22.3537 80.584 20.5937 79.56 18.0817 79.56H14.2417V91ZM16.3697 84.856V81.208H18.0817C19.4417 81.208 20.2577 81.656 20.2577 82.968V83.032C20.2577 84.248 19.5057 84.856 18.0817 84.856H16.3697ZM27.9336 91.16C30.0776 91.16 31.5016 90.2 31.7736 88.44H29.9016C29.7576 89.256 29.1496 89.72 27.9816 89.72C26.5416 89.72 25.7416 88.824 25.6776 87.24H31.8056V86.68C31.8056 83.688 29.9336 82.456 27.8536 82.456C25.4696 82.456 23.6936 84.184 23.6936 86.776V86.904C23.6936 89.544 25.4696 91.16 27.9336 91.16ZM25.7096 85.944C25.9016 84.648 26.6856 83.864 27.8536 83.864C29.0536 83.864 29.7896 84.504 29.8856 85.944H25.7096ZM33.8708 91H35.8068V84.088H37.7108V82.632H35.8068V81.432C35.8068 80.712 36.1268 80.2 36.9108 80.2C37.2628 80.2 37.5668 80.264 37.7908 80.344V78.84C37.4388 78.728 37.1508 78.68 36.6868 78.68C34.8948 78.68 33.8708 79.672 33.8708 81.512V82.632H32.7348V84.088H33.8708V91ZM42.6992 91.16C44.8432 91.16 46.2672 90.2 46.5392 88.44H44.6672C44.5232 89.256 43.9152 89.72 42.7472 89.72C41.3072 89.72 40.5072 88.824 40.4432 87.24H46.5712V86.68C46.5712 83.688 44.6992 82.456 42.6192 82.456C40.2352 82.456 38.4592 84.184 38.4592 86.776V86.904C38.4592 89.544 40.2352 91.16 42.6992 91.16ZM40.4752 85.944C40.6672 84.648 41.4512 83.864 42.6192 83.864C43.8192 83.864 44.5552 84.504 44.6512 85.944H40.4752ZM48.3004 91H50.2364V86.648C50.2364 84.872 51.2604 84.328 52.9564 84.312V82.504C51.5484 82.52 50.7644 83.144 50.2364 84.2V82.632H48.3004V91ZM54.6598 91H56.5958V86.648C56.5958 84.872 57.6198 84.328 59.3158 84.312V82.504C57.9078 82.52 57.1238 83.144 56.5958 84.2V82.632H54.6598V91ZM61.0672 91H63.0032V82.632H61.0672V91ZM62.0112 81.256C62.6512 81.256 63.1632 80.776 63.1632 80.152C63.1632 79.512 62.6512 79.032 62.0112 79.032C61.3712 79.032 60.8592 79.512 60.8592 80.152C60.8592 80.776 61.3712 81.256 62.0112 81.256ZM65.3629 91H67.2989V86.072C67.2989 84.744 68.1789 84.072 69.2669 84.072C70.4189 84.072 70.9309 84.648 70.9309 85.912V91H72.8669V85.736C72.8669 83.432 71.6829 82.456 70.0029 82.456C68.6269 82.456 67.6989 83.144 67.2989 83.96V82.632H65.3629V91ZM78.6653 94.072C81.2573 94.072 82.9053 92.84 82.9213 90.376V82.632H80.9853V83.912C80.5053 83.08 79.6733 82.456 78.2973 82.456C76.1373 82.456 74.5373 84.216 74.5373 86.568V86.68C74.5373 89.096 76.1533 90.664 78.2493 90.664C79.4813 90.664 80.5213 89.912 80.9853 89.112V90.344C80.9853 91.848 80.1533 92.6 78.6493 92.6C77.3853 92.6 76.7453 92.12 76.5853 91.288H74.6333C74.8573 92.888 76.0413 94.072 78.6653 94.072ZM78.7293 89.176C77.4813 89.176 76.5213 88.216 76.5213 86.664V86.536C76.5213 85.016 77.3533 83.976 78.7933 83.976C80.1853 83.976 81.0493 84.92 81.0493 86.504V86.616C81.0493 88.216 80.0733 89.176 78.7293 89.176ZM27.9176 109.16C30.1896 109.16 31.6456 107.8 31.7896 105.88H30.0136C29.9016 107.064 29.0216 107.672 27.9976 107.672C26.5736 107.672 25.6776 106.712 25.6776 104.888V104.76C25.6776 103.032 26.6216 102.008 27.9496 102.008C28.9736 102.008 29.7096 102.472 29.8696 103.592H31.7416C31.5176 101.288 29.7736 100.456 27.9176 100.456C25.5816 100.456 23.6936 102.136 23.6936 104.792V104.92C23.6936 107.592 25.5176 109.16 27.9176 109.16ZM33.5047 109H35.4407V96.76H33.5047V109ZM37.8484 109H39.7844V100.632H37.8484V109ZM38.7924 99.256C39.4324 99.256 39.9444 98.776 39.9444 98.152C39.9444 97.512 39.4324 97.032 38.7924 97.032C38.1524 97.032 37.6404 97.512 37.6404 98.152C37.6404 98.776 38.1524 99.256 38.7924 99.256ZM45.8242 109.16C47.9682 109.16 49.3922 108.2 49.6642 106.44H47.7922C47.6482 107.256 47.0402 107.72 45.8722 107.72C44.4322 107.72 43.6322 106.824 43.5682 105.24H49.6962V104.68C49.6962 101.688 47.8242 100.456 45.7442 100.456C43.3602 100.456 41.5842 102.184 41.5842 104.776V104.904C41.5842 107.544 43.3602 109.16 45.8242 109.16ZM43.6002 103.944C43.7922 102.648 44.5762 101.864 45.7442 101.864C46.9442 101.864 47.6802 102.504 47.7762 103.944H43.6002ZM51.4254 109H53.3614V104.072C53.3614 102.744 54.2414 102.072 55.3294 102.072C56.4814 102.072 56.9934 102.648 56.9934 103.912V109H58.9294V103.736C58.9294 101.432 57.7454 100.456 56.0654 100.456C54.6894 100.456 53.7614 101.144 53.3614 101.96V100.632H51.4254V109ZM64.0078 109.144C64.5998 109.144 65.0158 109.048 65.3198 108.936V107.4C65.0478 107.512 64.7598 107.56 64.3758 107.56C63.7678 107.56 63.4158 107.224 63.4158 106.488V102.088H65.2558V100.632H63.4158V98.792H61.4798V100.632H60.3598V102.088H61.4798V106.664C61.4798 108.248 62.3438 109.144 64.0078 109.144ZM70.0082 109.16C72.1522 109.16 73.3522 108.184 73.3522 106.488C73.3522 104.712 72.1842 104.232 70.2162 103.928C68.8882 103.704 68.4882 103.464 68.4882 102.856C68.4882 102.264 68.9842 101.864 69.8162 101.864C70.7122 101.864 71.1442 102.216 71.3042 102.984H73.0962C72.8882 101.096 71.5282 100.456 69.8162 100.456C68.2482 100.456 66.6802 101.288 66.6802 102.968C66.6802 104.536 67.4962 105.16 69.7042 105.512C70.9362 105.72 71.4962 105.976 71.4962 106.664C71.4962 107.368 71.0322 107.736 69.9922 107.736C68.8562 107.736 68.4242 107.24 68.3282 106.392H66.5042C66.5842 108.168 67.8482 109.16 70.0082 109.16Z" fill="#EBC1D3"/>
<circle cx="48" cy="25" r="22.5" fill="#EBC1D3" stroke="#EBC1D3" stroke-width="5"/>
<path d="M36.6052 37H40.9802L42.9402 30.805H52.4952L54.4902 37H59.3202L51.0602 11.975H44.9702L36.6052 37ZM47.7352 15.79L51.4102 27.41H44.0252L47.7352 15.79Z" fill="#218380"/>
<circle cx="189" cy="25" r="22.5" fill="#EBC1D3" stroke="#EBC1D3" stroke-width="5"/>
<path d="M180.616 37H190.241C195.736 37 198.816 34.655 198.816 30V29.86C198.816 26.535 197.206 24.68 193.811 23.945C196.646 23.07 197.766 21.11 197.766 18.625V18.485C197.766 13.935 194.721 11.975 189.576 11.975H180.616V37ZM185.166 33.675V25.66H189.366C192.796 25.66 194.231 26.955 194.231 29.545V29.685C194.231 32.275 192.796 33.675 189.681 33.675H185.166ZM185.166 22.51V15.3H188.946C191.921 15.3 193.286 16.315 193.286 18.695V18.835C193.286 21.39 192.096 22.51 189.016 22.51H185.166Z" fill="#218380"/>
<circle cx="339" cy="25" r="22.5" fill="#EBC1D3" stroke="#EBC1D3" stroke-width="5"/>
<path d="M339.94 37.35C345.89 37.35 350.16 34.305 350.895 28.285H346.345C345.855 31.82 343.405 33.57 339.94 33.57C335.32 33.57 332.625 30.245 332.625 24.61V24.33C332.625 18.73 335.495 15.3 339.905 15.3C343.51 15.3 345.365 17.015 345.89 20.34H350.615C350.055 14.46 345.61 11.59 339.87 11.59C332.905 11.59 327.725 16.84 327.725 24.365V24.645C327.725 32.345 332.1 37.35 339.94 37.35Z" fill="#218380"/>
<circle cx="487" cy="25" r="22.5" fill="#EBC1D3" stroke="#EBC1D3" stroke-width="5"/>
<path d="M482.179 33.325V15.65H484.874C490.754 15.65 493.204 18.905 493.204 24.295V24.575C493.204 30.105 490.509 33.325 484.909 33.325H482.179ZM477.524 37H485.049C493.834 37 498.069 31.82 498.069 24.54V24.225C498.069 16.945 493.834 11.975 485.119 11.975H477.524V37Z" fill="#218380"/>
<circle cx="635" cy="25" r="22.5" fill="#EBC1D3" stroke="#EBC1D3" stroke-width="5"/>
<path d="M627.858 37H644.098V33.325H632.513V26.01H641.333V22.51H632.513V15.65H643.503V11.975H627.858V37Z" fill="#218380"/>
<circle cx="785" cy="25" r="22.5" fill="#EBC1D3" stroke="#EBC1D3" stroke-width="5"/>
<path d="M778.363 37H783.018V26.745H791.558V23.14H783.018V15.685H793.868V11.975H778.363V37Z" fill="#218380"/>
<path d="M147.742 91H152.142C154.654 91 156.062 89.928 156.062 87.8V87.736C156.062 86.216 155.326 85.368 153.774 85.032C155.07 84.632 155.582 83.736 155.582 82.6V82.536C155.582 80.456 154.19 79.56 151.838 79.56H147.742V91ZM149.822 89.48V85.816H151.742C153.31 85.816 153.966 86.408 153.966 87.592V87.656C153.966 88.84 153.31 89.48 151.886 89.48H149.822ZM149.822 84.376V81.08H151.55C152.91 81.08 153.534 81.544 153.534 82.632V82.696C153.534 83.864 152.99 84.376 151.582 84.376H149.822ZM161.638 89.656C160.166 89.656 159.318 88.584 159.318 86.872V86.744C159.318 85.016 160.198 83.976 161.638 83.976C163.078 83.976 163.942 85.032 163.942 86.76V86.872C163.942 88.584 163.078 89.656 161.638 89.656ZM161.622 91.16C164.086 91.16 165.926 89.464 165.926 86.856V86.728C165.926 84.168 164.086 82.456 161.638 82.456C159.174 82.456 157.334 84.184 157.334 86.776V86.904C157.334 89.448 159.158 91.16 161.622 91.16ZM171.419 89.656C169.947 89.656 169.099 88.584 169.099 86.872V86.744C169.099 85.016 169.979 83.976 171.419 83.976C172.859 83.976 173.723 85.032 173.723 86.76V86.872C173.723 88.584 172.859 89.656 171.419 89.656ZM171.403 91.16C173.867 91.16 175.707 89.464 175.707 86.856V86.728C175.707 84.168 173.867 82.456 171.419 82.456C168.955 82.456 167.115 84.184 167.115 86.776V86.904C167.115 89.448 168.939 91.16 171.403 91.16ZM177.457 91H179.393V86.888L182.529 91H184.769L181.249 86.472L184.497 82.632H182.385L179.393 86.312V78.76H177.457V91ZM186.145 91H188.081V82.632H186.145V91ZM187.089 81.256C187.729 81.256 188.241 80.776 188.241 80.152C188.241 79.512 187.729 79.032 187.089 79.032C186.449 79.032 185.937 79.512 185.937 80.152C185.937 80.776 186.449 81.256 187.089 81.256ZM190.441 91H192.377V86.072C192.377 84.744 193.257 84.072 194.345 84.072C195.497 84.072 196.009 84.648 196.009 85.912V91H197.945V85.736C197.945 83.432 196.761 82.456 195.081 82.456C193.705 82.456 192.777 83.144 192.377 83.96V82.632H190.441V91ZM203.743 94.072C206.335 94.072 207.983 92.84 207.999 90.376V82.632H206.063V83.912C205.583 83.08 204.751 82.456 203.375 82.456C201.215 82.456 199.615 84.216 199.615 86.568V86.68C199.615 89.096 201.231 90.664 203.327 90.664C204.559 90.664 205.599 89.912 206.063 89.112V90.344C206.063 91.848 205.231 92.6 203.727 92.6C202.463 92.6 201.823 92.12 201.663 91.288H199.711C199.935 92.888 201.119 94.072 203.743 94.072ZM203.807 89.176C202.559 89.176 201.599 88.216 201.599 86.664V86.536C201.599 85.016 202.431 83.976 203.871 83.976C205.263 83.976 206.127 84.92 206.127 86.504V86.616C206.127 88.216 205.151 89.176 203.807 89.176ZM216.305 91.16C217.585 91.16 218.321 90.696 218.865 89.976V91H220.769V85.512C220.769 83.224 219.297 82.456 217.425 82.456C215.553 82.456 214.001 83.272 213.841 85.224H215.713C215.809 84.392 216.305 83.912 217.313 83.912C218.449 83.912 218.833 84.472 218.833 85.592V86.024H217.793C215.393 86.024 213.505 86.728 213.505 88.68C213.505 90.424 214.769 91.16 216.305 91.16ZM216.769 89.768C215.809 89.768 215.425 89.304 215.425 88.6C215.425 87.576 216.369 87.24 217.841 87.24H218.833V88.072C218.833 89.144 217.953 89.768 216.769 89.768ZM222.988 91H224.924V86.072C224.924 84.744 225.804 84.072 226.892 84.072C228.044 84.072 228.556 84.648 228.556 85.912V91H230.492V85.736C230.492 83.432 229.308 82.456 227.628 82.456C226.252 82.456 225.324 83.144 224.924 83.96V82.632H222.988V91ZM143.094 109.16C144.374 109.16 145.11 108.696 145.654 107.976V109H147.558V103.512C147.558 101.224 146.086 100.456 144.214 100.456C142.342 100.456 140.79 101.272 140.63 103.224H142.502C142.598 102.392 143.094 101.912 144.102 101.912C145.238 101.912 145.622 102.472 145.622 103.592V104.024H144.582C142.182 104.024 140.294 104.728 140.294 106.68C140.294 108.424 141.558 109.16 143.094 109.16ZM143.558 107.768C142.598 107.768 142.214 107.304 142.214 106.6C142.214 105.576 143.158 105.24 144.63 105.24H145.622V106.072C145.622 107.144 144.742 107.768 143.558 107.768ZM149.777 111.864H151.713V107.688C152.161 108.504 153.121 109.16 154.449 109.16C156.609 109.16 158.161 107.528 158.161 104.84V104.712C158.161 102.008 156.545 100.456 154.449 100.456C153.217 100.456 152.177 101.176 151.713 101.976V100.632H149.777V111.864ZM153.969 107.624C152.561 107.624 151.649 106.744 151.649 104.872V104.744C151.649 102.888 152.609 101.976 153.953 101.976C155.217 101.976 156.177 102.888 156.177 104.744V104.872C156.177 106.664 155.393 107.624 153.969 107.624ZM159.902 111.864H161.838V107.688C162.286 108.504 163.246 109.16 164.574 109.16C166.734 109.16 168.286 107.528 168.286 104.84V104.712C168.286 102.008 166.67 100.456 164.574 100.456C163.342 100.456 162.302 101.176 161.838 101.976V100.632H159.902V111.864ZM164.094 107.624C162.686 107.624 161.774 106.744 161.774 104.872V104.744C161.774 102.888 162.734 101.976 164.078 101.976C165.342 101.976 166.302 102.888 166.302 104.744V104.872C166.302 106.664 165.518 107.624 164.094 107.624ZM173.771 107.656C172.299 107.656 171.451 106.584 171.451 104.872V104.744C171.451 103.016 172.331 101.976 173.771 101.976C175.211 101.976 176.075 103.032 176.075 104.76V104.872C176.075 106.584 175.211 107.656 173.771 107.656ZM173.755 109.16C176.219 109.16 178.059 107.464 178.059 104.856V104.728C178.059 102.168 176.219 100.456 173.771 100.456C171.307 100.456 169.467 102.184 169.467 104.776V104.904C169.467 107.448 171.291 109.16 173.755 109.16ZM179.856 109H181.792V100.632H179.856V109ZM180.8 99.256C181.44 99.256 181.952 98.776 181.952 98.152C181.952 97.512 181.44 97.032 180.8 97.032C180.16 97.032 179.648 97.512 179.648 98.152C179.648 98.776 180.16 99.256 180.8 99.256ZM184.152 109H186.088V104.072C186.088 102.744 186.968 102.072 188.056 102.072C189.208 102.072 189.72 102.648 189.72 103.912V109H191.656V103.736C191.656 101.432 190.472 100.456 188.792 100.456C187.416 100.456 186.488 101.144 186.088 101.96V100.632H184.152V109ZM196.734 109.144C197.326 109.144 197.742 109.048 198.046 108.936V107.4C197.774 107.512 197.486 107.56 197.102 107.56C196.494 107.56 196.142 107.224 196.142 106.488V102.088H197.982V100.632H196.142V98.792H194.206V100.632H193.086V102.088H194.206V106.664C194.206 108.248 195.07 109.144 196.734 109.144ZM199.793 109H201.729V103.992C201.729 102.712 202.609 102.072 203.569 102.072C204.513 102.072 205.057 102.6 205.057 103.832V109H206.993V103.992C206.993 102.712 207.873 102.072 208.833 102.072C209.793 102.072 210.321 102.6 210.321 103.832V109H212.257V103.704C212.257 101.4 211.009 100.456 209.473 100.456C208.433 100.456 207.281 100.92 206.641 101.96C206.225 100.92 205.361 100.456 204.273 100.456C203.041 100.456 202.129 101.128 201.729 101.912V100.632H199.793V109ZM218.16 109.16C220.304 109.16 221.728 108.2 222 106.44H220.128C219.984 107.256 219.376 107.72 218.208 107.72C216.768 107.72 215.968 106.824 215.904 105.24H222.032V104.68C222.032 101.688 220.16 100.456 218.08 100.456C215.696 100.456 213.92 102.184 213.92 104.776V104.904C213.92 107.544 215.696 109.16 218.16 109.16ZM215.936 103.944C216.128 102.648 216.912 101.864 218.08 101.864C219.28 101.864 220.016 102.504 220.112 103.944H215.936ZM223.761 109H225.697V104.072C225.697 102.744 226.577 102.072 227.665 102.072C228.817 102.072 229.329 102.648 229.329 103.912V109H231.265V103.736C231.265 101.432 230.081 100.456 228.401 100.456C227.025 100.456 226.097 101.144 225.697 101.96V100.632H223.761V109ZM236.344 109.144C236.936 109.144 237.352 109.048 237.656 108.936V107.4C237.384 107.512 237.096 107.56 236.712 107.56C236.104 107.56 235.752 107.224 235.752 106.488V102.088H237.592V100.632H235.752V98.792H233.816V100.632H232.696V102.088H233.816V106.664C233.816 108.248 234.68 109.144 236.344 109.144Z" fill="#EBC1D3"/>
<path d="M290.532 91H292.676V79.56H290.532V91ZM295.215 91H297.151V86.072C297.151 84.744 298.031 84.072 299.119 84.072C300.271 84.072 300.783 84.648 300.783 85.912V91H302.719V85.736C302.719 83.432 301.535 82.456 299.855 82.456C298.479 82.456 297.551 83.144 297.151 83.96V82.632H295.215V91ZM307.797 91.144C308.389 91.144 308.805 91.048 309.109 90.936V89.4C308.837 89.512 308.549 89.56 308.165 89.56C307.557 89.56 307.205 89.224 307.205 88.488V84.088H309.045V82.632H307.205V80.792H305.269V82.632H304.149V84.088H305.269V88.664C305.269 90.248 306.133 91.144 307.797 91.144ZM314.535 91.16C316.679 91.16 318.103 90.2 318.375 88.44H316.503C316.359 89.256 315.751 89.72 314.583 89.72C313.143 89.72 312.343 88.824 312.279 87.24H318.407V86.68C318.407 83.688 316.535 82.456 314.455 82.456C312.071 82.456 310.295 84.184 310.295 86.776V86.904C310.295 89.544 312.071 91.16 314.535 91.16ZM312.311 85.944C312.503 84.648 313.287 83.864 314.455 83.864C315.655 83.864 316.391 84.504 316.487 85.944H312.311ZM320.136 91H322.072V86.648C322.072 84.872 323.096 84.328 324.792 84.312V82.504C323.384 82.52 322.6 83.144 322.072 84.2V82.632H320.136V91ZM328.766 91H331.022L334.046 82.632H332.142L329.982 89.016L327.79 82.632H325.71L328.766 91ZM335.528 91H337.464V82.632H335.528V91ZM336.472 81.256C337.112 81.256 337.624 80.776 337.624 80.152C337.624 79.512 337.112 79.032 336.472 79.032C335.832 79.032 335.32 79.512 335.32 80.152C335.32 80.776 335.832 81.256 336.472 81.256ZM343.504 91.16C345.648 91.16 347.072 90.2 347.344 88.44H345.472C345.328 89.256 344.72 89.72 343.552 89.72C342.112 89.72 341.312 88.824 341.248 87.24H347.376V86.68C347.376 83.688 345.504 82.456 343.424 82.456C341.04 82.456 339.264 84.184 339.264 86.776V86.904C339.264 89.544 341.04 91.16 343.504 91.16ZM341.28 85.944C341.472 84.648 342.256 83.864 343.424 83.864C344.624 83.864 345.36 84.504 345.456 85.944H341.28ZM350.677 91H352.661L354.357 85.368L355.909 91H357.877L360.501 82.632H358.613L356.869 88.68L355.237 82.632H353.621L351.845 88.68L350.181 82.632H348.117L350.677 91ZM362.028 91H363.964V82.632H362.028V91ZM362.972 81.256C363.612 81.256 364.124 80.776 364.124 80.152C364.124 79.512 363.612 79.032 362.972 79.032C362.332 79.032 361.82 79.512 361.82 80.152C361.82 80.776 362.332 81.256 362.972 81.256ZM366.324 91H368.26V86.072C368.26 84.744 369.14 84.072 370.228 84.072C371.38 84.072 371.892 84.648 371.892 85.912V91H373.828V85.736C373.828 83.432 372.644 82.456 370.964 82.456C369.588 82.456 368.66 83.144 368.26 83.96V82.632H366.324V91ZM379.626 94.072C382.218 94.072 383.866 92.84 383.882 90.376V82.632H381.946V83.912C381.466 83.08 380.634 82.456 379.258 82.456C377.098 82.456 375.498 84.216 375.498 86.568V86.68C375.498 89.096 377.114 90.664 379.21 90.664C380.442 90.664 381.482 89.912 381.946 89.112V90.344C381.946 91.848 381.114 92.6 379.61 92.6C378.346 92.6 377.706 92.12 377.546 91.288H375.594C375.818 92.888 377.002 94.072 379.626 94.072ZM379.69 89.176C378.442 89.176 377.482 88.216 377.482 86.664V86.536C377.482 85.016 378.314 83.976 379.754 83.976C381.146 83.976 382.01 84.92 382.01 86.504V86.616C382.01 88.216 381.034 89.176 379.69 89.176ZM307.227 109.144C307.819 109.144 308.235 109.048 308.539 108.936V107.4C308.267 107.512 307.979 107.56 307.595 107.56C306.987 107.56 306.635 107.224 306.635 106.488V102.088H308.475V100.632H306.635V98.792H304.699V100.632H303.579V102.088H304.699V106.664C304.699 108.248 305.563 109.144 307.227 109.144ZM310.285 109H312.221V104.072C312.221 102.744 313.101 102.072 314.189 102.072C315.341 102.072 315.853 102.648 315.853 103.912V109H317.789V103.736C317.789 101.432 316.605 100.456 314.925 100.456C313.549 100.456 312.621 101.144 312.221 101.96V96.76H310.285V109ZM323.699 109.16C325.843 109.16 327.267 108.2 327.539 106.44H325.667C325.523 107.256 324.915 107.72 323.747 107.72C322.307 107.72 321.507 106.824 321.443 105.24H327.571V104.68C327.571 101.688 325.699 100.456 323.619 100.456C321.235 100.456 319.459 102.184 319.459 104.776V104.904C319.459 107.544 321.235 109.16 323.699 109.16ZM321.475 103.944C321.667 102.648 322.451 101.864 323.619 101.864C324.819 101.864 325.555 102.504 325.651 103.944H321.475ZM336.777 109.16C339.049 109.16 340.505 107.8 340.649 105.88H338.873C338.761 107.064 337.881 107.672 336.857 107.672C335.433 107.672 334.537 106.712 334.537 104.888V104.76C334.537 103.032 335.481 102.008 336.809 102.008C337.833 102.008 338.569 102.472 338.729 103.592H340.601C340.377 101.288 338.633 100.456 336.777 100.456C334.441 100.456 332.553 102.136 332.553 104.792V104.92C332.553 107.592 334.377 109.16 336.777 109.16ZM342.364 109H344.3V96.76H342.364V109ZM346.708 109H348.644V100.632H346.708V109ZM347.652 99.256C348.292 99.256 348.804 98.776 348.804 98.152C348.804 97.512 348.292 97.032 347.652 97.032C347.012 97.032 346.5 97.512 346.5 98.152C346.5 98.776 347.012 99.256 347.652 99.256ZM354.684 109.16C356.828 109.16 358.252 108.2 358.524 106.44H356.652C356.508 107.256 355.9 107.72 354.732 107.72C353.292 107.72 352.492 106.824 352.428 105.24H358.556V104.68C358.556 101.688 356.684 100.456 354.604 100.456C352.22 100.456 350.444 102.184 350.444 104.776V104.904C350.444 107.544 352.22 109.16 354.684 109.16ZM352.46 103.944C352.652 102.648 353.436 101.864 354.604 101.864C355.804 101.864 356.54 102.504 356.636 103.944H352.46ZM360.285 109H362.221V104.072C362.221 102.744 363.101 102.072 364.189 102.072C365.341 102.072 365.853 102.648 365.853 103.912V109H367.789V103.736C367.789 101.432 366.605 100.456 364.925 100.456C363.549 100.456 362.621 101.144 362.221 101.96V100.632H360.285V109ZM372.867 109.144C373.459 109.144 373.875 109.048 374.179 108.936V107.4C373.907 107.512 373.619 107.56 373.235 107.56C372.627 107.56 372.275 107.224 372.275 106.488V102.088H374.115V100.632H372.275V98.792H370.339V100.632H369.219V102.088H370.339V106.664C370.339 108.248 371.203 109.144 372.867 109.144Z" fill="#EBC1D3"/>
<path d="M448.828 91H450.956V86.376H452.316L455.308 91H457.612L454.396 86.056C455.82 85.688 456.94 84.776 456.94 82.984V82.92C456.94 80.584 455.18 79.56 452.668 79.56H448.828V91ZM450.956 84.856V81.208H452.668C454.028 81.208 454.844 81.656 454.844 82.968V83.032C454.844 84.248 454.092 84.856 452.668 84.856H450.956ZM462.52 91.16C464.664 91.16 466.088 90.2 466.36 88.44H464.488C464.344 89.256 463.736 89.72 462.568 89.72C461.128 89.72 460.328 88.824 460.264 87.24H466.392V86.68C466.392 83.688 464.52 82.456 462.44 82.456C460.056 82.456 458.28 84.184 458.28 86.776V86.904C458.28 89.544 460.056 91.16 462.52 91.16ZM460.296 85.944C460.488 84.648 461.272 83.864 462.44 83.864C463.64 83.864 464.376 84.504 464.472 85.944H460.296ZM471.785 91.16C474.057 91.16 475.513 89.8 475.657 87.88H473.881C473.769 89.064 472.889 89.672 471.865 89.672C470.441 89.672 469.545 88.712 469.545 86.888V86.76C469.545 85.032 470.489 84.008 471.817 84.008C472.841 84.008 473.577 84.472 473.737 85.592H475.609C475.385 83.288 473.641 82.456 471.785 82.456C469.449 82.456 467.561 84.136 467.561 86.792V86.92C467.561 89.592 469.385 91.16 471.785 91.16ZM481.068 89.656C479.596 89.656 478.748 88.584 478.748 86.872V86.744C478.748 85.016 479.628 83.976 481.068 83.976C482.508 83.976 483.372 85.032 483.372 86.76V86.872C483.372 88.584 482.508 89.656 481.068 89.656ZM481.052 91.16C483.516 91.16 485.356 89.464 485.356 86.856V86.728C485.356 84.168 483.516 82.456 481.068 82.456C478.604 82.456 476.764 84.184 476.764 86.776V86.904C476.764 89.448 478.588 91.16 481.052 91.16ZM487.105 91H489.041V86.648C489.041 84.872 490.065 84.328 491.761 84.312V82.504C490.353 82.52 489.569 83.144 489.041 84.2V82.632H487.105V91ZM496.444 91.16C497.676 91.16 498.748 90.424 499.196 89.592V91H501.132V78.76H499.196V83.912C498.732 83.08 497.884 82.456 496.524 82.456C494.348 82.456 492.764 84.152 492.764 86.824V86.952C492.764 89.672 494.348 91.16 496.444 91.16ZM496.924 89.624C495.676 89.624 494.748 88.744 494.748 86.904V86.776C494.748 84.968 495.58 83.976 497.004 83.976C498.412 83.976 499.26 84.888 499.26 86.728V86.856C499.26 88.728 498.268 89.624 496.924 89.624ZM503.481 91H505.417V82.632H503.481V91ZM504.425 81.256C505.065 81.256 505.577 80.776 505.577 80.152C505.577 79.512 505.065 79.032 504.425 79.032C503.785 79.032 503.273 79.512 503.273 80.152C503.273 80.776 503.785 81.256 504.425 81.256ZM507.777 91H509.713V86.072C509.713 84.744 510.593 84.072 511.681 84.072C512.833 84.072 513.345 84.648 513.345 85.912V91H515.281V85.736C515.281 83.432 514.097 82.456 512.417 82.456C511.041 82.456 510.113 83.144 509.713 83.96V82.632H507.777V91ZM521.079 94.072C523.671 94.072 525.319 92.84 525.335 90.376V82.632H523.399V83.912C522.919 83.08 522.087 82.456 520.711 82.456C518.551 82.456 516.951 84.216 516.951 86.568V86.68C516.951 89.096 518.567 90.664 520.663 90.664C521.895 90.664 522.935 89.912 523.399 89.112V90.344C523.399 91.848 522.567 92.6 521.063 92.6C519.799 92.6 519.159 92.12 518.999 91.288H517.047C517.271 92.888 518.455 94.072 521.079 94.072ZM521.143 89.176C519.895 89.176 518.935 88.216 518.935 86.664V86.536C518.935 85.016 519.767 83.976 521.207 83.976C522.599 83.976 523.463 84.92 523.463 86.504V86.616C523.463 88.216 522.487 89.176 521.143 89.176ZM443.684 109H445.62V100.632H443.684V109ZM444.628 99.256C445.268 99.256 445.78 98.776 445.78 98.152C445.78 97.512 445.268 97.032 444.628 97.032C443.988 97.032 443.476 97.512 443.476 98.152C443.476 98.776 443.988 99.256 444.628 99.256ZM447.98 109H449.916V104.072C449.916 102.744 450.796 102.072 451.884 102.072C453.036 102.072 453.548 102.648 453.548 103.912V109H455.484V103.736C455.484 101.432 454.3 100.456 452.62 100.456C451.244 100.456 450.316 101.144 449.916 101.96V100.632H447.98V109ZM458.051 109H459.987V102.088H461.891V100.632H459.987V99.432C459.987 98.712 460.307 98.2 461.091 98.2C461.443 98.2 461.747 98.264 461.971 98.344V96.84C461.619 96.728 461.331 96.68 460.867 96.68C459.075 96.68 458.051 97.672 458.051 99.512V100.632H456.915V102.088H458.051V109ZM466.943 107.656C465.471 107.656 464.623 106.584 464.623 104.872V104.744C464.623 103.016 465.503 101.976 466.943 101.976C468.383 101.976 469.247 103.032 469.247 104.76V104.872C469.247 106.584 468.383 107.656 466.943 107.656ZM466.927 109.16C469.391 109.16 471.231 107.464 471.231 104.856V104.728C471.231 102.168 469.391 100.456 466.943 100.456C464.479 100.456 462.639 102.184 462.639 104.776V104.904C462.639 107.448 464.463 109.16 466.927 109.16ZM472.98 109H474.916V104.648C474.916 102.872 475.94 102.328 477.636 102.312V100.504C476.228 100.52 475.444 101.144 474.916 102.2V100.632H472.98V109ZM479.34 109H481.276V103.992C481.276 102.712 482.156 102.072 483.116 102.072C484.06 102.072 484.604 102.6 484.604 103.832V109H486.54V103.992C486.54 102.712 487.42 102.072 488.38 102.072C489.34 102.072 489.868 102.6 489.868 103.832V109H491.804V103.704C491.804 101.4 490.556 100.456 489.02 100.456C487.98 100.456 486.828 100.92 486.188 101.96C485.772 100.92 484.908 100.456 483.82 100.456C482.588 100.456 481.676 101.128 481.276 101.912V100.632H479.34V109ZM496.219 109.16C497.499 109.16 498.235 108.696 498.779 107.976V109H500.683V103.512C500.683 101.224 499.211 100.456 497.339 100.456C495.467 100.456 493.915 101.272 493.755 103.224H495.627C495.723 102.392 496.219 101.912 497.227 101.912C498.363 101.912 498.747 102.472 498.747 103.592V104.024H497.707C495.307 104.024 493.419 104.728 493.419 106.68C493.419 108.424 494.683 109.16 496.219 109.16ZM496.683 107.768C495.723 107.768 495.339 107.304 495.339 106.6C495.339 105.576 496.283 105.24 497.755 105.24H498.747V106.072C498.747 107.144 497.867 107.768 496.683 107.768ZM505.75 109.144C506.342 109.144 506.758 109.048 507.062 108.936V107.4C506.79 107.512 506.502 107.56 506.118 107.56C505.51 107.56 505.158 107.224 505.158 106.488V102.088H506.998V100.632H505.158V98.792H503.222V100.632H502.102V102.088H503.222V106.664C503.222 108.248 504.086 109.144 505.75 109.144ZM508.856 109H510.792V100.632H508.856V109ZM509.8 99.256C510.44 99.256 510.952 98.776 510.952 98.152C510.952 97.512 510.44 97.032 509.8 97.032C509.16 97.032 508.648 97.512 508.648 98.152C508.648 98.776 509.16 99.256 509.8 99.256ZM516.896 107.656C515.424 107.656 514.576 106.584 514.576 104.872V104.744C514.576 103.016 515.456 101.976 516.896 101.976C518.336 101.976 519.2 103.032 519.2 104.76V104.872C519.2 106.584 518.336 107.656 516.896 107.656ZM516.88 109.16C519.344 109.16 521.184 107.464 521.184 104.856V104.728C521.184 102.168 519.344 100.456 516.896 100.456C514.432 100.456 512.592 102.184 512.592 104.776V104.904C512.592 107.448 514.416 109.16 516.88 109.16ZM522.933 109H524.869V104.072C524.869 102.744 525.749 102.072 526.837 102.072C527.989 102.072 528.501 102.648 528.501 103.912V109H530.437V103.736C530.437 101.432 529.253 100.456 527.573 100.456C526.197 100.456 525.269 101.144 524.869 101.96V100.632H522.933V109Z" fill="#EBC1D3"/>
<path d="M601.833 91.16C604.361 91.16 606.041 89.608 606.041 87.624C606.041 85.336 604.649 84.568 601.961 84.2C599.977 83.912 599.593 83.448 599.593 82.52C599.593 81.64 600.265 81.016 601.561 81.016C602.873 81.016 603.561 81.528 603.769 82.728H605.721C605.497 80.536 604.025 79.416 601.561 79.416C599.177 79.416 597.577 80.824 597.577 82.696C597.577 84.84 598.873 85.672 601.609 86.04C603.465 86.344 603.993 86.744 603.993 87.8C603.993 88.856 603.097 89.56 601.833 89.56C599.897 89.56 599.433 88.6 599.289 87.448H597.241C597.401 89.608 598.713 91.16 601.833 91.16ZM611.621 91.16C613.765 91.16 615.189 90.2 615.461 88.44H613.589C613.445 89.256 612.837 89.72 611.669 89.72C610.229 89.72 609.429 88.824 609.365 87.24H615.493V86.68C615.493 83.688 613.621 82.456 611.541 82.456C609.157 82.456 607.381 84.184 607.381 86.776V86.904C607.381 89.544 609.157 91.16 611.621 91.16ZM609.397 85.944C609.589 84.648 610.373 83.864 611.541 83.864C612.741 83.864 613.477 84.504 613.573 85.944H609.397ZM619.492 91.16C620.772 91.16 621.508 90.696 622.052 89.976V91H623.956V85.512C623.956 83.224 622.484 82.456 620.612 82.456C618.74 82.456 617.188 83.272 617.028 85.224H618.9C618.996 84.392 619.492 83.912 620.5 83.912C621.636 83.912 622.02 84.472 622.02 85.592V86.024H620.98C618.58 86.024 616.692 86.728 616.692 88.68C616.692 90.424 617.956 91.16 619.492 91.16ZM619.956 89.768C618.996 89.768 618.612 89.304 618.612 88.6C618.612 87.576 619.556 87.24 621.028 87.24H622.02V88.072C622.02 89.144 621.14 89.768 619.956 89.768ZM626.175 91H628.111V86.648C628.111 84.872 629.135 84.328 630.831 84.312V82.504C629.423 82.52 628.639 83.144 628.111 84.2V82.632H626.175V91ZM636.043 91.16C638.315 91.16 639.771 89.8 639.915 87.88H638.139C638.027 89.064 637.147 89.672 636.123 89.672C634.699 89.672 633.803 88.712 633.803 86.888V86.76C633.803 85.032 634.747 84.008 636.075 84.008C637.099 84.008 637.835 84.472 637.995 85.592H639.867C639.643 83.288 637.899 82.456 636.043 82.456C633.707 82.456 631.819 84.136 631.819 86.792V86.92C631.819 89.592 633.643 91.16 636.043 91.16ZM641.582 91H643.518V86.072C643.518 84.744 644.398 84.072 645.486 84.072C646.638 84.072 647.15 84.648 647.15 85.912V91H649.086V85.736C649.086 83.432 647.902 82.456 646.222 82.456C644.846 82.456 643.918 83.144 643.518 83.96V78.76H641.582V91ZM651.364 91H653.3V82.632H651.364V91ZM652.308 81.256C652.948 81.256 653.46 80.776 653.46 80.152C653.46 79.512 652.948 79.032 652.308 79.032C651.668 79.032 651.156 79.512 651.156 80.152C651.156 80.776 651.668 81.256 652.308 81.256ZM655.66 91H657.596V86.072C657.596 84.744 658.476 84.072 659.564 84.072C660.716 84.072 661.228 84.648 661.228 85.912V91H663.164V85.736C663.164 83.432 661.98 82.456 660.3 82.456C658.924 82.456 657.996 83.144 657.596 83.96V82.632H655.66V91ZM668.962 94.072C671.554 94.072 673.202 92.84 673.218 90.376V82.632H671.282V83.912C670.802 83.08 669.97 82.456 668.594 82.456C666.434 82.456 664.834 84.216 664.834 86.568V86.68C664.834 89.096 666.45 90.664 668.546 90.664C669.778 90.664 670.818 89.912 671.282 89.112V90.344C671.282 91.848 670.45 92.6 668.946 92.6C667.682 92.6 667.042 92.12 666.882 91.288H664.93C665.154 92.888 666.338 94.072 668.962 94.072ZM669.026 89.176C667.778 89.176 666.818 88.216 666.818 86.664V86.536C666.818 85.016 667.65 83.976 669.09 83.976C670.482 83.976 671.346 84.92 671.346 86.504V86.616C671.346 88.216 670.37 89.176 669.026 89.176ZM594.519 109H596.455V102.088H598.359V100.632H596.455V99.432C596.455 98.712 596.775 98.2 597.559 98.2C597.911 98.2 598.215 98.264 598.439 98.344V96.84C598.087 96.728 597.799 96.68 597.335 96.68C595.543 96.68 594.519 97.672 594.519 99.512V100.632H593.383V102.088H594.519V109ZM603.412 107.656C601.94 107.656 601.092 106.584 601.092 104.872V104.744C601.092 103.016 601.972 101.976 603.412 101.976C604.852 101.976 605.716 103.032 605.716 104.76V104.872C605.716 106.584 604.852 107.656 603.412 107.656ZM603.396 109.16C605.86 109.16 607.7 107.464 607.7 104.856V104.728C607.7 102.168 605.86 100.456 603.412 100.456C600.948 100.456 599.108 102.184 599.108 104.776V104.904C599.108 107.448 600.932 109.16 603.396 109.16ZM609.449 109H611.385V104.648C611.385 102.872 612.409 102.328 614.105 102.312V100.504C612.697 100.52 611.913 101.144 611.385 102.2V100.632H609.449V109ZM619.957 109H621.893V102.088H623.797V100.632H621.893V99.432C621.893 98.712 622.213 98.2 622.997 98.2C623.349 98.2 623.653 98.264 623.877 98.344V96.84C623.525 96.728 623.237 96.68 622.773 96.68C620.981 96.68 619.957 97.672 619.957 99.512V100.632H618.821V102.088H619.957V109ZM627.453 109.16C628.733 109.16 629.469 108.696 630.013 107.976V109H631.917V103.512C631.917 101.224 630.445 100.456 628.573 100.456C626.701 100.456 625.149 101.272 624.989 103.224H626.861C626.957 102.392 627.453 101.912 628.461 101.912C629.597 101.912 629.981 102.472 629.981 103.592V104.024H628.941C626.541 104.024 624.653 104.728 624.653 106.68C624.653 108.424 625.917 109.16 627.453 109.16ZM627.917 107.768C626.957 107.768 626.573 107.304 626.573 106.6C626.573 105.576 627.517 105.24 628.989 105.24H629.981V106.072C629.981 107.144 629.101 107.768 627.917 107.768ZM634.136 109H636.072V103.992C636.072 102.712 636.952 102.072 637.912 102.072C638.856 102.072 639.4 102.6 639.4 103.832V109H641.336V103.992C641.336 102.712 642.216 102.072 643.176 102.072C644.136 102.072 644.664 102.6 644.664 103.832V109H646.6V103.704C646.6 101.4 645.352 100.456 643.816 100.456C642.776 100.456 641.624 100.92 640.984 101.96C640.568 100.92 639.704 100.456 638.616 100.456C637.384 100.456 636.472 101.128 636.072 101.912V100.632H634.136V109ZM648.872 109H650.808V100.632H648.872V109ZM649.816 99.256C650.456 99.256 650.968 98.776 650.968 98.152C650.968 97.512 650.456 97.032 649.816 97.032C649.176 97.032 648.664 97.512 648.664 98.152C648.664 98.776 649.176 99.256 649.816 99.256ZM653.216 109H655.152V96.76H653.216V109ZM657.559 109H659.495V100.632H657.559V109ZM658.503 99.256C659.143 99.256 659.655 98.776 659.655 98.152C659.655 97.512 659.143 97.032 658.503 97.032C657.863 97.032 657.351 97.512 657.351 98.152C657.351 98.776 657.863 99.256 658.503 99.256ZM665.535 109.16C667.679 109.16 669.103 108.2 669.375 106.44H667.503C667.359 107.256 666.751 107.72 665.583 107.72C664.143 107.72 663.343 106.824 663.279 105.24H669.407V104.68C669.407 101.688 667.535 100.456 665.455 100.456C663.071 100.456 661.295 102.184 661.295 104.776V104.904C661.295 107.544 663.071 109.16 665.535 109.16ZM663.311 103.944C663.503 102.648 664.287 101.864 665.455 101.864C666.655 101.864 667.391 102.504 667.487 103.944H663.311ZM674.079 109.16C676.223 109.16 677.423 108.184 677.423 106.488C677.423 104.712 676.255 104.232 674.286 103.928C672.959 103.704 672.559 103.464 672.559 102.856C672.559 102.264 673.055 101.864 673.887 101.864C674.783 101.864 675.215 102.216 675.375 102.984H677.167C676.959 101.096 675.599 100.456 673.887 100.456C672.319 100.456 670.751 101.288 670.751 102.968C670.751 104.536 671.567 105.16 673.775 105.512C675.007 105.72 675.567 105.976 675.567 106.664C675.567 107.368 675.103 107.736 674.062 107.736C672.927 107.736 672.495 107.24 672.399 106.392H670.575C670.655 108.168 671.919 109.16 674.079 109.16Z" fill="#EBC1D3"/>
<path d="M754.853 91.16C757.877 91.16 759.493 89.512 759.493 86.52V79.56H757.349V86.344C757.349 88.712 756.517 89.448 754.869 89.448C753.173 89.448 752.501 88.584 752.501 86.488V79.56H750.357V86.648C750.357 89.592 751.989 91.16 754.853 91.16ZM761.777 93.864H763.713V89.688C764.161 90.504 765.121 91.16 766.449 91.16C768.609 91.16 770.161 89.528 770.161 86.84V86.712C770.161 84.008 768.545 82.456 766.449 82.456C765.217 82.456 764.177 83.176 763.713 83.976V82.632H761.777V93.864ZM765.969 89.624C764.561 89.624 763.649 88.744 763.649 86.872V86.744C763.649 84.888 764.609 83.976 765.953 83.976C767.217 83.976 768.177 84.888 768.177 86.744V86.872C768.177 88.664 767.393 89.624 765.969 89.624ZM775.038 91.16C776.27 91.16 777.342 90.424 777.79 89.592V91H779.726V78.76H777.79V83.912C777.326 83.08 776.478 82.456 775.118 82.456C772.942 82.456 771.358 84.152 771.358 86.824V86.952C771.358 89.672 772.942 91.16 775.038 91.16ZM775.518 89.624C774.27 89.624 773.342 88.744 773.342 86.904V86.776C773.342 84.968 774.174 83.976 775.598 83.976C777.006 83.976 777.854 84.888 777.854 86.728V86.856C777.854 88.728 776.862 89.624 775.518 89.624ZM784.219 91.16C785.499 91.16 786.235 90.696 786.779 89.976V91H788.683V85.512C788.683 83.224 787.211 82.456 785.339 82.456C783.467 82.456 781.915 83.272 781.755 85.224H783.627C783.723 84.392 784.219 83.912 785.227 83.912C786.363 83.912 786.747 84.472 786.747 85.592V86.024H785.707C783.307 86.024 781.419 86.728 781.419 88.68C781.419 90.424 782.683 91.16 784.219 91.16ZM784.683 89.768C783.723 89.768 783.339 89.304 783.339 88.6C783.339 87.576 784.283 87.24 785.755 87.24H786.747V88.072C786.747 89.144 785.867 89.768 784.683 89.768ZM793.75 91.144C794.342 91.144 794.758 91.048 795.062 90.936V89.4C794.79 89.512 794.502 89.56 794.118 89.56C793.51 89.56 793.158 89.224 793.158 88.488V84.088H794.998V82.632H793.158V80.792H791.222V82.632H790.102V84.088H791.222V88.664C791.222 90.248 792.086 91.144 793.75 91.144ZM796.856 91H798.792V82.632H796.856V91ZM797.8 81.256C798.44 81.256 798.952 80.776 798.952 80.152C798.952 79.512 798.44 79.032 797.8 79.032C797.16 79.032 796.648 79.512 796.648 80.152C796.648 80.776 797.16 81.256 797.8 81.256ZM801.152 91H803.088V86.072C803.088 84.744 803.968 84.072 805.056 84.072C806.208 84.072 806.72 84.648 806.72 85.912V91H808.656V85.736C808.656 83.432 807.472 82.456 805.792 82.456C804.416 82.456 803.488 83.144 803.088 83.96V82.632H801.152V91ZM814.454 94.072C817.046 94.072 818.694 92.84 818.71 90.376V82.632H816.774V83.912C816.294 83.08 815.462 82.456 814.086 82.456C811.926 82.456 810.326 84.216 810.326 86.568V86.68C810.326 89.096 811.942 90.664 814.038 90.664C815.27 90.664 816.31 89.912 816.774 89.112V90.344C816.774 91.848 815.942 92.6 814.438 92.6C813.174 92.6 812.534 92.12 812.374 91.288H810.422C810.646 92.888 811.83 94.072 814.454 94.072ZM814.518 89.176C813.27 89.176 812.31 88.216 812.31 86.664V86.536C812.31 85.016 813.142 83.976 814.582 83.976C815.974 83.976 816.838 84.92 816.838 86.504V86.616C816.838 88.216 815.862 89.176 814.518 89.176ZM752.727 109.144C753.319 109.144 753.735 109.048 754.039 108.936V107.4C753.767 107.512 753.479 107.56 753.095 107.56C752.487 107.56 752.135 107.224 752.135 106.488V102.088H753.975V100.632H752.135V98.792H750.199V100.632H749.079V102.088H750.199V106.664C750.199 108.248 751.063 109.144 752.727 109.144ZM755.785 109H757.721V104.072C757.721 102.744 758.601 102.072 759.689 102.072C760.841 102.072 761.353 102.648 761.353 103.912V109H763.289V103.736C763.289 101.432 762.105 100.456 760.425 100.456C759.049 100.456 758.121 101.144 757.721 101.96V96.76H755.785V109ZM769.199 109.16C771.343 109.16 772.767 108.2 773.039 106.44H771.167C771.023 107.256 770.415 107.72 769.247 107.72C767.807 107.72 767.007 106.824 766.943 105.24H773.071V104.68C773.071 101.688 771.199 100.456 769.119 100.456C766.735 100.456 764.959 102.184 764.959 104.776V104.904C764.959 107.544 766.735 109.16 769.199 109.16ZM766.975 103.944C767.167 102.648 767.951 101.864 769.119 101.864C770.319 101.864 771.055 102.504 771.151 103.944H766.975ZM782.277 109.16C784.549 109.16 786.005 107.8 786.149 105.88H784.373C784.261 107.064 783.381 107.672 782.357 107.672C780.933 107.672 780.037 106.712 780.037 104.888V104.76C780.037 103.032 780.981 102.008 782.309 102.008C783.333 102.008 784.069 102.472 784.229 103.592H786.101C785.877 101.288 784.133 100.456 782.277 100.456C779.941 100.456 778.053 102.136 778.053 104.792V104.92C778.053 107.592 779.877 109.16 782.277 109.16ZM787.864 109H789.8V96.76H787.864V109ZM792.208 109H794.144V100.632H792.208V109ZM793.152 99.256C793.792 99.256 794.304 98.776 794.304 98.152C794.304 97.512 793.792 97.032 793.152 97.032C792.512 97.032 792 97.512 792 98.152C792 98.776 792.512 99.256 793.152 99.256ZM800.184 109.16C802.328 109.16 803.752 108.2 804.024 106.44H802.152C802.008 107.256 801.4 107.72 800.232 107.72C798.792 107.72 797.992 106.824 797.928 105.24H804.056V104.68C804.056 101.688 802.184 100.456 800.104 100.456C797.72 100.456 795.944 102.184 795.944 104.776V104.904C795.944 107.544 797.72 109.16 800.184 109.16ZM797.96 103.944C798.152 102.648 798.936 101.864 800.104 101.864C801.304 101.864 802.04 102.504 802.136 103.944H797.96ZM805.785 109H807.721V104.072C807.721 102.744 808.601 102.072 809.689 102.072C810.841 102.072 811.353 102.648 811.353 103.912V109H813.289V103.736C813.289 101.432 812.105 100.456 810.425 100.456C809.049 100.456 808.121 101.144 807.721 101.96V100.632H805.785V109ZM818.367 109.144C818.959 109.144 819.375 109.048 819.679 108.936V107.4C819.407 107.512 819.119 107.56 818.735 107.56C818.127 107.56 817.775 107.224 817.775 106.488V102.088H819.615V100.632H817.775V98.792H815.839V100.632H814.719V102.088H815.839V106.664C815.839 108.248 816.703 109.144 818.367 109.144Z" fill="#EBC1D3"/>
</svg>
