<svg width="2822" height="624" viewBox="0 0 2822 624" fill="none" xmlns="http://www.w3.org/2000/svg">
<path d="M2483.07 561.56H2489.7C2488.03 565.144 2486.74 568.936 2485.81 572.936C2484.91 576.936 2484.46 580.984 2484.46 585.08C2484.46 589.144 2484.91 593.176 2485.81 597.176C2486.74 601.176 2488.03 604.984 2489.7 608.6H2483.07C2481.15 604.984 2479.7 601.176 2478.7 597.176C2477.74 593.176 2477.26 589.144 2477.26 585.08C2477.26 580.984 2477.74 576.936 2478.7 572.936C2479.7 568.936 2481.15 565.144 2483.07 561.56ZM2505.58 599.768C2502.89 599.768 2500.57 599.24 2498.62 598.184C2496.7 597.096 2495.22 595.688 2494.2 593.96C2493.18 592.2 2492.66 590.328 2492.66 588.344H2500.68C2500.68 590.008 2501.21 591.24 2502.26 592.04C2503.32 592.84 2504.54 593.24 2505.91 593.24C2507.32 593.24 2508.47 592.904 2509.37 592.232C2510.26 591.528 2510.71 590.456 2510.71 589.016C2510.71 587.608 2510.14 586.472 2508.98 585.608C2507.83 584.744 2506.02 584.312 2503.56 584.312V579.08C2505.45 579.08 2506.95 578.632 2508.07 577.736C2509.19 576.84 2509.75 575.8 2509.75 574.616C2509.75 573.624 2509.43 572.824 2508.79 572.216C2508.18 571.576 2507.24 571.256 2505.96 571.256C2504.71 571.256 2503.67 571.64 2502.84 572.408C2502.01 573.144 2501.59 574.088 2501.59 575.24H2494.1C2494.1 573.224 2494.58 571.432 2495.54 569.864C2496.54 568.296 2497.91 567.064 2499.67 566.168C2501.46 565.24 2503.56 564.776 2505.96 564.776C2508.49 564.776 2510.63 565.192 2512.39 566.024C2514.15 566.856 2515.5 567.976 2516.42 569.384C2517.35 570.792 2517.82 572.36 2517.82 574.088C2517.82 575.816 2517.29 577.288 2516.23 578.504C2515.21 579.72 2513.8 580.664 2512.01 581.336C2514.12 582.04 2515.77 583.096 2516.95 584.504C2518.17 585.88 2518.78 587.656 2518.78 589.832C2518.78 591.784 2518.25 593.512 2517.19 595.016C2516.14 596.488 2514.62 597.656 2512.63 598.52C2510.68 599.352 2508.33 599.768 2505.58 599.768ZM2535.39 599.768C2532.7 599.768 2530.38 599.24 2528.43 598.184C2526.51 597.096 2525.04 595.688 2524.01 593.96C2522.99 592.2 2522.48 590.328 2522.48 588.344H2530.49C2530.49 590.008 2531.02 591.24 2532.08 592.04C2533.13 592.84 2534.35 593.24 2535.72 593.24C2537.13 593.24 2538.28 592.904 2539.18 592.232C2540.08 591.528 2540.52 590.456 2540.52 589.016C2540.52 587.608 2539.95 586.472 2538.8 585.608C2537.64 584.744 2535.84 584.312 2533.37 584.312V579.08C2535.26 579.08 2536.76 578.632 2537.88 577.736C2539 576.84 2539.56 575.8 2539.56 574.616C2539.56 573.624 2539.24 572.824 2538.6 572.216C2538 571.576 2537.05 571.256 2535.77 571.256C2534.52 571.256 2533.48 571.64 2532.65 572.408C2531.82 573.144 2531.4 574.088 2531.4 575.24H2523.92C2523.92 573.224 2524.4 571.432 2525.36 569.864C2526.35 568.296 2527.72 567.064 2529.48 566.168C2531.28 565.24 2533.37 564.776 2535.77 564.776C2538.3 564.776 2540.44 565.192 2542.2 566.024C2543.96 566.856 2545.31 567.976 2546.24 569.384C2547.16 570.792 2547.63 572.36 2547.63 574.088C2547.63 575.816 2547.1 577.288 2546.04 578.504C2545.02 579.72 2543.61 580.664 2541.82 581.336C2543.93 582.04 2545.58 583.096 2546.76 584.504C2547.98 585.88 2548.59 587.656 2548.59 589.832C2548.59 591.784 2548.06 593.512 2547 595.016C2545.95 596.488 2544.43 597.656 2542.44 598.52C2540.49 599.352 2538.14 599.768 2535.39 599.768ZM2551.04 573.368C2551.04 571.736 2551.44 570.248 2552.24 568.904C2553.04 567.56 2554.13 566.488 2555.5 565.688C2556.88 564.888 2558.43 564.488 2560.16 564.488C2561.89 564.488 2563.44 564.888 2564.82 565.688C2566.19 566.488 2567.26 567.56 2568.03 568.904C2568.83 570.248 2569.23 571.736 2569.23 573.368C2569.23 575 2568.83 576.488 2568.03 577.832C2567.26 579.176 2566.19 580.248 2564.82 581.048C2563.44 581.848 2561.89 582.248 2560.16 582.248C2558.43 582.248 2556.88 581.848 2555.5 581.048C2554.13 580.248 2553.04 579.176 2552.24 577.832C2551.44 576.488 2551.04 575 2551.04 573.368ZM2581.18 565.4H2588.72L2562.9 599H2555.41L2581.18 565.4ZM2557.04 573.368C2557.04 574.232 2557.33 574.984 2557.9 575.624C2558.51 576.232 2559.26 576.536 2560.16 576.536C2561.09 576.536 2561.82 576.232 2562.37 575.624C2562.94 574.984 2563.23 574.232 2563.23 573.368C2563.23 572.504 2562.94 571.752 2562.37 571.112C2561.82 570.472 2561.09 570.152 2560.16 570.152C2559.26 570.152 2558.51 570.472 2557.9 571.112C2557.33 571.752 2557.04 572.504 2557.04 573.368ZM2574.9 591.032C2574.9 589.4 2575.3 587.912 2576.1 586.568C2576.9 585.224 2577.97 584.152 2579.31 583.352C2580.69 582.552 2582.24 582.152 2583.97 582.152C2585.7 582.152 2587.25 582.552 2588.62 583.352C2590 584.152 2591.07 585.224 2591.84 586.568C2592.64 587.912 2593.04 589.4 2593.04 591.032C2593.04 592.664 2592.64 594.152 2591.84 595.496C2591.07 596.84 2590 597.912 2588.62 598.712C2587.25 599.512 2585.7 599.912 2583.97 599.912C2582.24 599.912 2580.69 599.512 2579.31 598.712C2577.97 597.912 2576.9 596.84 2576.1 595.496C2575.3 594.152 2574.9 592.664 2574.9 591.032ZM2580.9 591.032C2580.9 591.896 2581.18 592.648 2581.76 593.288C2582.34 593.896 2583.07 594.2 2583.97 594.2C2584.9 594.2 2585.63 593.896 2586.18 593.288C2586.75 592.648 2587.04 591.896 2587.04 591.032C2587.04 590.168 2586.75 589.432 2586.18 588.824C2585.63 588.184 2584.9 587.864 2583.97 587.864C2583.07 587.864 2582.34 588.184 2581.76 588.824C2581.18 589.432 2580.9 590.168 2580.9 591.032ZM2601.39 608.6H2594.77C2596.46 604.984 2597.76 601.176 2598.65 597.176C2599.58 593.176 2600.05 589.144 2600.05 585.08C2600.05 580.984 2599.58 576.936 2598.65 572.936C2597.76 568.936 2596.46 565.144 2594.77 561.56H2601.39C2603.31 565.144 2604.75 568.936 2605.71 572.936C2606.7 576.936 2607.2 580.984 2607.2 585.08C2607.2 589.144 2606.7 593.176 2605.71 597.176C2604.75 601.176 2603.31 604.984 2601.39 608.6ZM2651.58 565.4H2659.4V600.68L2636.22 580.136V599H2628.4V563.72L2651.58 584.264V565.4ZM2664.44 587.96C2664.44 585.624 2664.99 583.592 2666.07 581.864C2667.19 580.136 2668.7 578.792 2670.59 577.832C2672.51 576.872 2674.67 576.392 2677.07 576.392C2679.5 576.392 2681.66 576.872 2683.55 577.832C2685.43 578.792 2686.92 580.136 2688.01 581.864C2689.13 583.592 2689.69 585.624 2689.69 587.96C2689.69 590.264 2689.13 592.28 2688.01 594.008C2686.92 595.736 2685.43 597.08 2683.55 598.04C2681.66 599 2679.5 599.48 2677.07 599.48C2674.67 599.48 2672.51 599 2670.59 598.04C2668.7 597.08 2667.19 595.736 2666.07 594.008C2664.99 592.28 2664.44 590.264 2664.44 587.96ZM2671.93 587.96C2671.93 589.656 2672.43 591 2673.42 591.992C2674.44 592.984 2675.66 593.48 2677.07 593.48C2678.47 593.48 2679.67 592.984 2680.67 591.992C2681.69 591 2682.2 589.656 2682.2 587.96C2682.2 586.264 2681.69 584.92 2680.67 583.928C2679.67 582.904 2678.47 582.392 2677.07 582.392C2675.66 582.392 2674.44 582.904 2673.42 583.928C2672.43 584.92 2671.93 586.264 2671.93 587.96ZM2714.49 587.96C2714.49 589.72 2715.07 591.112 2716.22 592.136C2717.37 593.16 2718.76 593.672 2720.39 593.672C2721.71 593.672 2722.95 593.4 2724.14 592.856C2725.32 592.28 2726.23 591.464 2726.87 590.408V597.464C2726.11 598.072 2725.15 598.568 2723.99 598.952C2722.84 599.304 2721.43 599.48 2719.77 599.48C2717.31 599.48 2715.11 599 2713.19 598.04C2711.27 597.08 2709.75 595.736 2708.63 594.008C2707.55 592.28 2707 590.264 2707 587.96C2707 585.624 2707.55 583.608 2708.63 581.912C2709.75 580.184 2711.27 578.84 2713.19 577.88C2715.11 576.92 2717.31 576.44 2719.77 576.44C2721.43 576.44 2722.84 576.632 2723.99 577.016C2725.15 577.368 2726.11 577.816 2726.87 578.36V585.464C2726.23 584.408 2725.29 583.608 2724.04 583.064C2722.79 582.52 2721.58 582.248 2720.39 582.248C2719.31 582.248 2718.31 582.504 2717.42 583.016C2716.52 583.496 2715.8 584.168 2715.26 585.032C2714.75 585.896 2714.49 586.872 2714.49 587.96ZM2734.47 583.688L2732.02 578.84C2733.3 578.232 2734.8 577.656 2736.53 577.112C2738.29 576.568 2740.21 576.296 2742.29 576.296C2744.24 576.296 2745.99 576.584 2747.52 577.16C2749.06 577.704 2750.27 578.504 2751.17 579.56C2752.07 580.616 2752.51 581.912 2752.51 583.448V599H2745.55V595.976C2744.88 597.128 2743.87 598.008 2742.53 598.616C2741.22 599.192 2739.79 599.48 2738.26 599.48C2736.85 599.48 2735.54 599.224 2734.32 598.712C2733.14 598.168 2732.18 597.368 2731.44 596.312C2730.74 595.256 2730.39 593.976 2730.39 592.472C2730.39 590.36 2731.12 588.696 2732.59 587.48C2734.1 586.232 2736.24 585.608 2739.03 585.608C2740.37 585.608 2741.6 585.752 2742.72 586.04C2743.84 586.296 2744.79 586.616 2745.55 587V585.08C2745.55 582.904 2744.16 581.816 2741.38 581.816C2740.42 581.816 2739.46 581.928 2738.5 582.152C2737.54 582.376 2736.69 582.648 2735.95 582.968C2735.25 583.256 2734.75 583.496 2734.47 583.688ZM2737.73 592.088C2737.73 592.952 2738.02 593.624 2738.59 594.104C2739.2 594.552 2739.95 594.776 2740.85 594.776C2742.03 594.776 2743.09 594.424 2744.02 593.72C2744.95 592.984 2745.46 591.896 2745.55 590.456C2744.24 589.88 2742.82 589.592 2741.28 589.592C2740 589.592 2739.09 589.816 2738.55 590.264C2738 590.68 2737.73 591.288 2737.73 592.088ZM2759.14 590.984C2760.84 592.392 2762.28 593.352 2763.46 593.864C2764.68 594.344 2765.67 594.584 2766.44 594.584C2767.88 594.584 2768.6 594.008 2768.6 592.856C2768.6 592.152 2768.26 591.592 2767.59 591.176C2766.92 590.728 2765.69 590.216 2763.89 589.64C2762.87 589.288 2761.88 588.84 2760.92 588.296C2759.96 587.752 2759.17 587.032 2758.57 586.136C2757.96 585.24 2757.65 584.088 2757.65 582.68C2757.65 580.664 2758.44 579.128 2760.01 578.072C2761.57 576.984 2763.54 576.44 2765.91 576.44C2767.8 576.44 2769.53 576.76 2771.09 577.4C2772.66 578.008 2774.09 578.776 2775.37 579.704L2772.77 584.456C2771.88 583.592 2770.82 582.872 2769.61 582.296C2768.42 581.72 2767.33 581.432 2766.34 581.432C2765.7 581.432 2765.21 581.56 2764.85 581.816C2764.53 582.072 2764.37 582.408 2764.37 582.824C2764.37 583.56 2764.81 584.104 2765.67 584.456C2766.57 584.808 2767.83 585.304 2769.46 585.944C2770.61 586.36 2771.67 586.84 2772.63 587.384C2773.59 587.928 2774.36 588.616 2774.93 589.448C2775.54 590.28 2775.85 591.384 2775.85 592.76C2775.85 595.096 2775.13 596.872 2773.69 598.088C2772.25 599.304 2770.2 599.912 2767.54 599.912C2765.14 599.912 2763.01 599.528 2761.16 598.76C2759.3 597.96 2757.62 596.968 2756.12 595.784L2759.14 590.984ZM2791.11 599.48C2788.52 599.48 2786.28 599.016 2784.39 598.088C2782.54 597.128 2781.1 595.784 2780.07 594.056C2779.05 592.328 2778.54 590.296 2778.54 587.96C2778.54 584.376 2779.64 581.56 2781.85 579.512C2784.06 577.464 2787.1 576.44 2790.97 576.44C2794.78 576.44 2797.7 577.416 2799.75 579.368C2801.83 581.32 2802.87 584.072 2802.87 587.624C2802.87 587.976 2802.87 588.312 2802.87 588.632C2802.87 588.952 2802.86 589.24 2802.82 589.496H2785.98C2786.17 591 2786.7 592.168 2787.56 593C2788.42 593.832 2789.56 594.248 2790.97 594.248C2793.53 594.248 2795.35 593.288 2796.44 591.368L2802.97 592.952C2800.63 597.304 2796.68 599.48 2791.11 599.48ZM2790.82 581.288C2788.2 581.288 2786.62 582.68 2786.07 585.464H2795.1C2794.97 584.184 2794.52 583.176 2793.75 582.44C2793.02 581.672 2792.04 581.288 2790.82 581.288Z" fill="#D81159"/>
<path d="M1513.41 599L1528.39 583.496C1529.73 582.056 1530.79 580.776 1531.56 579.656C1532.33 578.504 1532.71 577.272 1532.71 575.96C1532.71 574.872 1532.33 573.896 1531.56 573.032C1530.79 572.168 1529.64 571.736 1528.1 571.736C1526.53 571.736 1525.29 572.312 1524.36 573.464C1523.46 574.584 1523.01 576.04 1523.01 577.832H1515.05C1515.05 575.432 1515.54 573.24 1516.53 571.256C1517.56 569.272 1519.06 567.688 1521.05 566.504C1523.03 565.32 1525.48 564.728 1528.39 564.728C1531.17 564.728 1533.51 565.272 1535.4 566.36C1537.29 567.416 1538.71 568.76 1539.67 570.392C1540.63 572.024 1541.11 573.688 1541.11 575.384C1541.11 577.176 1540.66 578.84 1539.77 580.376C1538.9 581.912 1537.73 583.304 1536.26 584.552L1528.49 591.56H1541.93V599H1513.41ZM1567.27 587.96C1567.27 589.72 1567.85 591.112 1569 592.136C1570.15 593.16 1571.54 593.672 1573.18 593.672C1574.49 593.672 1575.74 593.4 1576.92 592.856C1578.1 592.28 1579.02 591.464 1579.66 590.408V597.464C1578.89 598.072 1577.93 598.568 1576.78 598.952C1575.62 599.304 1574.22 599.48 1572.55 599.48C1570.09 599.48 1567.9 599 1565.98 598.04C1564.06 597.08 1562.54 595.736 1561.42 594.008C1560.33 592.28 1559.78 590.264 1559.78 587.96C1559.78 585.624 1560.33 583.608 1561.42 581.912C1562.54 580.184 1564.06 578.84 1565.98 577.88C1567.9 576.92 1570.09 576.44 1572.55 576.44C1574.22 576.44 1575.62 576.632 1576.78 577.016C1577.93 577.368 1578.89 577.816 1579.66 578.36V585.464C1579.02 584.408 1578.07 583.608 1576.82 583.064C1575.58 582.52 1574.36 582.248 1573.18 582.248C1572.09 582.248 1571.1 582.504 1570.2 583.016C1569.3 583.496 1568.58 584.168 1568.04 585.032C1567.53 585.896 1567.27 586.872 1567.27 587.96ZM1587.25 583.688L1584.8 578.84C1586.08 578.232 1587.58 577.656 1589.31 577.112C1591.07 576.568 1592.99 576.296 1595.07 576.296C1597.02 576.296 1598.77 576.584 1600.3 577.16C1601.84 577.704 1603.06 578.504 1603.95 579.56C1604.85 580.616 1605.3 581.912 1605.3 583.448V599H1598.34V595.976C1597.66 597.128 1596.66 598.008 1595.31 598.616C1594 599.192 1592.58 599.48 1591.04 599.48C1589.63 599.48 1588.32 599.224 1587.1 598.712C1585.92 598.168 1584.96 597.368 1584.22 596.312C1583.52 595.256 1583.17 593.976 1583.17 592.472C1583.17 590.36 1583.9 588.696 1585.38 587.48C1586.88 586.232 1589.02 585.608 1591.81 585.608C1593.15 585.608 1594.38 585.752 1595.5 586.04C1596.62 586.296 1597.57 586.616 1598.34 587V585.08C1598.34 582.904 1596.94 581.816 1594.16 581.816C1593.2 581.816 1592.24 581.928 1591.28 582.152C1590.32 582.376 1589.47 582.648 1588.74 582.968C1588.03 583.256 1587.54 583.496 1587.25 583.688ZM1590.51 592.088C1590.51 592.952 1590.8 593.624 1591.38 594.104C1591.98 594.552 1592.74 594.776 1593.63 594.776C1594.82 594.776 1595.87 594.424 1596.8 593.72C1597.73 592.984 1598.24 591.896 1598.34 590.456C1597.02 589.88 1595.6 589.592 1594.06 589.592C1592.78 589.592 1591.87 589.816 1591.33 590.264C1590.78 590.68 1590.51 591.288 1590.51 592.088ZM1611.92 590.984C1613.62 592.392 1615.06 593.352 1616.24 593.864C1617.46 594.344 1618.45 594.584 1619.22 594.584C1620.66 594.584 1621.38 594.008 1621.38 592.856C1621.38 592.152 1621.04 591.592 1620.37 591.176C1619.7 590.728 1618.47 590.216 1616.67 589.64C1615.65 589.288 1614.66 588.84 1613.7 588.296C1612.74 587.752 1611.95 587.032 1611.35 586.136C1610.74 585.24 1610.43 584.088 1610.43 582.68C1610.43 580.664 1611.22 579.128 1612.79 578.072C1614.35 576.984 1616.32 576.44 1618.69 576.44C1620.58 576.44 1622.31 576.76 1623.87 577.4C1625.44 578.008 1626.87 578.776 1628.15 579.704L1625.55 584.456C1624.66 583.592 1623.6 582.872 1622.39 582.296C1621.2 581.72 1620.11 581.432 1619.12 581.432C1618.48 581.432 1617.99 581.56 1617.63 581.816C1617.31 582.072 1617.15 582.408 1617.15 582.824C1617.15 583.56 1617.59 584.104 1618.45 584.456C1619.35 584.808 1620.61 585.304 1622.24 585.944C1623.39 586.36 1624.45 586.84 1625.41 587.384C1626.37 587.928 1627.14 588.616 1627.71 589.448C1628.32 590.28 1628.63 591.384 1628.63 592.76C1628.63 595.096 1627.91 596.872 1626.47 598.088C1625.03 599.304 1622.98 599.912 1620.32 599.912C1617.92 599.912 1615.79 599.528 1613.94 598.76C1612.08 597.96 1610.4 596.968 1608.9 595.784L1611.92 590.984ZM1643.89 599.48C1641.3 599.48 1639.06 599.016 1637.17 598.088C1635.32 597.128 1633.88 595.784 1632.85 594.056C1631.83 592.328 1631.32 590.296 1631.32 587.96C1631.32 584.376 1632.42 581.56 1634.63 579.512C1636.84 577.464 1639.88 576.44 1643.75 576.44C1647.56 576.44 1650.49 577.416 1652.53 579.368C1654.61 581.32 1655.65 584.072 1655.65 587.624C1655.65 587.976 1655.65 588.312 1655.65 588.632C1655.65 588.952 1655.64 589.24 1655.61 589.496H1638.76C1638.95 591 1639.48 592.168 1640.34 593C1641.21 593.832 1642.34 594.248 1643.75 594.248C1646.31 594.248 1648.13 593.288 1649.22 591.368L1655.75 592.952C1653.41 597.304 1649.46 599.48 1643.89 599.48ZM1643.61 581.288C1640.98 581.288 1639.4 582.68 1638.85 585.464H1647.88C1647.75 584.184 1647.3 583.176 1646.53 582.44C1645.8 581.672 1644.82 581.288 1643.61 581.288ZM1656.21 576.92H1663.84L1668.45 588.2L1674.79 575.24L1681.27 588.248L1685.87 576.92H1693.51L1682.08 600.392L1674.79 587.288L1667.63 600.392L1656.21 576.92ZM1693.94 587.96C1693.94 585.624 1694.49 583.592 1695.57 581.864C1696.69 580.136 1698.2 578.792 1700.09 577.832C1702.01 576.872 1704.17 576.392 1706.57 576.392C1709 576.392 1711.16 576.872 1713.05 577.832C1714.93 578.792 1716.42 580.136 1717.51 581.864C1718.63 583.592 1719.19 585.624 1719.19 587.96C1719.19 590.264 1718.63 592.28 1717.51 594.008C1716.42 595.736 1714.93 597.08 1713.05 598.04C1711.16 599 1709 599.48 1706.57 599.48C1704.17 599.48 1702.01 599 1700.09 598.04C1698.2 597.08 1696.69 595.736 1695.57 594.008C1694.49 592.28 1693.94 590.264 1693.94 587.96ZM1701.43 587.96C1701.43 589.656 1701.93 591 1702.92 591.992C1703.94 592.984 1705.16 593.48 1706.57 593.48C1707.97 593.48 1709.17 592.984 1710.17 591.992C1711.19 591 1711.7 589.656 1711.7 587.96C1711.7 586.264 1711.19 584.92 1710.17 583.928C1709.17 582.904 1707.97 582.392 1706.57 582.392C1705.16 582.392 1703.94 582.904 1702.92 583.928C1701.93 584.92 1701.43 586.264 1701.43 587.96ZM1737.04 584.456C1736.66 584.072 1736.24 583.768 1735.79 583.544C1735.38 583.32 1734.85 583.208 1734.21 583.208C1733.15 583.208 1732.29 583.624 1731.62 584.456C1730.98 585.288 1730.66 586.504 1730.66 588.104V599H1723.5V576.92H1730.66V579.704C1731.36 578.68 1732.19 577.88 1733.15 577.304C1734.14 576.696 1735.17 576.392 1736.22 576.392C1737.02 576.392 1737.79 576.568 1738.53 576.92C1739.26 577.24 1739.82 577.672 1740.21 578.216L1737.04 584.456ZM1758.21 576.92H1766.85L1757.4 586.04L1767.81 599H1759.27L1750.15 587.768V599H1743.19V561.56H1750.15V584.696L1758.21 576.92ZM1781.52 599.48C1778.93 599.48 1776.69 599.016 1774.8 598.088C1772.94 597.128 1771.5 595.784 1770.48 594.056C1769.45 592.328 1768.94 590.296 1768.94 587.96C1768.94 584.376 1770.05 581.56 1772.25 579.512C1774.46 577.464 1777.5 576.44 1781.37 576.44C1785.18 576.44 1788.11 577.416 1790.16 579.368C1792.24 581.32 1793.28 584.072 1793.28 587.624C1793.28 587.976 1793.28 588.312 1793.28 588.632C1793.28 588.952 1793.26 589.24 1793.23 589.496H1776.38C1776.57 591 1777.1 592.168 1777.97 593C1778.83 593.832 1779.97 594.248 1781.37 594.248C1783.93 594.248 1785.76 593.288 1786.85 591.368L1793.37 592.952C1791.04 597.304 1787.09 599.48 1781.52 599.48ZM1781.23 581.288C1778.61 581.288 1777.02 582.68 1776.48 585.464H1785.5C1785.37 584.184 1784.93 583.176 1784.16 582.44C1783.42 581.672 1782.45 581.288 1781.23 581.288ZM1811.29 584.456C1810.91 584.072 1810.49 583.768 1810.04 583.544C1809.63 583.32 1809.1 583.208 1808.46 583.208C1807.4 583.208 1806.54 583.624 1805.87 584.456C1805.23 585.288 1804.91 586.504 1804.91 588.104V599H1797.75V576.92H1804.91V579.704C1805.61 578.68 1806.44 577.88 1807.4 577.304C1808.39 576.696 1809.42 576.392 1810.47 576.392C1811.27 576.392 1812.04 576.568 1812.78 576.92C1813.51 577.24 1814.07 577.672 1814.46 578.216L1811.29 584.456ZM1818.69 590.984C1820.38 592.392 1821.82 593.352 1823.01 593.864C1824.22 594.344 1825.22 594.584 1825.98 594.584C1827.42 594.584 1828.14 594.008 1828.14 592.856C1828.14 592.152 1827.81 591.592 1827.14 591.176C1826.46 590.728 1825.23 590.216 1823.44 589.64C1822.42 589.288 1821.42 588.84 1820.46 588.296C1819.5 587.752 1818.72 587.032 1818.11 586.136C1817.5 585.24 1817.2 584.088 1817.2 582.68C1817.2 580.664 1817.98 579.128 1819.55 578.072C1821.12 576.984 1823.09 576.44 1825.46 576.44C1827.34 576.44 1829.07 576.76 1830.64 577.4C1832.21 578.008 1833.63 578.776 1834.91 579.704L1832.32 584.456C1831.42 583.592 1830.37 582.872 1829.15 582.296C1827.97 581.72 1826.88 581.432 1825.89 581.432C1825.25 581.432 1824.75 581.56 1824.4 581.816C1824.08 582.072 1823.92 582.408 1823.92 582.824C1823.92 583.56 1824.35 584.104 1825.22 584.456C1826.11 584.808 1827.38 585.304 1829.01 585.944C1830.16 586.36 1831.22 586.84 1832.18 587.384C1833.14 587.928 1833.9 588.616 1834.48 589.448C1835.09 590.28 1835.39 591.384 1835.39 592.76C1835.39 595.096 1834.67 596.872 1833.23 598.088C1831.79 599.304 1829.74 599.912 1827.09 599.912C1824.69 599.912 1822.56 599.528 1820.7 598.76C1818.85 597.96 1817.17 596.968 1815.66 595.784L1818.69 590.984Z" fill="#EBC1D3"/>
<path d="M1007.33 575.096V568.04L1023.45 564.776V599H1015.63V573.08L1007.33 575.096ZM1045.28 568.664C1045.28 567.512 1045.68 566.568 1046.48 565.832C1047.31 565.096 1048.32 564.728 1049.5 564.728C1050.68 564.728 1051.68 565.096 1052.48 565.832C1053.31 566.568 1053.72 567.512 1053.72 568.664C1053.72 569.816 1053.31 570.76 1052.48 571.496C1051.68 572.2 1050.68 572.552 1049.5 572.552C1048.32 572.552 1047.31 572.2 1046.48 571.496C1045.68 570.76 1045.28 569.816 1045.28 568.664ZM1045.95 576.92H1053V599H1045.95V576.92ZM1073.32 585.56C1073.32 584.248 1073.08 583.256 1072.6 582.584C1072.12 581.88 1071.29 581.528 1070.11 581.528C1068.96 581.528 1068.03 581.88 1067.32 582.584C1066.62 583.256 1066.27 584.248 1066.27 585.56V599H1058.97V576.92H1066.27V580.232C1066.91 579.016 1067.77 578.072 1068.86 577.4C1069.98 576.728 1071.36 576.392 1072.99 576.392C1075.74 576.392 1077.74 577.128 1078.99 578.6C1080.27 580.072 1080.91 582.136 1080.91 584.792V599H1073.32V585.56ZM1083.99 576.92H1087.88V569.24H1094.89V576.92H1098.77V582.92H1094.89V599H1087.88V582.92H1083.99V576.92ZM1113.14 599.48C1110.55 599.48 1108.31 599.016 1106.42 598.088C1104.57 597.128 1103.13 595.784 1102.1 594.056C1101.08 592.328 1100.57 590.296 1100.57 587.96C1100.57 584.376 1101.67 581.56 1103.88 579.512C1106.09 577.464 1109.13 576.44 1113 576.44C1116.81 576.44 1119.74 577.416 1121.78 579.368C1123.86 581.32 1124.9 584.072 1124.9 587.624C1124.9 587.976 1124.9 588.312 1124.9 588.632C1124.9 588.952 1124.89 589.24 1124.86 589.496H1108.01C1108.2 591 1108.73 592.168 1109.59 593C1110.46 593.832 1111.59 594.248 1113 594.248C1115.56 594.248 1117.38 593.288 1118.47 591.368L1125 592.952C1122.66 597.304 1118.71 599.48 1113.14 599.48ZM1112.86 581.288C1110.23 581.288 1108.65 582.68 1108.1 585.464H1117.13C1117 584.184 1116.55 583.176 1115.78 582.44C1115.05 581.672 1114.07 581.288 1112.86 581.288ZM1142.91 584.456C1142.53 584.072 1142.11 583.768 1141.67 583.544C1141.25 583.32 1140.72 583.208 1140.08 583.208C1139.03 583.208 1138.16 583.624 1137.49 584.456C1136.85 585.288 1136.53 586.504 1136.53 588.104V599H1129.38V576.92H1136.53V579.704C1137.23 578.68 1138.07 577.88 1139.03 577.304C1140.02 576.696 1141.04 576.392 1142.1 576.392C1142.9 576.392 1143.67 576.568 1144.4 576.92C1145.14 577.24 1145.7 577.672 1146.08 578.216L1142.91 584.456ZM1156.31 609.56H1149.07V576.92H1156.31V580.472C1157.11 579.096 1158.14 578.04 1159.39 577.304C1160.67 576.536 1162.15 576.152 1163.85 576.152C1165.64 576.152 1167.34 576.6 1168.94 577.496C1170.54 578.36 1171.83 579.672 1172.83 581.432C1173.85 583.192 1174.36 585.368 1174.36 587.96C1174.36 590.552 1173.85 592.728 1172.83 594.488C1171.83 596.216 1170.54 597.528 1168.94 598.424C1167.34 599.32 1165.64 599.768 1163.85 599.768C1162.15 599.768 1160.67 599.4 1159.39 598.664C1158.14 597.896 1157.11 596.824 1156.31 595.448V609.56ZM1166.73 587.96C1166.73 586.232 1166.2 584.904 1165.15 583.976C1164.12 583.048 1162.89 582.584 1161.45 582.584C1160.65 582.584 1159.85 582.792 1159.05 583.208C1158.25 583.592 1157.59 584.184 1157.08 584.984C1156.57 585.752 1156.31 586.744 1156.31 587.96C1156.31 589.144 1156.57 590.136 1157.08 590.936C1157.59 591.736 1158.25 592.344 1159.05 592.76C1159.85 593.144 1160.65 593.336 1161.45 593.336C1162.89 593.336 1164.12 592.872 1165.15 591.944C1166.2 591.016 1166.73 589.688 1166.73 587.96ZM1192.23 584.456C1191.84 584.072 1191.43 583.768 1190.98 583.544C1190.56 583.32 1190.04 583.208 1189.4 583.208C1188.34 583.208 1187.48 583.624 1186.8 584.456C1186.16 585.288 1185.84 586.504 1185.84 588.104V599H1178.69V576.92H1185.84V579.704C1186.55 578.68 1187.38 577.88 1188.34 577.304C1189.33 576.696 1190.36 576.392 1191.41 576.392C1192.21 576.392 1192.98 576.568 1193.72 576.92C1194.45 577.24 1195.01 577.672 1195.4 578.216L1192.23 584.456ZM1209 599.48C1206.41 599.48 1204.17 599.016 1202.28 598.088C1200.43 597.128 1198.99 595.784 1197.96 594.056C1196.94 592.328 1196.43 590.296 1196.43 587.96C1196.43 584.376 1197.53 581.56 1199.74 579.512C1201.95 577.464 1204.99 576.44 1208.86 576.44C1212.67 576.44 1215.59 577.416 1217.64 579.368C1219.72 581.32 1220.76 584.072 1220.76 587.624C1220.76 587.976 1220.76 588.312 1220.76 588.632C1220.76 588.952 1220.75 589.24 1220.71 589.496H1203.87C1204.06 591 1204.59 592.168 1205.45 593C1206.31 593.832 1207.45 594.248 1208.86 594.248C1211.42 594.248 1213.24 593.288 1214.33 591.368L1220.86 592.952C1218.52 597.304 1214.57 599.48 1209 599.48ZM1208.71 581.288C1206.09 581.288 1204.51 582.68 1203.96 585.464H1212.99C1212.86 584.184 1212.41 583.176 1211.64 582.44C1210.91 581.672 1209.93 581.288 1208.71 581.288ZM1222.65 576.92H1226.53V569.24H1233.54V576.92H1237.43V582.92H1233.54V599H1226.53V582.92H1222.65V576.92ZM1251.8 599.48C1249.21 599.48 1246.97 599.016 1245.08 598.088C1243.22 597.128 1241.78 595.784 1240.76 594.056C1239.74 592.328 1239.22 590.296 1239.22 587.96C1239.22 584.376 1240.33 581.56 1242.54 579.512C1244.74 577.464 1247.78 576.44 1251.66 576.44C1255.46 576.44 1258.39 577.416 1260.44 579.368C1262.52 581.32 1263.56 584.072 1263.56 587.624C1263.56 587.976 1263.56 588.312 1263.56 588.632C1263.56 588.952 1263.54 589.24 1263.51 589.496H1246.66C1246.86 591 1247.38 592.168 1248.25 593C1249.11 593.832 1250.25 594.248 1251.66 594.248C1254.22 594.248 1256.04 593.288 1257.13 591.368L1263.66 592.952C1261.32 597.304 1257.37 599.48 1251.8 599.48ZM1251.51 581.288C1248.89 581.288 1247.3 582.68 1246.76 585.464H1255.78C1255.66 584.184 1255.21 583.176 1254.44 582.44C1253.7 581.672 1252.73 581.288 1251.51 581.288ZM1281.57 584.456C1281.19 584.072 1280.77 583.768 1280.32 583.544C1279.91 583.32 1279.38 583.208 1278.74 583.208C1277.68 583.208 1276.82 583.624 1276.15 584.456C1275.51 585.288 1275.19 586.504 1275.19 588.104V599H1268.04V576.92H1275.19V579.704C1275.89 578.68 1276.72 577.88 1277.68 577.304C1278.68 576.696 1279.7 576.392 1280.76 576.392C1281.56 576.392 1282.32 576.568 1283.06 576.92C1283.8 577.24 1284.36 577.672 1284.74 578.216L1281.57 584.456Z" fill="#BB6BD9"/>
<path d="M1424.36 90.768C1421.67 90.768 1419.35 90.24 1417.4 89.184C1415.48 88.096 1414 86.688 1412.98 84.96C1411.96 83.2 1411.44 81.328 1411.44 79.344H1419.46C1419.46 81.008 1419.99 82.24 1421.04 83.04C1422.1 83.84 1423.32 84.24 1424.69 84.24C1426.1 84.24 1427.25 83.904 1428.15 83.232C1429.04 82.528 1429.49 81.456 1429.49 80.016C1429.49 78.608 1428.92 77.472 1427.76 76.608C1426.61 75.744 1424.8 75.312 1422.34 75.312V70.08C1424.23 70.08 1425.73 69.632 1426.85 68.736C1427.97 67.84 1428.53 66.8 1428.53 65.616C1428.53 64.624 1428.21 63.824 1427.57 63.216C1426.96 62.576 1426.02 62.256 1424.74 62.256C1423.49 62.256 1422.45 62.64 1421.62 63.408C1420.79 64.144 1420.37 65.088 1420.37 66.24H1412.88C1412.88 64.224 1413.36 62.432 1414.32 60.864C1415.32 59.296 1416.69 58.064 1418.45 57.168C1420.24 56.24 1422.34 55.776 1424.74 55.776C1427.27 55.776 1429.41 56.192 1431.17 57.024C1432.93 57.856 1434.28 58.976 1435.2 60.384C1436.13 61.792 1436.6 63.36 1436.6 65.088C1436.6 66.816 1436.07 68.288 1435.01 69.504C1433.99 70.72 1432.58 71.664 1430.79 72.336C1432.9 73.04 1434.55 74.096 1435.73 75.504C1436.95 76.88 1437.56 78.656 1437.56 80.832C1437.56 82.784 1437.03 84.512 1435.97 86.016C1434.92 87.488 1433.4 88.656 1431.41 89.52C1429.46 90.352 1427.11 90.768 1424.36 90.768ZM1470.53 76.56C1470.53 75.248 1470.29 74.256 1469.81 73.584C1469.33 72.88 1468.5 72.528 1467.31 72.528C1466.16 72.528 1465.23 72.88 1464.53 73.584C1463.82 74.256 1463.47 75.248 1463.47 76.56V90H1456.18V52.56H1463.47V70.944C1464.08 69.76 1464.94 68.832 1466.06 68.16C1467.18 67.456 1468.56 67.104 1470.19 67.104C1472.94 67.104 1474.9 67.824 1476.05 69.264C1477.2 70.704 1477.78 72.784 1477.78 75.504V90H1470.53V76.56ZM1482.16 78.96C1482.16 76.624 1482.71 74.592 1483.79 72.864C1484.91 71.136 1486.42 69.792 1488.31 68.832C1490.23 67.872 1492.39 67.392 1494.79 67.392C1497.22 67.392 1499.38 67.872 1501.27 68.832C1503.15 69.792 1504.64 71.136 1505.73 72.864C1506.85 74.592 1507.41 76.624 1507.41 78.96C1507.41 81.264 1506.85 83.28 1505.73 85.008C1504.64 86.736 1503.15 88.08 1501.27 89.04C1499.38 90 1497.22 90.48 1494.79 90.48C1492.39 90.48 1490.23 90 1488.31 89.04C1486.42 88.08 1484.91 86.736 1483.79 85.008C1482.71 83.28 1482.16 81.264 1482.16 78.96ZM1489.65 78.96C1489.65 80.656 1490.15 82 1491.14 82.992C1492.16 83.984 1493.38 84.48 1494.79 84.48C1496.19 84.48 1497.39 83.984 1498.39 82.992C1499.41 82 1499.92 80.656 1499.92 78.96C1499.92 77.264 1499.41 75.92 1498.39 74.928C1497.39 73.904 1496.19 73.392 1494.79 73.392C1493.38 73.392 1492.16 73.904 1491.14 74.928C1490.15 75.92 1489.65 77.264 1489.65 78.96ZM1519.35 81.36C1519.35 82.64 1519.58 83.632 1520.03 84.336C1520.51 85.04 1521.34 85.392 1522.52 85.392C1523.67 85.392 1524.6 85.04 1525.31 84.336C1526.01 83.632 1526.36 82.64 1526.36 81.36V67.92H1533.66V90H1526.36V86.688C1525.72 87.872 1524.84 88.816 1523.72 89.52C1522.63 90.192 1521.27 90.528 1519.64 90.528C1516.92 90.528 1514.92 89.792 1513.64 88.32C1512.36 86.816 1511.72 84.752 1511.72 82.128V67.92H1519.35V81.36ZM1552.87 75.456C1552.48 75.072 1552.07 74.768 1551.62 74.544C1551.2 74.32 1550.68 74.208 1550.04 74.208C1548.98 74.208 1548.12 74.624 1547.44 75.456C1546.8 76.288 1546.48 77.504 1546.48 79.104V90H1539.33V67.92H1546.48V70.704C1547.19 69.68 1548.02 68.88 1548.98 68.304C1549.97 67.696 1551 67.392 1552.05 67.392C1552.85 67.392 1553.62 67.568 1554.36 67.92C1555.09 68.24 1555.65 68.672 1556.04 69.216L1552.87 75.456ZM1575.86 74.688L1573.41 69.84C1574.69 69.232 1576.19 68.656 1577.92 68.112C1579.68 67.568 1581.6 67.296 1583.68 67.296C1585.63 67.296 1587.38 67.584 1588.91 68.16C1590.45 68.704 1591.67 69.504 1592.56 70.56C1593.46 71.616 1593.91 72.912 1593.91 74.448V90H1586.95V86.976C1586.27 88.128 1585.27 89.008 1583.92 89.616C1582.61 90.192 1581.19 90.48 1579.65 90.48C1578.24 90.48 1576.93 90.224 1575.71 89.712C1574.53 89.168 1573.57 88.368 1572.83 87.312C1572.13 86.256 1571.78 84.976 1571.78 83.472C1571.78 81.36 1572.51 79.696 1573.99 78.48C1575.49 77.232 1577.63 76.608 1580.42 76.608C1581.76 76.608 1582.99 76.752 1584.11 77.04C1585.23 77.296 1586.18 77.616 1586.95 78V76.08C1586.95 73.904 1585.55 72.816 1582.77 72.816C1581.81 72.816 1580.85 72.928 1579.89 73.152C1578.93 73.376 1578.08 73.648 1577.35 73.968C1576.64 74.256 1576.15 74.496 1575.86 74.688ZM1579.12 83.088C1579.12 83.952 1579.41 84.624 1579.99 85.104C1580.59 85.552 1581.35 85.776 1582.24 85.776C1583.43 85.776 1584.48 85.424 1585.41 84.72C1586.34 83.984 1586.85 82.896 1586.95 81.456C1585.63 80.88 1584.21 80.592 1582.67 80.592C1581.39 80.592 1580.48 80.816 1579.94 81.264C1579.39 81.68 1579.12 82.288 1579.12 83.088ZM1606.53 100.56H1599.28V67.92H1606.53V71.472C1607.33 70.096 1608.36 69.04 1609.6 68.304C1610.88 67.536 1612.37 67.152 1614.07 67.152C1615.86 67.152 1617.56 67.6 1619.16 68.496C1620.76 69.36 1622.05 70.672 1623.04 72.432C1624.07 74.192 1624.58 76.368 1624.58 78.96C1624.58 81.552 1624.07 83.728 1623.04 85.488C1622.05 87.216 1620.76 88.528 1619.16 89.424C1617.56 90.32 1615.86 90.768 1614.07 90.768C1612.37 90.768 1610.88 90.4 1609.6 89.664C1608.36 88.896 1607.33 87.824 1606.53 86.448V100.56ZM1616.95 78.96C1616.95 77.232 1616.42 75.904 1615.36 74.976C1614.34 74.048 1613.11 73.584 1611.67 73.584C1610.87 73.584 1610.07 73.792 1609.27 74.208C1608.47 74.592 1607.81 75.184 1607.3 75.984C1606.79 76.752 1606.53 77.744 1606.53 78.96C1606.53 80.144 1606.79 81.136 1607.3 81.936C1607.81 82.736 1608.47 83.344 1609.27 83.76C1610.07 84.144 1610.87 84.336 1611.67 84.336C1613.11 84.336 1614.34 83.872 1615.36 82.944C1616.42 82.016 1616.95 80.688 1616.95 78.96ZM1636.11 100.56H1628.86V67.92H1636.11V71.472C1636.91 70.096 1637.93 69.04 1639.18 68.304C1640.46 67.536 1641.95 67.152 1643.65 67.152C1645.44 67.152 1647.13 67.6 1648.73 68.496C1650.33 69.36 1651.63 70.672 1652.62 72.432C1653.65 74.192 1654.16 76.368 1654.16 78.96C1654.16 81.552 1653.65 83.728 1652.62 85.488C1651.63 87.216 1650.33 88.528 1648.73 89.424C1647.13 90.32 1645.44 90.768 1643.65 90.768C1641.95 90.768 1640.46 90.4 1639.18 89.664C1637.93 88.896 1636.91 87.824 1636.11 86.448V100.56ZM1646.53 78.96C1646.53 77.232 1646 75.904 1644.94 74.976C1643.92 74.048 1642.69 73.584 1641.25 73.584C1640.45 73.584 1639.65 73.792 1638.85 74.208C1638.05 74.592 1637.39 75.184 1636.88 75.984C1636.37 76.752 1636.11 77.744 1636.11 78.96C1636.11 80.144 1636.37 81.136 1636.88 81.936C1637.39 82.736 1638.05 83.344 1638.85 83.76C1639.65 84.144 1640.45 84.336 1641.25 84.336C1642.69 84.336 1643.92 83.872 1644.94 82.944C1646 82.016 1646.53 80.688 1646.53 78.96ZM1657.19 78.96C1657.19 76.624 1657.74 74.592 1658.82 72.864C1659.94 71.136 1661.45 69.792 1663.34 68.832C1665.26 67.872 1667.42 67.392 1669.82 67.392C1672.25 67.392 1674.41 67.872 1676.3 68.832C1678.18 69.792 1679.67 71.136 1680.76 72.864C1681.88 74.592 1682.44 76.624 1682.44 78.96C1682.44 81.264 1681.88 83.28 1680.76 85.008C1679.67 86.736 1678.18 88.08 1676.3 89.04C1674.41 90 1672.25 90.48 1669.82 90.48C1667.42 90.48 1665.26 90 1663.34 89.04C1661.45 88.08 1659.94 86.736 1658.82 85.008C1657.74 83.28 1657.19 81.264 1657.19 78.96ZM1664.68 78.96C1664.68 80.656 1665.18 82 1666.17 82.992C1667.19 83.984 1668.41 84.48 1669.82 84.48C1671.22 84.48 1672.42 83.984 1673.42 82.992C1674.44 82 1674.95 80.656 1674.95 78.96C1674.95 77.264 1674.44 75.92 1673.42 74.928C1672.42 73.904 1671.22 73.392 1669.82 73.392C1668.41 73.392 1667.19 73.904 1666.17 74.928C1665.18 75.92 1664.68 77.264 1664.68 78.96ZM1686.32 59.664C1686.32 58.512 1686.72 57.568 1687.52 56.832C1688.35 56.096 1689.36 55.728 1690.55 55.728C1691.73 55.728 1692.72 56.096 1693.52 56.832C1694.35 57.568 1694.77 58.512 1694.77 59.664C1694.77 60.816 1694.35 61.76 1693.52 62.496C1692.72 63.2 1691.73 63.552 1690.55 63.552C1689.36 63.552 1688.35 63.2 1687.52 62.496C1686.72 61.76 1686.32 60.816 1686.32 59.664ZM1686.99 67.92H1694.05V90H1686.99V67.92ZM1714.37 76.56C1714.37 75.248 1714.13 74.256 1713.65 73.584C1713.17 72.88 1712.34 72.528 1711.16 72.528C1710 72.528 1709.08 72.88 1708.37 73.584C1707.67 74.256 1707.32 75.248 1707.32 76.56V90H1700.02V67.92H1707.32V71.232C1707.96 70.016 1708.82 69.072 1709.91 68.4C1711.03 67.728 1712.4 67.392 1714.04 67.392C1716.79 67.392 1718.79 68.128 1720.04 69.6C1721.32 71.072 1721.96 73.136 1721.96 75.792V90H1714.37V76.56ZM1725.04 67.92H1728.92V60.24H1735.93V67.92H1739.82V73.92H1735.93V90H1728.92V73.92H1725.04V67.92ZM1776.61 75.792V90H1769.31V76.56C1769.31 75.248 1769.09 74.256 1768.64 73.584C1768.22 72.88 1767.52 72.528 1766.53 72.528C1765.57 72.528 1764.78 72.864 1764.17 73.536C1763.57 74.208 1763.26 75.216 1763.26 76.56V90H1755.97V76.56C1755.97 75.248 1755.74 74.256 1755.29 73.584C1754.88 72.88 1754.17 72.528 1753.18 72.528C1752.22 72.528 1751.44 72.864 1750.83 73.536C1750.22 74.208 1749.92 75.216 1749.92 76.56V90H1742.91V67.92H1749.92V71.184C1750.56 69.968 1751.41 69.04 1752.46 68.4C1753.52 67.728 1754.8 67.392 1756.3 67.392C1758.03 67.392 1759.41 67.696 1760.43 68.304C1761.49 68.912 1762.22 69.824 1762.64 71.04C1763.44 69.888 1764.43 68.992 1765.61 68.352C1766.8 67.712 1768.14 67.392 1769.65 67.392C1772.21 67.392 1774 68.128 1775.02 69.6C1776.08 71.072 1776.61 73.136 1776.61 75.792ZM1793.57 90.48C1790.97 90.48 1788.73 90.016 1786.85 89.088C1784.99 88.128 1783.55 86.784 1782.53 85.056C1781.5 83.328 1780.99 81.296 1780.99 78.96C1780.99 75.376 1782.09 72.56 1784.3 70.512C1786.51 68.464 1789.55 67.44 1793.42 67.44C1797.23 67.44 1800.16 68.416 1802.21 70.368C1804.29 72.32 1805.33 75.072 1805.33 78.624C1805.33 78.976 1805.33 79.312 1805.33 79.632C1805.33 79.952 1805.31 80.24 1805.28 80.496H1788.43C1788.62 82 1789.15 83.168 1790.01 84C1790.88 84.832 1792.01 85.248 1793.42 85.248C1795.98 85.248 1797.81 84.288 1798.89 82.368L1805.42 83.952C1803.09 88.304 1799.13 90.48 1793.57 90.48ZM1793.28 72.288C1790.65 72.288 1789.07 73.68 1788.53 76.464H1797.55C1797.42 75.184 1796.97 74.176 1796.21 73.44C1795.47 72.672 1794.49 72.288 1793.28 72.288ZM1824.15 76.56C1824.15 75.248 1823.91 74.256 1823.43 73.584C1822.95 72.88 1822.12 72.528 1820.94 72.528C1819.78 72.528 1818.86 72.88 1818.15 73.584C1817.45 74.256 1817.1 75.248 1817.1 76.56V90H1809.8V67.92H1817.1V71.232C1817.74 70.016 1818.6 69.072 1819.69 68.4C1820.81 67.728 1822.18 67.392 1823.82 67.392C1826.57 67.392 1828.57 68.128 1829.82 69.6C1831.1 71.072 1831.74 73.136 1831.74 75.792V90H1824.15V76.56ZM1834.82 67.92H1838.71V60.24H1845.71V67.92H1849.6V73.92H1845.71V90H1838.71V73.92H1834.82V67.92Z" fill="white"/>
<path d="M322.419 565.4H344.739V572.072H330.243V578.072H343.779V584.648H330.243V592.328H344.739V599H322.419V565.4ZM364.973 585.56C364.973 584.248 364.733 583.256 364.253 582.584C363.773 581.88 362.941 581.528 361.757 581.528C360.605 581.528 359.677 581.88 358.973 582.584C358.269 583.256 357.917 584.248 357.917 585.56V599H350.621V576.92H357.917V580.232C358.557 579.016 359.421 578.072 360.509 577.4C361.629 576.728 363.005 576.392 364.637 576.392C367.389 576.392 369.389 577.128 370.637 578.6C371.917 580.072 372.557 582.136 372.557 584.792V599H364.973V585.56ZM376.934 587.96C376.934 585.368 377.43 583.192 378.422 581.432C379.414 579.672 380.71 578.36 382.31 577.496C383.91 576.6 385.606 576.152 387.398 576.152C389.094 576.152 390.582 576.536 391.862 577.304C393.142 578.04 394.182 579.096 394.982 580.472V576.92H402.23V609.56H394.982V595.448C394.182 596.824 393.142 597.896 391.862 598.664C390.582 599.4 389.094 599.768 387.398 599.768C385.606 599.768 383.91 599.32 382.31 598.424C380.71 597.528 379.414 596.216 378.422 594.488C377.43 592.728 376.934 590.552 376.934 587.96ZM384.566 587.96C384.566 589.688 385.078 591.016 386.102 591.944C387.158 592.872 388.406 593.336 389.846 593.336C390.678 593.336 391.478 593.144 392.246 592.76C393.046 592.344 393.702 591.736 394.214 590.936C394.726 590.136 394.982 589.144 394.982 587.96C394.982 586.744 394.726 585.752 394.214 584.984C393.702 584.184 393.046 583.592 392.246 583.208C391.478 582.792 390.678 582.584 389.846 582.584C388.406 582.584 387.158 583.048 386.102 583.976C385.078 584.904 384.566 586.232 384.566 587.96ZM415.441 590.36C415.441 591.64 415.665 592.632 416.113 593.336C416.593 594.04 417.425 594.392 418.609 594.392C419.761 594.392 420.689 594.04 421.393 593.336C422.097 592.632 422.449 591.64 422.449 590.36V576.92H429.745V599H422.449V595.688C421.809 596.872 420.929 597.816 419.809 598.52C418.721 599.192 417.361 599.528 415.729 599.528C413.009 599.528 411.009 598.792 409.729 597.32C408.449 595.816 407.809 593.752 407.809 591.128V576.92H415.441V590.36ZM434.986 568.664C434.986 567.512 435.386 566.568 436.186 565.832C437.018 565.096 438.026 564.728 439.21 564.728C440.394 564.728 441.386 565.096 442.186 565.832C443.018 566.568 443.434 567.512 443.434 568.664C443.434 569.816 443.018 570.76 442.186 571.496C441.386 572.2 440.394 572.552 439.21 572.552C438.026 572.552 437.018 572.2 436.186 571.496C435.386 570.76 434.986 569.816 434.986 568.664ZM435.658 576.92H442.714V599H435.658V576.92ZM462.22 584.456C461.836 584.072 461.42 583.768 460.972 583.544C460.556 583.32 460.028 583.208 459.388 583.208C458.332 583.208 457.468 583.624 456.796 584.456C456.156 585.288 455.836 586.504 455.836 588.104V599H448.684V576.92H455.836V579.704C456.54 578.68 457.372 577.88 458.332 577.304C459.324 576.696 460.348 576.392 461.404 576.392C462.204 576.392 462.972 576.568 463.708 576.92C464.444 577.24 465.004 577.672 465.388 578.216L462.22 584.456ZM478.995 599.48C476.403 599.48 474.163 599.016 472.275 598.088C470.419 597.128 468.979 595.784 467.955 594.056C466.931 592.328 466.419 590.296 466.419 587.96C466.419 584.376 467.523 581.56 469.731 579.512C471.939 577.464 474.979 576.44 478.851 576.44C482.659 576.44 485.587 577.416 487.635 579.368C489.715 581.32 490.755 584.072 490.755 587.624C490.755 587.976 490.755 588.312 490.755 588.632C490.755 588.952 490.739 589.24 490.707 589.496H473.859C474.051 591 474.579 592.168 475.443 593C476.307 593.832 477.443 594.248 478.851 594.248C481.411 594.248 483.235 593.288 484.323 591.368L490.851 592.952C488.515 597.304 484.563 599.48 478.995 599.48ZM478.707 581.288C476.083 581.288 474.499 582.68 473.955 585.464H482.979C482.851 584.184 482.403 583.176 481.635 582.44C480.899 581.672 479.923 581.288 478.707 581.288ZM508.766 584.456C508.382 584.072 507.966 583.768 507.518 583.544C507.102 583.32 506.574 583.208 505.934 583.208C504.878 583.208 504.014 583.624 503.342 584.456C502.702 585.288 502.382 586.504 502.382 588.104V599H495.23V576.92H502.382V579.704C503.086 578.68 503.918 577.88 504.878 577.304C505.87 576.696 506.894 576.392 507.95 576.392C508.75 576.392 509.518 576.568 510.254 576.92C510.99 577.24 511.55 577.672 511.934 578.216L508.766 584.456Z" fill="#F2F2F2"/>
<path d="M81.7395 565.4H93.9795C98.2675 565.4 101.516 566.424 103.724 568.472C105.964 570.52 107.084 573.16 107.084 576.392C107.084 578.696 106.508 580.728 105.356 582.488C104.236 584.216 102.572 585.496 100.364 586.328L109.1 599H99.5475L92.3475 587.384H89.8515V599H81.7395V565.4ZM93.4035 572.312H89.8515V581.048H93.4035C95.0355 581.048 96.3155 580.664 97.2435 579.896C98.1715 579.128 98.6355 578.056 98.6355 576.68C98.6355 575.272 98.1715 574.2 97.2435 573.464C96.3155 572.696 95.0355 572.312 93.4035 572.312ZM123.378 599.48C120.786 599.48 118.546 599.016 116.658 598.088C114.802 597.128 113.362 595.784 112.338 594.056C111.314 592.328 110.802 590.296 110.802 587.96C110.802 584.376 111.906 581.56 114.114 579.512C116.322 577.464 119.362 576.44 123.234 576.44C127.042 576.44 129.97 577.416 132.018 579.368C134.098 581.32 135.138 584.072 135.138 587.624C135.138 587.976 135.138 588.312 135.138 588.632C135.138 588.952 135.122 589.24 135.09 589.496H118.242C118.434 591 118.962 592.168 119.826 593C120.69 593.832 121.826 594.248 123.234 594.248C125.794 594.248 127.618 593.288 128.706 591.368L135.234 592.952C132.898 597.304 128.946 599.48 123.378 599.48ZM123.09 581.288C120.466 581.288 118.882 582.68 118.338 585.464H127.362C127.234 584.184 126.786 583.176 126.018 582.44C125.282 581.672 124.306 581.288 123.09 581.288ZM137.645 576.92H140.429V568.76C140.429 566.296 141.117 564.36 142.493 562.952C143.901 561.512 145.981 560.792 148.733 560.792C150.365 560.792 151.661 561.08 152.621 561.656C153.613 562.2 154.365 562.712 154.877 563.192L151.949 568.52C151.373 567.72 150.621 567.32 149.693 567.32C148.157 567.32 147.389 568.408 147.389 570.584V576.92H152.717V582.92H147.389V599H140.429V582.92H137.645V576.92ZM167.393 599.48C164.801 599.48 162.561 599.016 160.673 598.088C158.817 597.128 157.377 595.784 156.353 594.056C155.329 592.328 154.817 590.296 154.817 587.96C154.817 584.376 155.921 581.56 158.129 579.512C160.337 577.464 163.377 576.44 167.249 576.44C171.057 576.44 173.985 577.416 176.033 579.368C178.113 581.32 179.153 584.072 179.153 587.624C179.153 587.976 179.153 588.312 179.153 588.632C179.153 588.952 179.137 589.24 179.105 589.496H162.257C162.449 591 162.977 592.168 163.841 593C164.705 593.832 165.841 594.248 167.249 594.248C169.809 594.248 171.633 593.288 172.721 591.368L179.249 592.952C176.913 597.304 172.961 599.48 167.393 599.48ZM167.105 581.288C164.481 581.288 162.897 582.68 162.353 585.464H171.377C171.249 584.184 170.801 583.176 170.033 582.44C169.297 581.672 168.321 581.288 167.105 581.288ZM197.165 584.456C196.781 584.072 196.365 583.768 195.917 583.544C195.501 583.32 194.973 583.208 194.333 583.208C193.277 583.208 192.413 583.624 191.741 584.456C191.101 585.288 190.781 586.504 190.781 588.104V599H183.629V576.92H190.781V579.704C191.485 578.68 192.317 577.88 193.277 577.304C194.269 576.696 195.293 576.392 196.349 576.392C197.149 576.392 197.917 576.568 198.653 576.92C199.389 577.24 199.949 577.672 200.333 578.216L197.165 584.456ZM216.899 584.456C216.515 584.072 216.099 583.768 215.651 583.544C215.235 583.32 214.707 583.208 214.067 583.208C213.011 583.208 212.147 583.624 211.475 584.456C210.835 585.288 210.515 586.504 210.515 588.104V599H203.363V576.92H210.515V579.704C211.219 578.68 212.051 577.88 213.011 577.304C214.003 576.696 215.027 576.392 216.083 576.392C216.883 576.392 217.651 576.568 218.387 576.92C219.123 577.24 219.683 577.672 220.067 578.216L216.899 584.456ZM233.674 599.48C231.083 599.48 228.843 599.016 226.955 598.088C225.099 597.128 223.659 595.784 222.635 594.056C221.611 592.328 221.099 590.296 221.099 587.96C221.099 584.376 222.203 581.56 224.411 579.512C226.619 577.464 229.659 576.44 233.531 576.44C237.339 576.44 240.267 577.416 242.315 579.368C244.395 581.32 245.435 584.072 245.435 587.624C245.435 587.976 245.435 588.312 245.435 588.632C245.435 588.952 245.419 589.24 245.387 589.496H228.539C228.731 591 229.259 592.168 230.123 593C230.987 593.832 232.123 594.248 233.531 594.248C236.091 594.248 237.915 593.288 239.003 591.368L245.531 592.952C243.195 597.304 239.243 599.48 233.674 599.48ZM233.387 581.288C230.763 581.288 229.179 582.68 228.635 585.464H237.659C237.531 584.184 237.083 583.176 236.315 582.44C235.579 581.672 234.603 581.288 233.387 581.288ZM263.446 584.456C263.062 584.072 262.646 583.768 262.198 583.544C261.782 583.32 261.254 583.208 260.614 583.208C259.558 583.208 258.694 583.624 258.022 584.456C257.382 585.288 257.062 586.504 257.062 588.104V599H249.91V576.92H257.062V579.704C257.766 578.68 258.598 577.88 259.558 577.304C260.55 576.696 261.574 576.392 262.63 576.392C263.43 576.392 264.198 576.568 264.934 576.92C265.67 577.24 266.23 577.672 266.614 578.216L263.446 584.456Z" fill="#56CCF2"/>
<path d="M2427.07 67.56H2433.7C2432.03 71.144 2430.74 74.936 2429.81 78.936C2428.91 82.936 2428.46 86.984 2428.46 91.08C2428.46 95.144 2428.91 99.176 2429.81 103.176C2430.74 107.176 2432.03 110.984 2433.7 114.6H2427.07C2425.15 110.984 2423.7 107.176 2422.7 103.176C2421.74 99.176 2421.26 95.144 2421.26 91.08C2421.26 86.984 2421.74 82.936 2422.7 78.936C2423.7 74.936 2425.15 71.144 2427.07 67.56ZM2435.32 105L2450.3 89.496C2451.64 88.056 2452.7 86.776 2453.46 85.656C2454.23 84.504 2454.62 83.272 2454.62 81.96C2454.62 80.872 2454.23 79.896 2453.46 79.032C2452.7 78.168 2451.54 77.736 2450.01 77.736C2448.44 77.736 2447.19 78.312 2446.26 79.464C2445.37 80.584 2444.92 82.04 2444.92 83.832H2436.95C2436.95 81.432 2437.45 79.24 2438.44 77.256C2439.46 75.272 2440.97 73.688 2442.95 72.504C2444.94 71.32 2447.38 70.728 2450.3 70.728C2453.08 70.728 2455.42 71.272 2457.3 72.36C2459.19 73.416 2460.62 74.76 2461.58 76.392C2462.54 78.024 2463.02 79.688 2463.02 81.384C2463.02 83.176 2462.57 84.84 2461.67 86.376C2460.81 87.912 2459.64 89.304 2458.17 90.552L2450.39 97.56H2463.83V105H2435.32ZM2481.84 71.544H2492.16L2482.13 82.728C2482.58 82.568 2483.04 82.456 2483.52 82.392C2484.04 82.328 2484.6 82.296 2485.2 82.296C2486.9 82.296 2488.53 82.728 2490.1 83.592C2491.7 84.456 2493.01 85.704 2494.04 87.336C2495.09 88.968 2495.62 90.92 2495.62 93.192C2495.62 95.944 2495 98.264 2493.75 100.152C2492.53 102.008 2490.88 103.416 2488.8 104.376C2486.76 105.304 2484.47 105.768 2481.94 105.768C2479.44 105.768 2477.16 105.304 2475.08 104.376C2473 103.416 2471.33 102.008 2470.08 100.152C2468.87 98.264 2468.26 95.944 2468.26 93.192C2468.26 91.368 2468.64 89.688 2469.41 88.152C2470.18 86.616 2471.11 85.176 2472.2 83.832L2481.84 71.544ZM2476.28 93.192C2476.28 94.888 2476.82 96.264 2477.91 97.32C2479 98.344 2480.34 98.856 2481.94 98.856C2483.54 98.856 2484.87 98.344 2485.92 97.32C2487.01 96.264 2487.56 94.888 2487.56 93.192C2487.56 91.496 2487.01 90.12 2485.92 89.064C2484.87 88.008 2483.54 87.48 2481.94 87.48C2480.34 87.48 2479 88.008 2477.91 89.064C2476.82 90.12 2476.28 91.496 2476.28 93.192ZM2499.02 79.368C2499.02 77.736 2499.42 76.248 2500.22 74.904C2501.02 73.56 2502.11 72.488 2503.49 71.688C2504.86 70.888 2506.42 70.488 2508.14 70.488C2509.87 70.488 2511.42 70.888 2512.8 71.688C2514.18 72.488 2515.25 73.56 2516.02 74.904C2516.82 76.248 2517.22 77.736 2517.22 79.368C2517.22 81 2516.82 82.488 2516.02 83.832C2515.25 85.176 2514.18 86.248 2512.8 87.048C2511.42 87.848 2509.87 88.248 2508.14 88.248C2506.42 88.248 2504.86 87.848 2503.49 87.048C2502.11 86.248 2501.02 85.176 2500.22 83.832C2499.42 82.488 2499.02 81 2499.02 79.368ZM2529.17 71.4H2536.7L2510.88 105H2503.39L2529.17 71.4ZM2505.02 79.368C2505.02 80.232 2505.31 80.984 2505.89 81.624C2506.5 82.232 2507.25 82.536 2508.14 82.536C2509.07 82.536 2509.81 82.232 2510.35 81.624C2510.93 80.984 2511.22 80.232 2511.22 79.368C2511.22 78.504 2510.93 77.752 2510.35 77.112C2509.81 76.472 2509.07 76.152 2508.14 76.152C2507.25 76.152 2506.5 76.472 2505.89 77.112C2505.31 77.752 2505.02 78.504 2505.02 79.368ZM2522.88 97.032C2522.88 95.4 2523.28 93.912 2524.08 92.568C2524.88 91.224 2525.95 90.152 2527.3 89.352C2528.67 88.552 2530.22 88.152 2531.95 88.152C2533.68 88.152 2535.23 88.552 2536.61 89.352C2537.98 90.152 2539.06 91.224 2539.82 92.568C2540.62 93.912 2541.02 95.4 2541.02 97.032C2541.02 98.664 2540.62 100.152 2539.82 101.496C2539.06 102.84 2537.98 103.912 2536.61 104.712C2535.23 105.512 2533.68 105.912 2531.95 105.912C2530.22 105.912 2528.67 105.512 2527.3 104.712C2525.95 103.912 2524.88 102.84 2524.08 101.496C2523.28 100.152 2522.88 98.664 2522.88 97.032ZM2528.88 97.032C2528.88 97.896 2529.17 98.648 2529.74 99.288C2530.32 99.896 2531.06 100.2 2531.95 100.2C2532.88 100.2 2533.62 99.896 2534.16 99.288C2534.74 98.648 2535.02 97.896 2535.02 97.032C2535.02 96.168 2534.74 95.432 2534.16 94.824C2533.62 94.184 2532.88 93.864 2531.95 93.864C2531.06 93.864 2530.32 94.184 2529.74 94.824C2529.17 95.432 2528.88 96.168 2528.88 97.032ZM2549.37 114.6H2542.75C2544.45 110.984 2545.74 107.176 2546.64 103.176C2547.57 99.176 2548.03 95.144 2548.03 91.08C2548.03 86.984 2547.57 82.936 2546.64 78.936C2545.74 74.936 2544.45 71.144 2542.75 67.56H2549.37C2551.29 71.144 2552.73 74.936 2553.69 78.936C2554.69 82.936 2555.18 86.984 2555.18 91.08C2555.18 95.144 2554.69 99.176 2553.69 103.176C2552.73 107.176 2551.29 110.984 2549.37 114.6ZM2576.38 71.4H2596.78V78.408H2584.2V84.984H2596.3V91.512H2584.2V105H2576.38V71.4ZM2608.89 96.36C2608.89 97.64 2609.11 98.632 2609.56 99.336C2610.04 100.04 2610.87 100.392 2612.05 100.392C2613.21 100.392 2614.13 100.04 2614.84 99.336C2615.54 98.632 2615.89 97.64 2615.89 96.36V82.92H2623.19V105H2615.89V101.688C2615.25 102.872 2614.37 103.816 2613.25 104.52C2612.17 105.192 2610.81 105.528 2609.17 105.528C2606.45 105.528 2604.45 104.792 2603.17 103.32C2601.89 101.816 2601.25 99.752 2601.25 97.128V82.92H2608.89V96.36ZM2628.86 67.56H2636.16V105H2628.86V67.56ZM2641.8 67.56H2649.1V105H2641.8V67.56ZM2418.24 154.92H2422.13V147.24H2429.14V154.92H2433.02V160.92H2429.14V177H2422.13V160.92H2418.24V154.92ZM2449.65 162.456C2449.27 162.072 2448.85 161.768 2448.4 161.544C2447.99 161.32 2447.46 161.208 2446.82 161.208C2445.76 161.208 2444.9 161.624 2444.23 162.456C2443.59 163.288 2443.27 164.504 2443.27 166.104V177H2436.11V154.92H2443.27V157.704C2443.97 156.68 2444.8 155.88 2445.76 155.304C2446.75 154.696 2447.78 154.392 2448.83 154.392C2449.63 154.392 2450.4 154.568 2451.14 154.92C2451.87 155.24 2452.43 155.672 2452.82 156.216L2449.65 162.456ZM2458.25 161.688L2455.8 156.84C2457.08 156.232 2458.58 155.656 2460.31 155.112C2462.07 154.568 2463.99 154.296 2466.07 154.296C2468.02 154.296 2469.77 154.584 2471.3 155.16C2472.84 155.704 2474.06 156.504 2474.95 157.56C2475.85 158.616 2476.3 159.912 2476.3 161.448V177H2469.34V173.976C2468.66 175.128 2467.66 176.008 2466.31 176.616C2465 177.192 2463.58 177.48 2462.04 177.48C2460.63 177.48 2459.32 177.224 2458.1 176.712C2456.92 176.168 2455.96 175.368 2455.22 174.312C2454.52 173.256 2454.17 171.976 2454.17 170.472C2454.17 168.36 2454.9 166.696 2456.38 165.48C2457.88 164.232 2460.02 163.608 2462.81 163.608C2464.15 163.608 2465.38 163.752 2466.5 164.04C2467.62 164.296 2468.57 164.616 2469.34 165V163.08C2469.34 160.904 2467.94 159.816 2465.16 159.816C2464.2 159.816 2463.24 159.928 2462.28 160.152C2461.32 160.376 2460.47 160.648 2459.74 160.968C2459.03 161.256 2458.54 161.496 2458.25 161.688ZM2461.51 170.088C2461.51 170.952 2461.8 171.624 2462.38 172.104C2462.98 172.552 2463.74 172.776 2464.63 172.776C2465.82 172.776 2466.87 172.424 2467.8 171.72C2468.73 170.984 2469.24 169.896 2469.34 168.456C2468.02 167.88 2466.6 167.592 2465.06 167.592C2463.78 167.592 2462.87 167.816 2462.33 168.264C2461.78 168.68 2461.51 169.288 2461.51 170.088ZM2487.82 165.96C2487.82 167.72 2488.39 169.112 2489.55 170.136C2490.7 171.16 2492.09 171.672 2493.72 171.672C2495.03 171.672 2496.28 171.4 2497.47 170.856C2498.65 170.28 2499.56 169.464 2500.2 168.408V175.464C2499.43 176.072 2498.47 176.568 2497.32 176.952C2496.17 177.304 2494.76 177.48 2493.1 177.48C2490.63 177.48 2488.44 177 2486.52 176.04C2484.6 175.08 2483.08 173.736 2481.96 172.008C2480.87 170.28 2480.33 168.264 2480.33 165.96C2480.33 163.624 2480.87 161.608 2481.96 159.912C2483.08 158.184 2484.6 156.84 2486.52 155.88C2488.44 154.92 2490.63 154.44 2493.1 154.44C2494.76 154.44 2496.17 154.632 2497.32 155.016C2498.47 155.368 2499.43 155.816 2500.2 156.36V163.464C2499.56 162.408 2498.62 161.608 2497.37 161.064C2496.12 160.52 2494.91 160.248 2493.72 160.248C2492.63 160.248 2491.64 160.504 2490.75 161.016C2489.85 161.496 2489.13 162.168 2488.59 163.032C2488.07 163.896 2487.82 164.872 2487.82 165.96ZM2504.96 146.664C2504.96 145.512 2505.36 144.568 2506.16 143.832C2506.99 143.096 2508 142.728 2509.19 142.728C2510.37 142.728 2511.36 143.096 2512.16 143.832C2512.99 144.568 2513.41 145.512 2513.41 146.664C2513.41 147.816 2512.99 148.76 2512.16 149.496C2511.36 150.2 2510.37 150.552 2509.19 150.552C2508 150.552 2506.99 150.2 2506.16 149.496C2505.36 148.76 2504.96 147.816 2504.96 146.664ZM2505.63 154.92H2512.69V177H2505.63V154.92ZM2533.01 163.56C2533.01 162.248 2532.77 161.256 2532.29 160.584C2531.81 159.88 2530.98 159.528 2529.8 159.528C2528.64 159.528 2527.72 159.88 2527.01 160.584C2526.31 161.256 2525.96 162.248 2525.96 163.56V177H2518.66V154.92H2525.96V158.232C2526.6 157.016 2527.46 156.072 2528.55 155.4C2529.67 154.728 2531.04 154.392 2532.68 154.392C2535.43 154.392 2537.43 155.128 2538.68 156.6C2539.96 158.072 2540.6 160.136 2540.6 162.792V177H2533.01V163.56ZM2545.45 178.584H2552.51C2552.64 179.96 2553.15 180.984 2554.05 181.656C2554.94 182.328 2556.09 182.664 2557.5 182.664C2559.04 182.664 2560.33 182.152 2561.39 181.128C2562.48 180.104 2563.02 178.568 2563.02 176.52V173.064C2561.26 175.624 2558.73 176.904 2555.44 176.904C2553.65 176.904 2551.95 176.488 2550.35 175.656C2548.75 174.824 2547.45 173.576 2546.46 171.912C2545.47 170.216 2544.97 168.136 2544.97 165.672C2544.97 163.176 2545.47 161.096 2546.46 159.432C2547.45 157.768 2548.75 156.52 2550.35 155.688C2551.95 154.856 2553.65 154.44 2555.44 154.44C2558.73 154.44 2561.26 155.72 2563.02 158.28V154.92H2569.98V176.52C2569.98 179.368 2569.44 181.672 2568.35 183.432C2567.26 185.192 2565.79 186.472 2563.93 187.272C2562.11 188.072 2560.08 188.472 2557.84 188.472C2555.09 188.472 2552.83 188.056 2551.07 187.224C2549.31 186.392 2547.98 185.224 2547.09 183.72C2546.19 182.248 2545.65 180.536 2545.45 178.584ZM2552.61 165.672C2552.61 167.4 2553.12 168.728 2554.14 169.656C2555.2 170.584 2556.45 171.048 2557.89 171.048C2558.72 171.048 2559.52 170.856 2560.29 170.472C2561.09 170.056 2561.74 169.448 2562.25 168.648C2562.77 167.848 2563.02 166.856 2563.02 165.672C2563.02 164.456 2562.77 163.464 2562.25 162.696C2561.74 161.896 2561.09 161.304 2560.29 160.92C2559.52 160.504 2558.72 160.296 2557.89 160.296C2556.45 160.296 2555.2 160.76 2554.14 161.688C2553.12 162.616 2552.61 163.944 2552.61 165.672ZM2601.24 177.48C2598.65 177.48 2596.41 177.016 2594.52 176.088C2592.66 175.128 2591.22 173.784 2590.2 172.056C2589.17 170.328 2588.66 168.296 2588.66 165.96C2588.66 162.376 2589.77 159.56 2591.97 157.512C2594.18 155.464 2597.22 154.44 2601.09 154.44C2604.9 154.44 2607.83 155.416 2609.88 157.368C2611.96 159.32 2613 162.072 2613 165.624C2613 165.976 2613 166.312 2613 166.632C2613 166.952 2612.98 167.24 2612.95 167.496H2596.1C2596.29 169 2596.82 170.168 2597.69 171C2598.55 171.832 2599.69 172.248 2601.09 172.248C2603.65 172.248 2605.48 171.288 2606.57 169.368L2613.09 170.952C2610.76 175.304 2606.81 177.48 2601.24 177.48ZM2600.95 159.288C2598.33 159.288 2596.74 160.68 2596.2 163.464H2605.22C2605.09 162.184 2604.65 161.176 2603.88 160.44C2603.14 159.672 2602.17 159.288 2600.95 159.288ZM2631.82 163.56C2631.82 162.248 2631.58 161.256 2631.1 160.584C2630.62 159.88 2629.79 159.528 2628.61 159.528C2627.46 159.528 2626.53 159.88 2625.82 160.584C2625.12 161.256 2624.77 162.248 2624.77 163.56V177H2617.47V154.92H2624.77V158.232C2625.41 157.016 2626.27 156.072 2627.36 155.4C2628.48 154.728 2629.86 154.392 2631.49 154.392C2634.24 154.392 2636.24 155.128 2637.49 156.6C2638.77 158.072 2639.41 160.136 2639.41 162.792V177H2631.82V163.56ZM2643.79 165.96C2643.79 163.368 2644.28 161.192 2645.27 159.432C2646.27 157.672 2647.56 156.36 2649.16 155.496C2650.76 154.6 2652.46 154.152 2654.25 154.152C2655.95 154.152 2657.43 154.536 2658.71 155.304C2659.99 156.04 2661.03 157.096 2661.83 158.472V154.92H2669.08V187.56H2661.83V173.448C2661.03 174.824 2659.99 175.896 2658.71 176.664C2657.43 177.4 2655.95 177.768 2654.25 177.768C2652.46 177.768 2650.76 177.32 2649.16 176.424C2647.56 175.528 2646.27 174.216 2645.27 172.488C2644.28 170.728 2643.79 168.552 2643.79 165.96ZM2651.42 165.96C2651.42 167.688 2651.93 169.016 2652.95 169.944C2654.01 170.872 2655.26 171.336 2656.7 171.336C2657.53 171.336 2658.33 171.144 2659.1 170.76C2659.9 170.344 2660.55 169.736 2661.07 168.936C2661.58 168.136 2661.83 167.144 2661.83 165.96C2661.83 164.744 2661.58 163.752 2661.07 162.984C2660.55 162.184 2659.9 161.592 2659.1 161.208C2658.33 160.792 2657.53 160.584 2656.7 160.584C2655.26 160.584 2654.01 161.048 2652.95 161.976C2651.93 162.904 2651.42 164.232 2651.42 165.96ZM2682.29 168.36C2682.29 169.64 2682.52 170.632 2682.96 171.336C2683.44 172.04 2684.28 172.392 2685.46 172.392C2686.61 172.392 2687.54 172.04 2688.24 171.336C2688.95 170.632 2689.3 169.64 2689.3 168.36V154.92H2696.6V177H2689.3V173.688C2688.66 174.872 2687.78 175.816 2686.66 176.52C2685.57 177.192 2684.21 177.528 2682.58 177.528C2679.86 177.528 2677.86 176.792 2676.58 175.32C2675.3 173.816 2674.66 171.752 2674.66 169.128V154.92H2682.29V168.36ZM2701.84 146.664C2701.84 145.512 2702.24 144.568 2703.04 143.832C2703.87 143.096 2704.88 142.728 2706.06 142.728C2707.25 142.728 2708.24 143.096 2709.04 143.832C2709.87 144.568 2710.29 145.512 2710.29 146.664C2710.29 147.816 2709.87 148.76 2709.04 149.496C2708.24 150.2 2707.25 150.552 2706.06 150.552C2704.88 150.552 2703.87 150.2 2703.04 149.496C2702.24 148.76 2701.84 147.816 2701.84 146.664ZM2702.51 154.92H2709.57V177H2702.51V154.92ZM2729.07 162.456C2728.69 162.072 2728.27 161.768 2727.82 161.544C2727.41 161.32 2726.88 161.208 2726.24 161.208C2725.18 161.208 2724.32 161.624 2723.65 162.456C2723.01 163.288 2722.69 164.504 2722.69 166.104V177H2715.54V154.92H2722.69V157.704C2723.39 156.68 2724.22 155.88 2725.18 155.304C2726.18 154.696 2727.2 154.392 2728.26 154.392C2729.06 154.392 2729.82 154.568 2730.56 154.92C2731.3 155.24 2731.86 155.672 2732.24 156.216L2729.07 162.456ZM2759.38 154.92L2744.98 187.56H2737.63L2743.01 175.224L2733.46 154.92H2741.47L2746.71 167.928L2751.89 154.92H2759.38Z" fill="white"/>
<path d="M2423.07 298.56H2429.7C2428.03 302.144 2426.74 305.936 2425.81 309.936C2424.91 313.936 2424.46 317.984 2424.46 322.08C2424.46 326.144 2424.91 330.176 2425.81 334.176C2426.74 338.176 2428.03 341.984 2429.7 345.6H2423.07C2421.15 341.984 2419.7 338.176 2418.7 334.176C2417.74 330.176 2417.26 326.144 2417.26 322.08C2417.26 317.984 2417.74 313.936 2418.7 309.936C2419.7 305.936 2421.15 302.144 2423.07 298.56ZM2431.03 330.048L2450.52 302.4H2456.57V323.136H2461.85V330.048H2456.57V336H2448.12V330.048H2431.03ZM2441.78 324.192H2449.03V314.16L2441.78 324.192ZM2467.14 312.096V305.04L2483.27 301.776V336H2475.44V310.08L2467.14 312.096ZM2489.35 310.368C2489.35 308.736 2489.75 307.248 2490.55 305.904C2491.35 304.56 2492.44 303.488 2493.82 302.688C2495.19 301.888 2496.74 301.488 2498.47 301.488C2500.2 301.488 2501.75 301.888 2503.13 302.688C2504.5 303.488 2505.58 304.56 2506.34 305.904C2507.14 307.248 2507.54 308.736 2507.54 310.368C2507.54 312 2507.14 313.488 2506.34 314.832C2505.58 316.176 2504.5 317.248 2503.13 318.048C2501.75 318.848 2500.2 319.248 2498.47 319.248C2496.74 319.248 2495.19 318.848 2493.82 318.048C2492.44 317.248 2491.35 316.176 2490.55 314.832C2489.75 313.488 2489.35 312 2489.35 310.368ZM2519.5 302.4H2527.03L2501.21 336H2493.72L2519.5 302.4ZM2495.35 310.368C2495.35 311.232 2495.64 311.984 2496.22 312.624C2496.82 313.232 2497.58 313.536 2498.47 313.536C2499.4 313.536 2500.14 313.232 2500.68 312.624C2501.26 311.984 2501.54 311.232 2501.54 310.368C2501.54 309.504 2501.26 308.752 2500.68 308.112C2500.14 307.472 2499.4 307.152 2498.47 307.152C2497.58 307.152 2496.82 307.472 2496.22 308.112C2495.64 308.752 2495.35 309.504 2495.35 310.368ZM2513.21 328.032C2513.21 326.4 2513.61 324.912 2514.41 323.568C2515.21 322.224 2516.28 321.152 2517.62 320.352C2519 319.552 2520.55 319.152 2522.28 319.152C2524.01 319.152 2525.56 319.552 2526.94 320.352C2528.31 321.152 2529.38 322.224 2530.15 323.568C2530.95 324.912 2531.35 326.4 2531.35 328.032C2531.35 329.664 2530.95 331.152 2530.15 332.496C2529.38 333.84 2528.31 334.912 2526.94 335.712C2525.56 336.512 2524.01 336.912 2522.28 336.912C2520.55 336.912 2519 336.512 2517.62 335.712C2516.28 334.912 2515.21 333.84 2514.41 332.496C2513.61 331.152 2513.21 329.664 2513.21 328.032ZM2519.21 328.032C2519.21 328.896 2519.5 329.648 2520.07 330.288C2520.65 330.896 2521.38 331.2 2522.28 331.2C2523.21 331.2 2523.94 330.896 2524.49 330.288C2525.06 329.648 2525.35 328.896 2525.35 328.032C2525.35 327.168 2525.06 326.432 2524.49 325.824C2523.94 325.184 2523.21 324.864 2522.28 324.864C2521.38 324.864 2520.65 325.184 2520.07 325.824C2519.5 326.432 2519.21 327.168 2519.21 328.032ZM2539.7 345.6H2533.08C2534.77 341.984 2536.07 338.176 2536.97 334.176C2537.89 330.176 2538.36 326.144 2538.36 322.08C2538.36 317.984 2537.89 313.936 2536.97 309.936C2536.07 305.936 2534.77 302.144 2533.08 298.56H2539.7C2541.62 302.144 2543.06 305.936 2544.02 309.936C2545.01 313.936 2545.51 317.984 2545.51 322.08C2545.51 326.144 2545.01 330.176 2544.02 334.176C2543.06 338.176 2541.62 341.984 2539.7 345.6ZM2589.27 336L2586.1 329.52H2575.44L2572.32 336H2563.11L2580.82 300.288L2598.48 336H2589.27ZM2580.82 314.784L2577.08 323.328H2584.52L2580.82 314.784ZM2599.99 324.96C2599.99 322.464 2600.49 320.368 2601.48 318.672C2602.47 316.944 2603.77 315.648 2605.37 314.784C2606.97 313.888 2608.66 313.44 2610.45 313.44C2613.72 313.44 2616.25 314.784 2618.04 317.472V298.56H2625.29V336H2618.04V332.448C2616.25 335.136 2613.72 336.48 2610.45 336.48C2608.66 336.48 2606.97 336.048 2605.37 335.184C2603.77 334.288 2602.47 332.976 2601.48 331.248C2600.49 329.52 2599.99 327.424 2599.99 324.96ZM2607.62 324.96C2607.62 326.688 2608.13 328.064 2609.16 329.088C2610.21 330.112 2611.46 330.624 2612.9 330.624C2613.73 330.624 2614.53 330.4 2615.3 329.952C2616.1 329.504 2616.76 328.864 2617.27 328.032C2617.78 327.168 2618.04 326.144 2618.04 324.96C2618.04 323.744 2617.78 322.72 2617.27 321.888C2616.76 321.056 2616.1 320.416 2615.3 319.968C2614.53 319.52 2613.73 319.296 2612.9 319.296C2611.46 319.296 2610.21 319.808 2609.16 320.832C2608.13 321.856 2607.62 323.232 2607.62 324.96ZM2629.57 324.96C2629.57 322.464 2630.06 320.368 2631.06 318.672C2632.05 316.944 2633.34 315.648 2634.94 314.784C2636.54 313.888 2638.24 313.44 2640.03 313.44C2643.3 313.44 2645.82 314.784 2647.62 317.472V298.56H2654.86V336H2647.62V332.448C2645.82 335.136 2643.3 336.48 2640.03 336.48C2638.24 336.48 2636.54 336.048 2634.94 335.184C2633.34 334.288 2632.05 332.976 2631.06 331.248C2630.06 329.52 2629.57 327.424 2629.57 324.96ZM2637.2 324.96C2637.2 326.688 2637.71 328.064 2638.74 329.088C2639.79 330.112 2641.04 330.624 2642.48 330.624C2643.31 330.624 2644.11 330.4 2644.88 329.952C2645.68 329.504 2646.34 328.864 2646.85 328.032C2647.36 327.168 2647.62 326.144 2647.62 324.96C2647.62 323.744 2647.36 322.72 2646.85 321.888C2646.34 321.056 2645.68 320.416 2644.88 319.968C2644.11 319.52 2643.31 319.296 2642.48 319.296C2641.04 319.296 2639.79 319.808 2638.74 320.832C2637.71 321.856 2637.2 323.232 2637.2 324.96ZM2671.72 336.48C2669.13 336.48 2666.89 336.016 2665 335.088C2663.15 334.128 2661.71 332.784 2660.68 331.056C2659.66 329.328 2659.15 327.296 2659.15 324.96C2659.15 321.376 2660.25 318.56 2662.46 316.512C2664.67 314.464 2667.71 313.44 2671.58 313.44C2675.39 313.44 2678.31 314.416 2680.36 316.368C2682.44 318.32 2683.48 321.072 2683.48 324.624C2683.48 324.976 2683.48 325.312 2683.48 325.632C2683.48 325.952 2683.47 326.24 2683.43 326.496H2666.59C2666.78 328 2667.31 329.168 2668.17 330C2669.03 330.832 2670.17 331.248 2671.58 331.248C2674.14 331.248 2675.96 330.288 2677.05 328.368L2683.58 329.952C2681.24 334.304 2677.29 336.48 2671.72 336.48ZM2671.43 318.288C2668.81 318.288 2667.23 319.68 2666.68 322.464H2675.71C2675.58 321.184 2675.13 320.176 2674.36 319.44C2673.63 318.672 2672.65 318.288 2671.43 318.288ZM2686.66 324.96C2686.66 322.464 2687.16 320.368 2688.15 318.672C2689.14 316.944 2690.44 315.648 2692.04 314.784C2693.64 313.888 2695.33 313.44 2697.12 313.44C2700.39 313.44 2702.92 314.784 2704.71 317.472V298.56H2711.96V336H2704.71V332.448C2702.92 335.136 2700.39 336.48 2697.12 336.48C2695.33 336.48 2693.64 336.048 2692.04 335.184C2690.44 334.288 2689.14 332.976 2688.15 331.248C2687.16 329.52 2686.66 327.424 2686.66 324.96ZM2694.29 324.96C2694.29 326.688 2694.81 328.064 2695.83 329.088C2696.89 330.112 2698.13 330.624 2699.57 330.624C2700.41 330.624 2701.21 330.4 2701.97 329.952C2702.77 329.504 2703.43 328.864 2703.94 328.032C2704.45 327.168 2704.71 326.144 2704.71 324.96C2704.71 323.744 2704.45 322.72 2703.94 321.888C2703.43 321.056 2702.77 320.416 2701.97 319.968C2701.21 319.52 2700.41 319.296 2699.57 319.296C2698.13 319.296 2696.89 319.808 2695.83 320.832C2694.81 321.856 2694.29 323.232 2694.29 324.96ZM2729.33 313.92H2733.22V306.24H2740.23V313.92H2744.12V319.92H2740.23V336H2733.22V319.92H2729.33V313.92ZM2745.91 324.96C2745.91 322.624 2746.46 320.592 2747.54 318.864C2748.66 317.136 2750.17 315.792 2752.06 314.832C2753.98 313.872 2756.14 313.392 2758.54 313.392C2760.97 313.392 2763.13 313.872 2765.02 314.832C2766.9 315.792 2768.39 317.136 2769.48 318.864C2770.6 320.592 2771.16 322.624 2771.16 324.96C2771.16 327.264 2770.6 329.28 2769.48 331.008C2768.39 332.736 2766.9 334.08 2765.02 335.04C2763.13 336 2760.97 336.48 2758.54 336.48C2756.14 336.48 2753.98 336 2752.06 335.04C2750.17 334.08 2748.66 332.736 2747.54 331.008C2746.46 329.28 2745.91 327.264 2745.91 324.96ZM2753.4 324.96C2753.4 326.656 2753.9 328 2754.89 328.992C2755.91 329.984 2757.13 330.48 2758.54 330.48C2759.94 330.48 2761.14 329.984 2762.14 328.992C2763.16 328 2763.67 326.656 2763.67 324.96C2763.67 323.264 2763.16 321.92 2762.14 320.928C2761.14 319.904 2759.94 319.392 2758.54 319.392C2757.13 319.392 2755.91 319.904 2754.89 320.928C2753.9 321.92 2753.4 323.264 2753.4 324.96ZM2415.54 396.96C2415.54 394.624 2416.08 392.592 2417.17 390.864C2418.29 389.136 2419.79 387.792 2421.68 386.832C2423.6 385.872 2425.76 385.392 2428.16 385.392C2430.59 385.392 2432.75 385.872 2434.64 386.832C2436.53 387.792 2438.02 389.136 2439.1 390.864C2440.22 392.592 2440.78 394.624 2440.78 396.96C2440.78 399.264 2440.22 401.28 2439.1 403.008C2438.02 404.736 2436.53 406.08 2434.64 407.04C2432.75 408 2430.59 408.48 2428.16 408.48C2425.76 408.48 2423.6 408 2421.68 407.04C2419.79 406.08 2418.29 404.736 2417.17 403.008C2416.08 401.28 2415.54 399.264 2415.54 396.96ZM2423.02 396.96C2423.02 398.656 2423.52 400 2424.51 400.992C2425.54 401.984 2426.75 402.48 2428.16 402.48C2429.57 402.48 2430.77 401.984 2431.76 400.992C2432.78 400 2433.3 398.656 2433.3 396.96C2433.3 395.264 2432.78 393.92 2431.76 392.928C2430.77 391.904 2429.57 391.392 2428.16 391.392C2426.75 391.392 2425.54 391.904 2424.51 392.928C2423.52 393.92 2423.02 395.264 2423.02 396.96ZM2459.45 394.56C2459.45 393.248 2459.21 392.256 2458.73 391.584C2458.25 390.88 2457.42 390.528 2456.23 390.528C2455.08 390.528 2454.15 390.88 2453.45 391.584C2452.75 392.256 2452.39 393.248 2452.39 394.56V408H2445.1V385.92H2452.39V389.232C2453.03 388.016 2453.9 387.072 2454.99 386.4C2456.11 385.728 2457.48 385.392 2459.11 385.392C2461.87 385.392 2463.87 386.128 2465.11 387.6C2466.39 389.072 2467.03 391.136 2467.03 393.792V408H2459.45V394.56ZM2472.71 370.56H2480V408H2472.71V370.56ZM2485.21 377.664C2485.21 376.512 2485.61 375.568 2486.41 374.832C2487.24 374.096 2488.25 373.728 2489.44 373.728C2490.62 373.728 2491.61 374.096 2492.41 374.832C2493.24 375.568 2493.66 376.512 2493.66 377.664C2493.66 378.816 2493.24 379.76 2492.41 380.496C2491.61 381.2 2490.62 381.552 2489.44 381.552C2488.25 381.552 2487.24 381.2 2486.41 380.496C2485.61 379.76 2485.21 378.816 2485.21 377.664ZM2485.88 385.92H2492.94V408H2485.88V385.92ZM2513.26 394.56C2513.26 393.248 2513.02 392.256 2512.54 391.584C2512.06 390.88 2511.23 390.528 2510.05 390.528C2508.89 390.528 2507.97 390.88 2507.26 391.584C2506.56 392.256 2506.21 393.248 2506.21 394.56V408H2498.91V385.92H2506.21V389.232C2506.85 388.016 2507.71 387.072 2508.8 386.4C2509.92 385.728 2511.29 385.392 2512.93 385.392C2515.68 385.392 2517.68 386.128 2518.93 387.6C2520.21 389.072 2520.85 391.136 2520.85 393.792V408H2513.26V394.56ZM2537.8 408.48C2535.21 408.48 2532.97 408.016 2531.08 407.088C2529.22 406.128 2527.78 404.784 2526.76 403.056C2525.74 401.328 2525.22 399.296 2525.22 396.96C2525.22 393.376 2526.33 390.56 2528.54 388.512C2530.74 386.464 2533.78 385.44 2537.66 385.44C2541.46 385.44 2544.39 386.416 2546.44 388.368C2548.52 390.32 2549.56 393.072 2549.56 396.624C2549.56 396.976 2549.56 397.312 2549.56 397.632C2549.56 397.952 2549.54 398.24 2549.51 398.496H2532.66C2532.86 400 2533.38 401.168 2534.25 402C2535.11 402.832 2536.25 403.248 2537.66 403.248C2540.22 403.248 2542.04 402.288 2543.13 400.368L2549.66 401.952C2547.32 406.304 2543.37 408.48 2537.8 408.48ZM2537.51 390.288C2534.89 390.288 2533.3 391.68 2532.76 394.464H2541.78C2541.66 393.184 2541.21 392.176 2540.44 391.44C2539.7 390.672 2538.73 390.288 2537.51 390.288ZM2581.96 393.456C2581.58 393.072 2581.16 392.768 2580.71 392.544C2580.3 392.32 2579.77 392.208 2579.13 392.208C2578.07 392.208 2577.21 392.624 2576.54 393.456C2575.9 394.288 2575.58 395.504 2575.58 397.104V408H2568.43V385.92H2575.58V388.704C2576.28 387.68 2577.11 386.88 2578.07 386.304C2579.07 385.696 2580.09 385.392 2581.15 385.392C2581.95 385.392 2582.71 385.568 2583.45 385.92C2584.19 386.24 2584.75 386.672 2585.13 387.216L2581.96 393.456ZM2598.74 408.48C2596.15 408.48 2593.91 408.016 2592.02 407.088C2590.16 406.128 2588.72 404.784 2587.7 403.056C2586.67 401.328 2586.16 399.296 2586.16 396.96C2586.16 393.376 2587.27 390.56 2589.47 388.512C2591.68 386.464 2594.72 385.44 2598.59 385.44C2602.4 385.44 2605.33 386.416 2607.38 388.368C2609.46 390.32 2610.5 393.072 2610.5 396.624C2610.5 396.976 2610.5 397.312 2610.5 397.632C2610.5 397.952 2610.48 398.24 2610.45 398.496H2593.6C2593.79 400 2594.32 401.168 2595.19 402C2596.05 402.832 2597.19 403.248 2598.59 403.248C2601.15 403.248 2602.98 402.288 2604.07 400.368L2610.59 401.952C2608.26 406.304 2604.31 408.48 2598.74 408.48ZM2598.45 390.288C2595.83 390.288 2594.24 391.68 2593.7 394.464H2602.72C2602.59 393.184 2602.15 392.176 2601.38 391.44C2600.64 390.672 2599.67 390.288 2598.45 390.288ZM2614.16 409.584H2621.21C2621.34 410.96 2621.85 411.984 2622.75 412.656C2623.64 413.328 2624.8 413.664 2626.2 413.664C2627.74 413.664 2629.04 413.152 2630.09 412.128C2631.18 411.104 2631.72 409.568 2631.72 407.52V404.064C2629.96 406.624 2627.44 407.904 2624.14 407.904C2622.35 407.904 2620.65 407.488 2619.05 406.656C2617.45 405.824 2616.16 404.576 2615.16 402.912C2614.17 401.216 2613.68 399.136 2613.68 396.672C2613.68 394.176 2614.17 392.096 2615.16 390.432C2616.16 388.768 2617.45 387.52 2619.05 386.688C2620.65 385.856 2622.35 385.44 2624.14 385.44C2627.44 385.44 2629.96 386.72 2631.72 389.28V385.92H2638.68V407.52C2638.68 410.368 2638.14 412.672 2637.05 414.432C2635.96 416.192 2634.49 417.472 2632.64 418.272C2630.81 419.072 2628.78 419.472 2626.54 419.472C2623.79 419.472 2621.53 419.056 2619.77 418.224C2618.01 417.392 2616.68 416.224 2615.79 414.72C2614.89 413.248 2614.35 411.536 2614.16 409.584ZM2621.31 396.672C2621.31 398.4 2621.82 399.728 2622.84 400.656C2623.9 401.584 2625.15 402.048 2626.59 402.048C2627.42 402.048 2628.22 401.856 2628.99 401.472C2629.79 401.056 2630.44 400.448 2630.96 399.648C2631.47 398.848 2631.72 397.856 2631.72 396.672C2631.72 395.456 2631.47 394.464 2630.96 393.696C2630.44 392.896 2629.79 392.304 2628.99 391.92C2628.22 391.504 2627.42 391.296 2626.59 391.296C2625.15 391.296 2623.9 391.76 2622.84 392.688C2621.82 393.616 2621.31 394.944 2621.31 396.672ZM2643.84 377.664C2643.84 376.512 2644.24 375.568 2645.04 374.832C2645.87 374.096 2646.88 373.728 2648.06 373.728C2649.25 373.728 2650.24 374.096 2651.04 374.832C2651.87 375.568 2652.29 376.512 2652.29 377.664C2652.29 378.816 2651.87 379.76 2651.04 380.496C2650.24 381.2 2649.25 381.552 2648.06 381.552C2646.88 381.552 2645.87 381.2 2645.04 380.496C2644.24 379.76 2643.84 378.816 2643.84 377.664ZM2644.51 385.92H2651.57V408H2644.51V385.92ZM2658.74 399.984C2660.43 401.392 2661.87 402.352 2663.06 402.864C2664.27 403.344 2665.26 403.584 2666.03 403.584C2667.47 403.584 2668.19 403.008 2668.19 401.856C2668.19 401.152 2667.86 400.592 2667.18 400.176C2666.51 399.728 2665.28 399.216 2663.49 398.64C2662.46 398.288 2661.47 397.84 2660.51 397.296C2659.55 396.752 2658.77 396.032 2658.16 395.136C2657.55 394.24 2657.25 393.088 2657.25 391.68C2657.25 389.664 2658.03 388.128 2659.6 387.072C2661.17 385.984 2663.14 385.44 2665.5 385.44C2667.39 385.44 2669.12 385.76 2670.69 386.4C2672.26 387.008 2673.68 387.776 2674.96 388.704L2672.37 393.456C2671.47 392.592 2670.42 391.872 2669.2 391.296C2668.02 390.72 2666.93 390.432 2665.94 390.432C2665.3 390.432 2664.8 390.56 2664.45 390.816C2664.13 391.072 2663.97 391.408 2663.97 391.824C2663.97 392.56 2664.4 393.104 2665.26 393.456C2666.16 393.808 2667.42 394.304 2669.06 394.944C2670.21 395.36 2671.26 395.84 2672.22 396.384C2673.18 396.928 2673.95 397.616 2674.53 398.448C2675.14 399.28 2675.44 400.384 2675.44 401.76C2675.44 404.096 2674.72 405.872 2673.28 407.088C2671.84 408.304 2669.79 408.912 2667.14 408.912C2664.74 408.912 2662.61 408.528 2660.75 407.76C2658.9 406.96 2657.22 405.968 2655.71 404.784L2658.74 399.984ZM2676.83 385.92H2680.72V378.24H2687.73V385.92H2691.62V391.92H2687.73V408H2680.72V391.92H2676.83V385.92ZM2705.99 408.48C2703.4 408.48 2701.16 408.016 2699.27 407.088C2697.41 406.128 2695.97 404.784 2694.95 403.056C2693.92 401.328 2693.41 399.296 2693.41 396.96C2693.41 393.376 2694.52 390.56 2696.72 388.512C2698.93 386.464 2701.97 385.44 2705.84 385.44C2709.65 385.44 2712.58 386.416 2714.63 388.368C2716.71 390.32 2717.75 393.072 2717.75 396.624C2717.75 396.976 2717.75 397.312 2717.75 397.632C2717.75 397.952 2717.73 398.24 2717.7 398.496H2700.85C2701.04 400 2701.57 401.168 2702.44 402C2703.3 402.832 2704.44 403.248 2705.84 403.248C2708.4 403.248 2710.23 402.288 2711.32 400.368L2717.84 401.952C2715.51 406.304 2711.56 408.48 2705.99 408.48ZM2705.7 390.288C2703.08 390.288 2701.49 391.68 2700.95 394.464H2709.97C2709.84 393.184 2709.4 392.176 2708.63 391.44C2707.89 390.672 2706.92 390.288 2705.7 390.288ZM2735.76 393.456C2735.37 393.072 2734.96 392.768 2734.51 392.544C2734.09 392.32 2733.57 392.208 2732.93 392.208C2731.87 392.208 2731.01 392.624 2730.33 393.456C2729.69 394.288 2729.37 395.504 2729.37 397.104V408H2722.22V385.92H2729.37V388.704C2730.08 387.68 2730.91 386.88 2731.87 386.304C2732.86 385.696 2733.89 385.392 2734.94 385.392C2735.74 385.392 2736.51 385.568 2737.25 385.92C2737.98 386.24 2738.54 386.672 2738.93 387.216L2735.76 393.456Z" fill="white"/>
<path d="M1793.29 202.806C1822.13 202.806 1845.51 226.185 1845.51 255.025C1845.51 283.865 1822.13 307.244 1793.29 307.244C1764.45 307.244 1741.08 283.865 1741.08 255.025C1741.1 226.197 1764.47 202.835 1793.29 202.806Z" fill="#EBC1D3"/>
<path d="M1685.01 454.174C1686.01 424.612 1697.16 366.263 1716.7 346.283C1736.87 325.679 1764.05 314.342 1793.29 314.342C1822.54 314.342 1849.72 325.679 1869.89 346.283C1889.43 366.263 1900.58 424.612 1901.58 454.174H1685.01Z" fill="#EBC1D3"/>
<path d="M227.285 199C198.445 199 175.066 222.379 175.066 251.219C175.066 280.059 198.445 303.438 227.285 303.438C256.125 303.438 279.504 280.059 279.504 251.219C279.476 222.391 256.113 199.028 227.285 199Z" fill="#56CCF2"/>
<path d="M335.57 450.368C334.57 420.805 323.421 362.457 303.882 342.477C283.713 321.873 256.533 310.536 227.286 310.536C198.039 310.536 170.857 321.873 150.691 342.477C131.151 362.457 120.003 420.805 119 450.368H335.57Z" fill="#56CCF2"/>
<path d="M384.035 242.536C355.195 242.536 331.816 265.915 331.816 294.755C331.816 323.595 355.195 346.974 384.035 346.974C412.875 346.974 436.254 323.595 436.254 294.755C436.226 265.927 412.863 242.564 384.035 242.536Z" fill="#F2F2F2"/>
<path d="M492.32 493.904C491.32 464.341 480.171 405.992 460.632 386.012C440.463 365.409 413.283 354.072 384.036 354.072C354.789 354.072 327.607 365.409 307.441 386.012C287.901 405.992 276.753 464.341 275.75 493.904H492.32Z" fill="#F2F2F2"/>
<path d="M1305.54 66.6145L1305.54 66.614C1308.06 65.3921 1311.1 66.4447 1312.32 68.9708L1312.32 68.9717C1316.68 77.9865 1318.9 87.7045 1318.9 97.8484C1318.9 134.447 1289.12 164.227 1252.52 164.227C1215.92 164.227 1186.14 134.447 1186.14 97.8484C1186.14 61.2497 1215.92 31.47 1252.52 31.47C1267.47 31.47 1282.11 36.5618 1293.74 45.8074L1293.74 45.8075C1295.94 47.5502 1296.3 50.7431 1294.56 52.9351L1294.56 52.9352C1292.81 55.1294 1289.62 55.4936 1287.43 53.7496L1287.43 53.7489C1277.44 45.8122 1265.37 41.6164 1252.52 41.6164C1221.51 41.6164 1196.29 66.8421 1196.29 97.8484C1196.29 128.855 1221.51 154.08 1252.52 154.08C1283.53 154.08 1308.75 128.855 1308.75 97.8484C1308.75 89.2496 1306.88 81.022 1303.19 73.3893C1301.97 70.869 1303.02 67.8345 1305.54 66.6145Z" fill="#F2F2F2" stroke="#F2F2F2"/>
<path d="M1257.59 92.2751V92.7751H1258.09H1280.39C1283.19 92.7751 1285.46 95.048 1285.46 97.8483C1285.46 100.649 1283.19 102.922 1280.39 102.922H1252.52C1249.72 102.922 1247.45 100.649 1247.45 97.8483V58.8359C1247.45 56.0356 1249.72 53.7627 1252.52 53.7627C1255.32 53.7627 1257.59 56.0356 1257.59 58.8359V92.2751Z" fill="#F2F2F2" stroke="#F2F2F2"/>
<path d="M1564.27 202.806C1593.11 202.806 1616.49 226.185 1616.49 255.025C1616.49 283.865 1593.11 307.244 1564.27 307.244C1535.43 307.244 1512.05 283.865 1512.05 255.025C1512.08 226.197 1535.44 202.835 1564.27 202.806Z" fill="#EBC1D3"/>
<path d="M1455.99 454.174C1456.99 424.612 1468.14 366.263 1487.67 346.283C1507.84 325.679 1535.02 314.342 1564.27 314.342C1593.52 314.342 1620.7 325.679 1640.87 346.283C1660.41 366.263 1671.55 424.612 1672.56 454.174H1455.99Z" fill="#EBC1D3"/>
<path d="M1358.63 327.426V327.926H1359.13H1381.42C1382.87 327.926 1384.15 328.36 1385.07 329.036C1385.98 329.713 1386.5 330.607 1386.5 331.55C1386.5 332.492 1385.98 333.386 1385.07 334.063C1384.15 334.74 1382.87 335.173 1381.42 335.173H1353.56C1352.12 335.173 1350.83 334.74 1349.92 334.063C1349 333.386 1348.48 332.492 1348.48 331.55V302.685C1348.48 301.743 1349 300.849 1349.92 300.172C1350.83 299.495 1352.12 299.062 1353.56 299.062C1355 299.062 1356.29 299.495 1357.2 300.172C1358.12 300.849 1358.63 301.743 1358.63 302.685V327.426Z" fill="#9CAAAE" stroke="#9CAAAE"/>
<path d="M1347.77 335.204L1347.77 334.704L1347.27 334.704L1324.97 334.704C1323.53 334.704 1322.24 334.27 1321.33 333.594C1320.42 332.917 1319.9 332.023 1319.9 331.08C1319.9 330.138 1320.42 329.244 1321.33 328.567C1322.24 327.89 1323.53 327.457 1324.97 327.457L1352.84 327.457C1354.28 327.457 1355.57 327.89 1356.48 328.567C1357.4 329.244 1357.91 330.138 1357.91 331.08L1357.91 359.945C1357.91 360.887 1357.4 361.781 1356.48 362.458C1355.57 363.135 1354.28 363.568 1352.84 363.568C1351.4 363.568 1350.11 363.135 1349.2 362.458C1348.28 361.781 1347.77 360.887 1347.77 359.945L1347.77 335.204Z" fill="#9CAAAE" stroke="#9CAAAE"/>
<rect x="1419.15" y="151.496" width="519.657" height="351.214" stroke="#F6F6F6" stroke-width="10" stroke-dasharray="10 10"/>
<path d="M1128.23 202.806C1157.07 202.806 1180.45 226.185 1180.45 255.025C1180.45 283.865 1157.07 307.244 1128.23 307.244C1099.39 307.244 1076.01 283.865 1076.01 255.025C1076.04 226.197 1099.4 202.835 1128.23 202.806Z" fill="#BB6BD9"/>
<path d="M1019.94 454.174C1020.94 424.612 1032.09 366.263 1051.63 346.283C1071.8 325.679 1098.98 314.342 1128.23 314.342C1157.47 314.342 1184.65 325.679 1204.82 346.283C1224.36 366.263 1235.51 424.612 1236.51 454.174H1019.94Z" fill="#BB6BD9"/>
<path d="M971.477 246.343C1000.32 246.343 1023.7 269.722 1023.7 298.561C1023.7 327.401 1000.32 350.78 971.477 350.78C942.637 350.78 919.258 327.401 919.258 298.561C919.286 269.734 942.649 246.371 971.477 246.343Z" fill="#F2F2F2"/>
<path d="M863.191 497.71C864.192 468.148 875.34 409.799 894.88 389.819C915.048 369.215 942.228 357.878 971.475 357.878C1000.72 357.878 1027.9 369.215 1048.07 389.819C1067.61 409.799 1078.76 468.148 1079.76 497.71H863.191Z" fill="#F2F2F2"/>
<path d="M1043.86 166.28C1041.24 166.28 1039.12 168.403 1039.12 171.022V168.744C1039.12 181.819 1028.48 192.456 1015.41 192.456H964.204C961.585 192.456 959.463 194.577 959.461 197.195L959.455 206.623L948.136 195.305C947.403 193.623 945.726 192.456 943.787 192.456H912.972C899.897 192.456 889.26 181.819 889.26 168.744V95.7124C889.26 82.6379 899.897 72.0009 912.972 72.0009H960.869C963.488 72.0009 965.611 69.8777 965.611 67.2585C965.611 64.6394 963.488 62.5162 960.869 62.5162H912.972C894.667 62.5162 879.775 77.408 879.775 95.7124V168.744C879.775 187.048 894.667 201.94 912.972 201.94H941.358L960.835 221.417C961.742 222.325 962.955 222.806 964.189 222.806C964.8 222.806 965.416 222.688 966.002 222.446C967.774 221.713 968.929 219.985 968.931 218.067L968.942 201.94H1015.41C1033.71 201.94 1048.6 187.048 1048.6 168.744V171.022C1048.6 168.403 1046.48 166.28 1043.86 166.28Z" fill="#F6F6F6"/>
<path d="M1073.65 0H1061.65C1023.65 0 992.725 30.9208 992.725 68.9276C992.725 106.934 1023.65 137.855 1061.65 137.855H1073.65C1079.59 137.855 1085.46 137.101 1091.15 135.612L1108.88 153.332C1109.79 154.238 1111 154.72 1112.23 154.72C1112.84 154.72 1113.46 154.602 1114.05 154.359C1115.82 153.625 1116.97 151.896 1116.97 149.978V122.541C1124.48 116.462 1130.72 108.782 1135.09 100.204C1140.06 90.4601 1142.58 79.9373 1142.58 68.9276C1142.58 30.9208 1111.66 0 1073.65 0ZM1109.38 116.44C1108.19 117.336 1107.49 118.739 1107.49 120.228V138.534L1095.88 126.935C1094.98 126.033 1093.77 125.547 1092.53 125.547C1092.07 125.547 1091.6 125.616 1091.14 125.757C1085.49 127.491 1079.61 128.371 1073.65 128.371H1061.65C1028.87 128.371 1002.21 101.705 1002.21 68.9276C1002.21 36.1506 1028.88 9.48462 1061.65 9.48462H1073.65C1106.43 9.48462 1133.1 36.1506 1133.1 68.9276C1133.1 87.7693 1124.45 105.087 1109.38 116.44Z" fill="#F6F6F6"/>
<path d="M1089.01 51.8909C1088.33 41.9629 1080.32 33.9598 1070.39 33.2754C1064.77 32.8889 1059.39 34.7873 1055.28 38.6252C1051.23 42.4101 1048.9 47.7604 1048.9 53.3046C1048.9 55.9238 1051.03 58.0469 1053.65 58.0469C1056.26 58.0469 1058.39 55.9238 1058.39 53.3046C1058.39 50.3364 1059.58 47.5854 1061.75 45.559C1063.92 43.5345 1066.76 42.5324 1069.74 42.7383C1074.97 43.0987 1079.19 47.3141 1079.55 52.5435C1079.91 57.825 1076.45 62.4923 1071.31 63.6419C1067.15 64.5733 1064.24 68.1907 1064.24 72.4384V83.8318C1064.24 86.451 1066.36 88.5741 1068.98 88.5741C1071.6 88.5741 1073.72 86.451 1073.72 83.8318V72.8173C1083.28 70.5088 1089.69 61.7649 1089.01 51.8909Z" fill="#F6F6F6"/>
<path d="M1072.33 99.2378C1071.45 98.3557 1070.23 97.8483 1068.98 97.8483C1067.73 97.8483 1066.51 98.3557 1065.63 99.2378C1064.75 100.12 1064.24 101.343 1064.24 102.591C1064.24 103.843 1064.75 105.066 1065.63 105.948C1066.51 106.83 1067.73 107.333 1068.98 107.333C1070.23 107.333 1071.45 106.83 1072.33 105.948C1073.22 105.061 1073.72 103.843 1073.72 102.591C1073.72 101.343 1073.22 100.12 1072.33 99.2378Z" fill="#F6F6F6"/>
<path d="M1010.19 127.012H910.126C907.507 127.012 905.383 129.135 905.383 131.754C905.383 134.373 907.507 136.496 910.126 136.496H1010.19C1012.81 136.496 1014.93 134.373 1014.93 131.754C1014.93 129.135 1012.81 127.012 1010.19 127.012Z" fill="#F6F6F6"/>
<path d="M1013.54 154.958C1012.66 154.076 1011.44 153.568 1010.19 153.568C1008.94 153.568 1007.72 154.076 1006.84 154.958C1005.95 155.84 1005.45 157.064 1005.45 158.311C1005.45 159.558 1005.95 160.782 1006.84 161.664C1007.72 162.546 1008.94 163.053 1010.19 163.053C1011.44 163.053 1012.66 162.546 1013.54 161.664C1014.42 160.782 1014.93 159.563 1014.93 158.311C1014.93 157.064 1014.42 155.84 1013.54 154.958Z" fill="#F6F6F6"/>
<path d="M991.535 153.568H910.126C907.507 153.568 905.383 155.692 905.383 158.311C905.383 160.93 907.507 163.053 910.126 163.053H991.535C994.155 163.053 996.278 160.93 996.278 158.311C996.278 155.692 994.154 153.568 991.535 153.568Z" fill="#F6F6F6"/>
<path d="M979.363 100.455H910.126C907.507 100.455 905.383 102.578 905.383 105.197C905.383 107.816 907.507 109.939 910.126 109.939H979.363C981.983 109.939 984.106 107.816 984.106 105.197C984.106 102.578 981.982 100.455 979.363 100.455Z" fill="#F6F6F6"/>
<path d="M747.536 330.536C749.488 328.583 749.488 325.417 747.536 323.464L715.716 291.645C713.763 289.692 710.597 289.692 708.645 291.645C706.692 293.597 706.692 296.763 708.645 298.716L736.929 327L708.645 355.284C706.692 357.237 706.692 360.403 708.645 362.355C710.597 364.308 713.763 364.308 715.716 362.355L747.536 330.536ZM597 332L744 332L744 322L597 322L597 332Z" fill="#9CAAAE"/>
<path d="M2350.42 577.943C2352.37 579.896 2352.37 583.061 2350.42 585.014L2318.6 616.834C2316.64 618.786 2313.48 618.786 2311.53 616.834C2309.57 614.881 2309.57 611.715 2311.53 609.763L2339.81 581.478L2311.53 553.194C2309.57 551.242 2309.57 548.076 2311.53 546.123C2313.48 544.171 2316.64 544.171 2318.6 546.123L2350.42 577.943ZM2153.04 576.478L2346.88 576.478L2346.88 586.478L2153.04 586.478L2153.04 576.478Z" fill="#D81159"/>
<line y1="-5" x2="187.991" y2="-5" transform="matrix(-4.37114e-08 -1 -1 4.37114e-08 2153.04 585.73)" stroke="#D81159" stroke-width="10"/>
<line y1="-5" x2="172.005" y2="-5" transform="matrix(-1 8.74228e-08 8.74228e-08 1 2163.04 397.739)" stroke="#D81159" stroke-width="10"/>
<path d="M2350.42 131.815C2352.37 129.862 2352.37 126.696 2350.42 124.744L2318.6 92.9237C2316.64 90.9711 2313.48 90.9711 2311.53 92.9237C2309.57 94.8763 2309.57 98.0421 2311.53 99.9948L2339.81 128.279L2311.53 156.563C2309.57 158.516 2309.57 161.682 2311.53 163.634C2313.48 165.587 2316.64 165.587 2318.6 163.634L2350.42 131.815ZM2153.04 133.279L2346.88 133.279L2346.88 123.279L2153.04 123.279L2153.04 133.279Z" fill="#F2F2F2"/>
<line x1="2158.04" y1="124.027" x2="2158.04" y2="312.018" stroke="#F2F2F2" stroke-width="10"/>
<line x1="2163.04" y1="317.018" x2="1991.04" y2="317.018" stroke="#F2F2F2" stroke-width="10"/>
<path d="M2350.42 358.414C2352.37 356.462 2352.37 353.296 2350.42 351.343L2318.6 319.523C2316.64 317.571 2313.48 317.571 2311.53 319.523C2309.57 321.476 2309.57 324.642 2311.53 326.594L2339.81 354.879L2311.53 383.163C2309.57 385.116 2309.57 388.281 2311.53 390.234C2313.48 392.187 2316.64 392.187 2318.6 390.234L2350.42 358.414ZM1991.04 359.879L2346.88 359.879L2346.88 349.879L1991.04 349.879L1991.04 359.879Z" fill="#F2F2F2"/>
<path fill-rule="evenodd" clip-rule="evenodd" d="M2424.15 596.849C2415.95 588.649 2415.95 575.352 2424.15 567.151C2432.34 558.95 2445.63 558.95 2453.82 567.151C2462.02 575.289 2462.07 588.536 2453.93 596.736C2453.9 596.774 2453.86 596.812 2453.82 596.849C2445.63 605.05 2432.34 605.05 2424.15 596.849Z" fill="#D81159"/>
<rect x="2430.83" y="588.534" width="20.7889" height="2.30988" transform="rotate(-45 2430.83 588.534)" fill="white"/>
<path d="M2445.53 590.166L2430.83 575.466L2432.47 573.833L2447.17 588.533L2445.53 590.166Z" fill="white"/>
</svg>
