<svg width="468" height="262" viewBox="0 0 468 262" fill="none" xmlns="http://www.w3.org/2000/svg">
<path d="M150.235 261.028L0.000577562 0.813971L300.47 0.813997L150.235 261.028Z" fill="#D81159"/>
<rect x="150.298" y="0.811523" width="187.542" height="260.683" fill="#FFBC42"/>
<path d="M337.334 0.811523C354.451 0.811524 371.4 4.18291 387.214 10.7332C403.028 17.2835 417.396 26.8844 429.5 38.9877C441.603 51.091 451.204 65.4598 457.754 81.2736C464.304 97.0873 467.676 114.036 467.676 131.153C467.676 148.27 464.304 165.219 457.754 181.033C451.204 196.846 441.603 211.215 429.5 223.319C417.396 235.422 403.028 245.023 387.214 251.573C371.4 258.123 354.451 261.495 337.334 261.495L337.334 131.153L337.334 0.811523Z" fill="#73D2DE"/>
</svg>
